<svg width="205" height="202" viewBox="0 0 205 202" fill="none" xmlns="http://www.w3.org/2000/svg">
<path d="M200.217 71.9436C203.472 70.729 205.144 67.0962 203.739 63.9186C197.557 49.9432 188.415 37.4456 176.917 27.3041C163.844 15.7731 148.129 7.64406 131.164 3.63713C114.199 -0.369814 96.5079 -0.130963 79.6573 4.3325C62.8066 8.79595 47.3168 17.3463 34.5599 29.226C21.8029 41.1058 12.1727 55.9484 6.52222 72.4389C0.871713 88.9295 -0.624664 106.559 2.16565 123.766C4.95597 140.973 11.9468 157.227 22.519 171.086C31.8171 183.276 43.633 193.284 57.1334 200.444C60.203 202.071 63.9455 200.662 65.3885 197.502C66.8315 194.341 65.4269 190.628 62.3704 188.975C50.7467 182.691 40.5662 173.999 32.5233 163.455C23.2061 151.241 17.045 136.917 14.5859 121.752C12.1268 106.588 13.4456 91.0507 18.4254 76.5176C23.4051 61.9845 31.8922 48.9038 43.1348 38.4341C54.3775 27.9645 68.0286 20.4292 82.879 16.4955C97.7295 12.5619 113.321 12.3514 128.272 15.8827C143.223 19.414 157.073 26.5781 168.594 36.7404C178.54 45.5128 186.485 56.2856 191.927 68.3268C193.358 71.4931 196.962 73.1582 200.217 71.9436Z" fill="url(#paint0_linear_1_13268)"/>
<defs>
<linearGradient id="paint0_linear_1_13268" x1="90.3361" y1="12.7166" x2="3.88407" y2="117.974" gradientUnits="userSpaceOnUse">
<stop stop-color="#6C5DD3"/>
<stop offset="1" stop-color="#6C5DD3" stop-opacity="0"/>
</linearGradient>
</defs>
</svg>
