<svg width="18" height="5" viewBox="0 0 18 5" fill="none" xmlns="http://www.w3.org/2000/svg">
<path d="M3.00077 0.320923C1.8222 0.320923 0.85791 1.28521 0.85791 2.46378C0.85791 3.64235 1.8222 4.60664 3.00077 4.60664C4.17934 4.60664 5.14362 3.64235 5.14362 2.46378C5.14362 1.28521 4.17934 0.320923 3.00077 0.320923ZM15.8579 0.320923C14.6793 0.320923 13.7151 1.28521 13.7151 2.46378C13.7151 3.64235 14.6793 4.60664 15.8579 4.60664C17.0365 4.60664 18.0008 3.64235 18.0008 2.46378C18.0008 1.28521 17.0365 0.320923 15.8579 0.320923ZM9.42934 0.320923C8.25077 0.320923 7.28648 1.28521 7.28648 2.46378C7.28648 3.64235 8.25077 4.60664 9.42934 4.60664C10.6079 4.60664 11.5722 3.64235 11.5722 2.46378C11.5722 1.28521 10.6079 0.320923 9.42934 0.320923Z" fill="white"/>
</svg>
