<svg width="342" height="81" viewBox="0 0 342 81" fill="none" xmlns="http://www.w3.org/2000/svg">
<path d="M310.909 10H1.14441e-05L31.0909 71H342L310.909 10Z" fill="#15131D"/>
<path d="M154.777 2H317.008L333.231 41M8.76915 41L24.9922 80H187.223" stroke="url(#paint0_linear_1_13150)"/>
<path d="M58.2 43.56H62.36V47.28C62.36 49.5467 61.8 51.2933 60.68 52.52C59.56 53.72 57.9333 54.32 55.8 54.32C53.6667 54.32 52.04 53.72 50.92 52.52C49.8 51.2933 49.24 49.5467 49.24 47.28V32.72C49.24 30.4533 49.8 28.72 50.92 27.52C52.04 26.2933 53.6667 25.68 55.8 25.68C57.9333 25.68 59.56 26.2933 60.68 27.52C61.8 28.72 62.36 30.4533 62.36 32.72V35.44H58.2V32.44C58.2 30.6 57.44 29.68 55.92 29.68C54.4 29.68 53.64 30.6 53.64 32.44V47.56C53.64 49.3733 54.4 50.28 55.92 50.28C57.44 50.28 58.2 49.3733 58.2 47.56V43.56ZM69.9297 42V54H65.5297V26H69.9297V38H74.9297V26H79.4097V54H74.9297V42H69.9297ZM92.86 26L97.34 54H92.9L92.14 48.92H86.74L85.98 54H81.94L86.42 26H92.86ZM89.42 30.96L87.3 45.12H91.54L89.42 30.96ZM109.289 54L103.809 33.72V54H99.8491V26H105.369L109.889 42.76V26H113.809V54H109.289ZM126.859 54L121.379 33.72V54H117.419V26H122.939L127.459 42.76V26H131.379V54H126.859ZM139.43 30V37.8H145.47V41.8H139.43V50H147.03V54H135.03V26H147.03V30H139.43ZM150.256 54V26H154.656V50H161.896V54H150.256Z" fill="white"/>
<path d="M180.782 26L185.262 54H180.822L180.062 48.92H174.662L173.902 54H169.862L174.342 26H180.782ZM177.342 30.96L175.222 45.12H179.462L177.342 30.96ZM197.211 54L191.731 33.72V54H187.771V26H193.291L197.811 42.76V26H201.731V54H197.211ZM215.141 26L219.621 54H215.181L214.421 48.92H209.021L208.261 54H204.221L208.701 26H215.141ZM211.701 30.96L209.581 45.12H213.821L211.701 30.96ZM222.17 54V26H226.57V50H233.81V54H222.17ZM237.884 54V44.72L232.324 26H236.924L240.284 38.76L243.644 26H247.844L242.284 44.72V54H237.884ZM248.843 30V26H262.443V30H257.843V54H253.443V30H248.843ZM264.881 54V26H269.281V54H264.881ZM281.598 43.56H285.758V47.28C285.758 49.5467 285.198 51.2933 284.078 52.52C282.958 53.72 281.332 54.32 279.198 54.32C277.065 54.32 275.438 53.72 274.318 52.52C273.198 51.2933 272.638 49.5467 272.638 47.28V32.72C272.638 30.4533 273.198 28.72 274.318 27.52C275.438 26.2933 277.065 25.68 279.198 25.68C281.332 25.68 282.958 26.2933 284.078 27.52C285.198 28.72 285.758 30.4533 285.758 32.72V35.44H281.598V32.44C281.598 30.6 280.838 29.68 279.318 29.68C277.798 29.68 277.038 30.6 277.038 32.44V47.56C277.038 49.3733 277.798 50.28 279.318 50.28C280.838 50.28 281.598 49.3733 281.598 47.56V43.56ZM288.368 32.72C288.368 30.4533 288.915 28.72 290.008 27.52C291.101 26.2933 292.715 25.68 294.848 25.68C296.981 25.68 298.595 26.2933 299.688 27.52C300.781 28.72 301.328 30.4533 301.328 32.72V33.6H297.168V32.44C297.168 30.6 296.435 29.68 294.968 29.68C293.501 29.68 292.768 30.6 292.768 32.44C292.768 33.2133 292.928 33.9467 293.248 34.64C293.568 35.3333 293.981 35.96 294.488 36.52C294.995 37.08 295.555 37.64 296.168 38.2C296.781 38.7333 297.381 39.3067 297.968 39.92C298.581 40.5067 299.141 41.1467 299.648 41.84C300.155 42.5067 300.568 43.3067 300.888 44.24C301.208 45.1733 301.368 46.1867 301.368 47.28C301.368 49.5467 300.808 51.2933 299.688 52.52C298.568 53.72 296.941 54.32 294.808 54.32C292.675 54.32 291.048 53.72 289.928 52.52C288.808 51.2933 288.248 49.5467 288.248 47.28V45.56H292.408V47.56C292.408 49.3733 293.168 50.28 294.688 50.28C296.208 50.28 296.968 49.3733 296.968 47.56C296.968 46.52 296.675 45.5467 296.088 44.64C295.501 43.7067 294.781 42.8667 293.928 42.12C293.101 41.3733 292.261 40.6 291.408 39.8C290.555 38.9733 289.835 37.96 289.248 36.76C288.661 35.5333 288.368 34.1867 288.368 32.72Z" fill="#D136F6"/>
<defs>
<linearGradient id="paint0_linear_1_13150" x1="333.231" y1="40" x2="8.76916" y2="40" gradientUnits="userSpaceOnUse">
<stop stop-color="#D136F6"/>
<stop offset="1" stop-color="#6C5DD3"/>
</linearGradient>
</defs>
</svg>
