<svg width="24" height="24" viewBox="0 0 24 24" fill="none" xmlns="http://www.w3.org/2000/svg">
<path d="M11.3317 5.07813C12.4967 5.07808 13.6385 5.40364 14.6283 6.01806C15.6181 6.63248 16.4164 7.51132 16.9332 8.55538C17.4501 9.59944 17.6648 10.7672 17.5532 11.9268C17.4416 13.0864 17.0081 14.1918 16.3017 15.1181L20.2542 19.0723C20.4037 19.2223 20.4904 19.4235 20.4969 19.6351C20.5034 19.8467 20.429 20.0529 20.289 20.2117C20.149 20.3705 19.9537 20.47 19.743 20.4901C19.5322 20.5102 19.3217 20.4493 19.1542 20.3198L19.0759 20.2506L15.1217 16.2981C14.3325 16.8999 13.4114 17.305 12.4346 17.4801C11.4577 17.6552 10.4532 17.5951 9.5042 17.3049C8.55518 17.0146 7.68891 16.5026 6.97708 15.8111C6.26525 15.1196 5.72832 14.2685 5.41073 13.3283C5.09313 12.3881 5.00399 11.3857 5.1507 10.4042C5.2974 9.42271 5.67572 8.49024 6.25436 7.68398C6.833 6.87772 7.59532 6.22084 8.47824 5.7677C9.36116 5.31455 10.3393 5.07818 11.3317 5.07813ZM11.3317 6.74479C10.1161 6.74479 8.95034 7.22768 8.0908 8.08722C7.23125 8.94676 6.74837 10.1125 6.74837 11.3281C6.74837 12.5437 7.23125 13.7095 8.0908 14.569C8.95034 15.4286 10.1161 15.9115 11.3317 15.9115C12.5473 15.9115 13.7131 15.4286 14.5726 14.569C15.4322 13.7095 15.915 12.5437 15.915 11.3281C15.915 10.1125 15.4322 8.94676 14.5726 8.08722C13.7131 7.22768 12.5473 6.74479 11.3317 6.74479Z" fill="white"/>
</svg>
