<svg width="280" height="80" viewBox="0 0 280 80" fill="none" xmlns="http://www.w3.org/2000/svg">
<path d="M25.4545 9H280L254.545 70H0L25.4545 9Z" fill="#15131D"/>
<path d="M153.3 1H20.3L7 40M273 40L259.7 79H126.7" stroke="url(#paint0_linear_1_13708)"/>
<path d="M55.24 26C57.5067 26 59.16 26.5333 60.2 27.6C61.24 28.64 61.76 30.2533 61.76 32.44V33.44C61.76 36.32 60.8133 38.2 58.92 39.08C61.1067 39.9333 62.2 41.9333 62.2 45.08V47.36C62.2 49.52 61.6267 51.1733 60.48 52.32C59.36 53.44 57.7067 54 55.52 54H48.6V26H55.24ZM54.96 41.4H53V50H55.52C56.2933 50 56.8667 49.8 57.24 49.4C57.6133 48.9733 57.8 48.2533 57.8 47.24V44.8C57.8 43.52 57.5733 42.64 57.12 42.16C56.6933 41.6533 55.9733 41.4 54.96 41.4ZM55.12 30H53V37.4H54.72C55.6 37.4 56.2533 37.1733 56.68 36.72C57.1333 36.2667 57.36 35.5067 57.36 34.44V32.88C57.36 30.96 56.6133 30 55.12 30ZM69.75 30V37.8H75.79V41.8H69.75V50H77.35V54H65.35V26H77.35V30H69.75ZM80.0166 32.72C80.0166 30.4533 80.5632 28.72 81.6566 27.52C82.7499 26.2933 84.3632 25.68 86.4966 25.68C88.6299 25.68 90.2432 26.2933 91.3366 27.52C92.4299 28.72 92.9766 30.4533 92.9766 32.72V33.6H88.8166V32.44C88.8166 30.6 88.0832 29.68 86.6166 29.68C85.1499 29.68 84.4166 30.6 84.4166 32.44C84.4166 33.2133 84.5766 33.9467 84.8966 34.64C85.2166 35.3333 85.6299 35.96 86.1366 36.52C86.6432 37.08 87.2032 37.64 87.8166 38.2C88.4299 38.7333 89.0299 39.3067 89.6166 39.92C90.2299 40.5067 90.7899 41.1467 91.2966 41.84C91.8032 42.5067 92.2166 43.3067 92.5366 44.24C92.8566 45.1733 93.0166 46.1867 93.0166 47.28C93.0166 49.5467 92.4566 51.2933 91.3366 52.52C90.2166 53.72 88.5899 54.32 86.4566 54.32C84.3232 54.32 82.6966 53.72 81.5766 52.52C80.4566 51.2933 79.8966 49.5467 79.8966 47.28V45.56H84.0566V47.56C84.0566 49.3733 84.8166 50.28 86.3366 50.28C87.8566 50.28 88.6166 49.3733 88.6166 47.56C88.6166 46.52 88.3232 45.5467 87.7366 44.64C87.1499 43.7067 86.4299 42.8667 85.5766 42.12C84.7499 41.3733 83.9099 40.6 83.0566 39.8C82.2032 38.9733 81.4832 37.96 80.8966 36.76C80.3099 35.5333 80.0166 34.1867 80.0166 32.72ZM94.7575 30V26H108.358V30H103.758V54H99.3575V30H94.7575Z" fill="white"/>
<path d="M123.986 26C128.36 26 130.546 28.3067 130.546 32.92V36.56C130.546 41.1733 128.36 43.48 123.986 43.48H121.906V54H117.506V26H123.986ZM123.986 30H121.906V39.48H123.986C124.706 39.48 125.24 39.28 125.586 38.88C125.96 38.48 126.146 37.8 126.146 36.84V32.64C126.146 31.68 125.96 31 125.586 30.6C125.24 30.2 124.706 30 123.986 30ZM133.28 54V26H137.68V50H144.92V54H133.28ZM157.094 26L161.574 54H157.134L156.374 48.92H150.974L150.214 54H146.174L150.654 26H157.094ZM153.654 30.96L151.534 45.12H155.774L153.654 30.96ZM168.243 54V44.72L162.683 26H167.283L170.643 38.76L174.003 26H178.203L172.643 44.72V54H168.243ZM184.883 30V37.8H190.923V41.8H184.883V50H192.483V54H180.483V26H192.483V30H184.883ZM209.389 54H204.909C204.643 53.2 204.509 52.0533 204.509 50.56V46.16C204.509 44.88 204.283 43.9733 203.829 43.44C203.376 42.88 202.643 42.6 201.629 42.6H200.109V54H195.709V26H202.349C204.616 26 206.269 26.5333 207.309 27.6C208.349 28.64 208.869 30.2533 208.869 32.44V34.64C208.869 37.52 207.909 39.4133 205.989 40.32C207.936 41.1467 208.909 43.1333 208.909 46.28V50.6C208.909 52.12 209.069 53.2533 209.389 54ZM202.229 30H200.109V38.6H201.829C202.709 38.6 203.363 38.3733 203.789 37.92C204.243 37.4667 204.469 36.7067 204.469 35.64V32.88C204.469 30.96 203.723 30 202.229 30ZM211.743 32.72C211.743 30.4533 212.29 28.72 213.383 27.52C214.476 26.2933 216.09 25.68 218.223 25.68C220.356 25.68 221.97 26.2933 223.063 27.52C224.156 28.72 224.703 30.4533 224.703 32.72V33.6H220.543V32.44C220.543 30.6 219.81 29.68 218.343 29.68C216.876 29.68 216.143 30.6 216.143 32.44C216.143 33.2133 216.303 33.9467 216.623 34.64C216.943 35.3333 217.356 35.96 217.863 36.52C218.37 37.08 218.93 37.64 219.543 38.2C220.156 38.7333 220.756 39.3067 221.343 39.92C221.956 40.5067 222.516 41.1467 223.023 41.84C223.53 42.5067 223.943 43.3067 224.263 44.24C224.583 45.1733 224.743 46.1867 224.743 47.28C224.743 49.5467 224.183 51.2933 223.063 52.52C221.943 53.72 220.316 54.32 218.183 54.32C216.05 54.32 214.423 53.72 213.303 52.52C212.183 51.2933 211.623 49.5467 211.623 47.28V45.56H215.783V47.56C215.783 49.3733 216.543 50.28 218.063 50.28C219.583 50.28 220.343 49.3733 220.343 47.56C220.343 46.52 220.05 45.5467 219.463 44.64C218.876 43.7067 218.156 42.8667 217.303 42.12C216.476 41.3733 215.636 40.6 214.783 39.8C213.93 38.9733 213.21 37.96 212.623 36.76C212.036 35.5333 211.743 34.1867 211.743 32.72Z" fill="#D136F6"/>
<defs>
<linearGradient id="paint0_linear_1_13708" x1="7" y1="39" x2="273" y2="39" gradientUnits="userSpaceOnUse">
<stop stop-color="#D136F6"/>
<stop offset="1" stop-color="#6C5DD3"/>
</linearGradient>
</defs>
</svg>
