<svg width="325" height="80" viewBox="0 0 325 80" fill="none" xmlns="http://www.w3.org/2000/svg">
<path d="M29.5455 9H325L295.455 70H0L29.5455 9Z" fill="#15131D"/>
<path d="M177.95 1H23.45L8 40M317 40L301.55 79H147.05" stroke="url(#paint0_linear_1_13660)"/>
<path d="M56.08 26C60.4533 26 62.64 28.3067 62.64 32.92V36.56C62.64 41.1733 60.4533 43.48 56.08 43.48H54V54H49.6V26H56.08ZM56.08 30H54V39.48H56.08C56.8 39.48 57.3333 39.28 57.68 38.88C58.0533 38.48 58.24 37.8 58.24 36.84V32.64C58.24 31.68 58.0533 31 57.68 30.6C57.3333 30.2 56.8 30 56.08 30ZM69.4134 32.44V47.56C69.4134 49.4 70.1734 50.32 71.6934 50.32C73.2134 50.32 73.9734 49.4 73.9734 47.56V32.44C73.9734 30.6 73.2134 29.68 71.6934 29.68C70.1734 29.68 69.4134 30.6 69.4134 32.44ZM65.0134 47.28V32.72C65.0134 30.48 65.5868 28.7467 66.7334 27.52C67.8801 26.2933 69.5334 25.68 71.6934 25.68C73.8534 25.68 75.5068 26.2933 76.6534 27.52C77.8001 28.7467 78.3734 30.48 78.3734 32.72V47.28C78.3734 49.52 77.8001 51.2533 76.6534 52.48C75.5068 53.7067 73.8534 54.32 71.6934 54.32C69.5334 54.32 67.8801 53.7067 66.7334 52.48C65.5868 51.2533 65.0134 49.52 65.0134 47.28ZM88.2128 26C92.5861 26 94.7728 28.3067 94.7728 32.92V36.56C94.7728 41.1733 92.5861 43.48 88.2128 43.48H86.1328V54H81.7328V26H88.2128ZM88.2128 30H86.1328V39.48H88.2128C88.9328 39.48 89.4661 39.28 89.8128 38.88C90.1861 38.48 90.3728 37.8 90.3728 36.84V32.64C90.3728 31.68 90.1861 31 89.8128 30.6C89.4661 30.2 88.9328 30 88.2128 30ZM97.1109 26H101.511V47.6C101.511 49.4133 102.271 50.32 103.791 50.32C105.311 50.32 106.071 49.4133 106.071 47.6V26H110.231V47.32C110.231 49.5867 109.671 51.3333 108.551 52.56C107.431 53.76 105.804 54.36 103.671 54.36C101.538 54.36 99.9109 53.76 98.7909 52.56C97.6709 51.3333 97.1109 49.5867 97.1109 47.32V26ZM113.748 54V26H118.148V50H125.388V54H113.748ZM137.563 26L142.043 54H137.603L136.843 48.92H131.443L130.683 54H126.643L131.123 26H137.563ZM134.123 30.96L132.003 45.12H136.243L134.123 30.96ZM158.272 54H153.792C153.526 53.2 153.392 52.0533 153.392 50.56V46.16C153.392 44.88 153.166 43.9733 152.712 43.44C152.259 42.88 151.526 42.6 150.512 42.6H148.992V54H144.592V26H151.232C153.499 26 155.152 26.5333 156.192 27.6C157.232 28.64 157.752 30.2533 157.752 32.44V34.64C157.752 37.52 156.792 39.4133 154.872 40.32C156.819 41.1467 157.792 43.1333 157.792 46.28V50.6C157.792 52.12 157.952 53.2533 158.272 54ZM151.112 30H148.992V38.6H150.712C151.592 38.6 152.246 38.3733 152.672 37.92C153.126 37.4667 153.352 36.7067 153.352 35.64V32.88C153.352 30.96 152.606 30 151.112 30Z" fill="white"/>
<path d="M174.377 26C178.75 26 180.937 28.3067 180.937 32.92V36.56C180.937 41.1733 178.75 43.48 174.377 43.48H172.297V54H167.897V26H174.377ZM174.377 30H172.297V39.48H174.377C175.097 39.48 175.63 39.28 175.977 38.88C176.35 38.48 176.537 37.8 176.537 36.84V32.64C176.537 31.68 176.35 31 175.977 30.6C175.63 30.2 175.097 30 174.377 30ZM183.67 54V26H188.07V50H195.31V54H183.67ZM207.485 26L211.965 54H207.525L206.765 48.92H201.365L200.605 54H196.565L201.045 26H207.485ZM204.045 30.96L201.925 45.12H206.165L204.045 30.96ZM218.634 54V44.72L213.074 26H217.674L221.034 38.76L224.394 26H228.594L223.034 44.72V54H218.634ZM235.273 30V37.8H241.313V41.8H235.273V50H242.873V54H230.873V26H242.873V30H235.273ZM259.78 54H255.3C255.033 53.2 254.9 52.0533 254.9 50.56V46.16C254.9 44.88 254.673 43.9733 254.22 43.44C253.767 42.88 253.033 42.6 252.02 42.6H250.5V54H246.1V26H252.74C255.007 26 256.66 26.5333 257.7 27.6C258.74 28.64 259.26 30.2533 259.26 32.44V34.64C259.26 37.52 258.3 39.4133 256.38 40.32C258.327 41.1467 259.3 43.1333 259.3 46.28V50.6C259.3 52.12 259.46 53.2533 259.78 54ZM252.62 30H250.5V38.6H252.22C253.1 38.6 253.753 38.3733 254.18 37.92C254.633 37.4667 254.86 36.7067 254.86 35.64V32.88C254.86 30.96 254.113 30 252.62 30ZM262.134 32.72C262.134 30.4533 262.68 28.72 263.774 27.52C264.867 26.2933 266.48 25.68 268.614 25.68C270.747 25.68 272.36 26.2933 273.454 27.52C274.547 28.72 275.094 30.4533 275.094 32.72V33.6H270.934V32.44C270.934 30.6 270.2 29.68 268.734 29.68C267.267 29.68 266.534 30.6 266.534 32.44C266.534 33.2133 266.694 33.9467 267.014 34.64C267.334 35.3333 267.747 35.96 268.254 36.52C268.76 37.08 269.32 37.64 269.934 38.2C270.547 38.7333 271.147 39.3067 271.734 39.92C272.347 40.5067 272.907 41.1467 273.414 41.84C273.92 42.5067 274.334 43.3067 274.654 44.24C274.974 45.1733 275.134 46.1867 275.134 47.28C275.134 49.5467 274.574 51.2933 273.454 52.52C272.334 53.72 270.707 54.32 268.574 54.32C266.44 54.32 264.814 53.72 263.694 52.52C262.574 51.2933 262.014 49.5467 262.014 47.28V45.56H266.174V47.56C266.174 49.3733 266.934 50.28 268.454 50.28C269.974 50.28 270.734 49.3733 270.734 47.56C270.734 46.52 270.44 45.5467 269.854 44.64C269.267 43.7067 268.547 42.8667 267.694 42.12C266.867 41.3733 266.027 40.6 265.174 39.8C264.32 38.9733 263.6 37.96 263.014 36.76C262.427 35.5333 262.134 34.1867 262.134 32.72Z" fill="#D136F6"/>
<defs>
<linearGradient id="paint0_linear_1_13660" x1="8" y1="39" x2="317" y2="39" gradientUnits="userSpaceOnUse">
<stop stop-color="#D136F6"/>
<stop offset="1" stop-color="#6C5DD3"/>
</linearGradient>
</defs>
</svg>
