<svg width="420" height="80" viewBox="0 0 420 80" fill="none" xmlns="http://www.w3.org/2000/svg">
<path d="M38.1818 9.5H420L381.818 70.5H0L38.1818 9.5Z" fill="#15131D"/>
<path d="M229.963 0.949219H30.3269L10.3633 39.9992M409.636 39.9992L389.672 79.0492H190.036" stroke="url(#paint0_linear_3_49015)"/>
<path d="M70.86 26L75.34 54H70.9L70.14 48.92H64.74L63.98 54H59.94L64.42 26H70.86ZM67.42 30.96L65.3 45.12H69.54L67.42 30.96ZM84.0291 26C86.2957 26 87.9491 26.5333 88.9891 27.6C90.0291 28.64 90.5491 30.2533 90.5491 32.44V33.44C90.5491 36.32 89.6024 38.2 87.7091 39.08C89.8957 39.9333 90.9891 41.9333 90.9891 45.08V47.36C90.9891 49.52 90.4157 51.1733 89.2691 52.32C88.1491 53.44 86.4957 54 84.3091 54H77.3891V26H84.0291ZM83.7491 41.4H81.7891V50H84.3091C85.0824 50 85.6557 49.8 86.0291 49.4C86.4024 48.9733 86.5891 48.2533 86.5891 47.24V44.8C86.5891 43.52 86.3624 42.64 85.9091 42.16C85.4824 41.6533 84.7624 41.4 83.7491 41.4ZM83.9091 30H81.7891V37.4H83.5091C84.3891 37.4 85.0424 37.1733 85.4691 36.72C85.9224 36.2667 86.1491 35.5067 86.1491 34.44V32.88C86.1491 30.96 85.4024 30 83.9091 30ZM97.6791 32.44V47.56C97.6791 49.4 98.4391 50.32 99.9591 50.32C101.479 50.32 102.239 49.4 102.239 47.56V32.44C102.239 30.6 101.479 29.68 99.9591 29.68C98.4391 29.68 97.6791 30.6 97.6791 32.44ZM93.2791 47.28V32.72C93.2791 30.48 93.8524 28.7467 94.9991 27.52C96.1457 26.2933 97.7991 25.68 99.9591 25.68C102.119 25.68 103.772 26.2933 104.919 27.52C106.066 28.7467 106.639 30.48 106.639 32.72V47.28C106.639 49.52 106.066 51.2533 104.919 52.48C103.772 53.7067 102.119 54.32 99.9591 54.32C97.7991 54.32 96.1457 53.7067 94.9991 52.48C93.8524 51.2533 93.2791 49.52 93.2791 47.28ZM109.298 26H113.698V47.6C113.698 49.4133 114.458 50.32 115.978 50.32C117.498 50.32 118.258 49.4133 118.258 47.6V26H122.418V47.32C122.418 49.5867 121.858 51.3333 120.738 52.56C119.618 53.76 117.992 54.36 115.858 54.36C113.725 54.36 112.098 53.76 110.978 52.56C109.858 51.3333 109.298 49.5867 109.298 47.32V26ZM124.156 30V26H137.756V30H133.156V54H128.756V30H124.156ZM144.625 30V26H158.225V30H153.625V54H149.225V30H144.625ZM164.563 42V54H160.163V26H164.563V38H169.563V26H174.043V54H169.563V42H164.563ZM181.633 30V37.8H187.673V41.8H181.633V50H189.233V54H177.233V26H189.233V30H181.633ZM196.89 30V26H210.49V30H205.89V54H201.49V30H196.89ZM216.468 32.44V47.56C216.468 49.4 217.228 50.32 218.748 50.32C220.268 50.32 221.028 49.4 221.028 47.56V32.44C221.028 30.6 220.268 29.68 218.748 29.68C217.228 29.68 216.468 30.6 216.468 32.44ZM212.068 47.28V32.72C212.068 30.48 212.641 28.7467 213.788 27.52C214.935 26.2933 216.588 25.68 218.748 25.68C220.908 25.68 222.561 26.2933 223.708 27.52C224.855 28.7467 225.428 30.48 225.428 32.72V47.28C225.428 49.52 224.855 51.2533 223.708 52.48C222.561 53.7067 220.908 54.32 218.748 54.32C216.588 54.32 214.935 53.7067 213.788 52.48C212.641 51.2533 212.068 49.52 212.068 47.28ZM228.088 26H232.488V47.6C232.488 49.4133 233.248 50.32 234.768 50.32C236.288 50.32 237.048 49.4133 237.048 47.6V26H241.208V47.32C241.208 49.5867 240.648 51.3333 239.528 52.56C238.408 53.76 236.781 54.36 234.648 54.36C232.514 54.36 230.888 53.76 229.768 52.56C228.648 51.3333 228.088 49.5867 228.088 47.32V26ZM257.905 54H253.425C253.158 53.2 253.025 52.0533 253.025 50.56V46.16C253.025 44.88 252.798 43.9733 252.345 43.44C251.892 42.88 251.158 42.6 250.145 42.6H248.625V54H244.225V26H250.865C253.132 26 254.785 26.5333 255.825 27.6C256.865 28.64 257.385 30.2533 257.385 32.44V34.64C257.385 37.52 256.425 39.4133 254.505 40.32C256.452 41.1467 257.425 43.1333 257.425 46.28V50.6C257.425 52.12 257.585 53.2533 257.905 54ZM250.745 30H248.625V38.6H250.345C251.225 38.6 251.878 38.3733 252.305 37.92C252.758 37.4667 252.985 36.7067 252.985 35.64V32.88C252.985 30.96 252.238 30 250.745 30ZM269.719 54L264.239 33.72V54H260.279V26H265.799L270.319 42.76V26H274.239V54H269.719ZM287.149 26L291.629 54H287.189L286.429 48.92H281.029L280.269 54H276.229L280.709 26H287.149ZM283.709 30.96L281.589 45.12H285.829L283.709 30.96ZM299.758 26L302.998 45.88L305.998 26H312.118V54H307.958V33.92L304.918 54H300.758L297.478 34.2V54H293.638V26H299.758ZM319.719 30V37.8H325.759V41.8H319.719V50H327.319V54H315.319V26H327.319V30H319.719ZM339.445 54L333.965 33.72V54H330.005V26H335.525L340.045 42.76V26H343.965V54H339.445ZM345.836 30V26H359.436V30H354.836V54H350.436V30H345.836Z" fill="white"/>
<defs>
<linearGradient id="paint0_linear_3_49015" x1="10.3633" y1="38.998" x2="409.636" y2="38.998" gradientUnits="userSpaceOnUse">
<stop stop-color="#D136F6"/>
<stop offset="1" stop-color="#6C5DD3"/>
</linearGradient>
</defs>
</svg>
