<svg width="32" height="32" viewBox="0 0 32 32" fill="none" xmlns="http://www.w3.org/2000/svg">
<rect width="32" height="32" rx="16" fill="#6C5DD3" fill-opacity="0.08"/>
<path d="M16.0006 21.8334C15.6339 21.8334 15.32 21.7029 15.0589 21.4417C14.7978 21.1806 14.6672 20.8667 14.6672 20.5001C14.6672 20.1334 14.7978 19.8195 15.0589 19.5584C15.32 19.2973 15.6339 19.1667 16.0006 19.1667C16.3672 19.1667 16.6811 19.2973 16.9422 19.5584C17.2033 19.8195 17.3339 20.1334 17.3339 20.5001C17.3339 20.8667 17.2033 21.1806 16.9422 21.4417C16.6811 21.7029 16.3672 21.8334 16.0006 21.8334ZM16.0006 17.8334C15.6339 17.8334 15.32 17.7029 15.0589 17.4417C14.7978 17.1806 14.6672 16.8667 14.6672 16.5001C14.6672 16.1334 14.7978 15.8195 15.0589 15.5584C15.32 15.2973 15.6339 15.1667 16.0006 15.1667C16.3672 15.1667 16.6811 15.2973 16.9422 15.5584C17.2033 15.8195 17.3339 16.1334 17.3339 16.5001C17.3339 16.8667 17.2033 17.1806 16.9422 17.4417C16.6811 17.7029 16.3672 17.8334 16.0006 17.8334ZM16.0006 13.8334C15.6339 13.8334 15.32 13.7029 15.0589 13.4417C14.7978 13.1806 14.6672 12.8667 14.6672 12.5001C14.6672 12.1334 14.7978 11.8195 15.0589 11.5584C15.32 11.2973 15.6339 11.1667 16.0006 11.1667C16.3672 11.1667 16.6811 11.2973 16.9422 11.5584C17.2033 11.8195 17.3339 12.1334 17.3339 12.5001C17.3339 12.8667 17.2033 13.1806 16.9422 13.4417C16.6811 13.7029 16.3672 13.8334 16.0006 13.8334Z" fill="white"/>
</svg>
