<svg width="40" height="40" viewBox="0 0 40 40" fill="none" xmlns="http://www.w3.org/2000/svg">
<rect width="40" height="40" rx="20" fill="#0E0C15"/>
<path d="M22.4757 15.8749L17.1132 21.2374C16.9507 21.3999 16.8218 21.5928 16.7338 21.8051C16.6459 22.0175 16.6006 22.2451 16.6006 22.4749C16.6006 22.7047 16.6459 22.9323 16.7338 23.1446C16.8218 23.3569 16.9507 23.5499 17.1132 23.7124C17.2757 23.8749 17.4686 24.0038 17.681 24.0918C17.8933 24.1797 18.1209 24.225 18.3507 24.225C18.5805 24.225 18.8081 24.1797 19.0204 24.0918C19.2328 24.0038 19.4257 23.8749 19.5882 23.7124L24.9507 18.3499C25.5931 17.6906 25.9499 16.8048 25.9439 15.8843C25.9379 14.9638 25.5696 14.0828 24.9187 13.4319C24.2678 12.781 23.3867 12.4127 22.4663 12.4067C21.5458 12.4007 20.66 12.7575 20.0007 13.3999L14.6382 18.7624C14.1479 19.2493 13.7585 19.8282 13.4923 20.4659C13.2262 21.1037 13.0886 21.7877 13.0874 22.4787C13.0862 23.1697 13.2214 23.8542 13.4853 24.4928C13.7492 25.1315 14.1366 25.7118 14.6252 26.2004C15.1138 26.689 15.6941 27.0764 16.3327 27.3403C16.9714 27.6042 17.6559 27.7394 18.3469 27.7382C19.0379 27.737 19.7219 27.5993 20.3596 27.3332C20.9974 27.0671 21.5763 26.6777 22.0632 26.1874L27.4257 20.8249" stroke="url(#paint0_linear_1_3249)" stroke-width="1.36125" stroke-linecap="round" stroke-linejoin="round"/>
<defs>
<linearGradient id="paint0_linear_1_3249" x1="13.0874" y1="19.8758" x2="27.4257" y2="19.8758" gradientUnits="userSpaceOnUse">
<stop stop-color="#D136F6"/>
<stop offset="1" stop-color="#6C5DD3"/>
</linearGradient>
</defs>
</svg>
