<svg width="40" height="40" viewBox="0 0 40 40" fill="none" xmlns="http://www.w3.org/2000/svg">
<path d="M19.3334 13.0833C20.4984 13.0832 21.6402 13.4088 22.63 14.0232C23.6198 14.6376 24.4181 15.5164 24.9349 16.5605C25.4518 17.6046 25.6665 18.7723 25.5549 19.9319C25.4433 21.0916 25.0099 22.1969 24.3034 23.1233L28.2559 27.0774C28.4054 27.2274 28.4921 27.4286 28.4986 27.6402C28.5051 27.8519 28.4307 28.058 28.2907 28.2168C28.1507 28.3756 27.9555 28.4752 27.7447 28.4953C27.5339 28.5153 27.3234 28.4544 27.1559 28.3249L27.0776 28.2558L23.1234 24.3033C22.3342 24.905 21.4131 25.3102 20.4363 25.4852C19.4594 25.6603 18.4549 25.6002 17.5059 25.31C16.5569 25.0198 15.6906 24.5077 14.9788 23.8162C14.267 23.1247 13.73 22.2736 13.4124 21.3334C13.0948 20.3932 13.0057 19.3909 13.1524 18.4093C13.2991 17.4278 13.6774 16.4954 14.2561 15.6891C14.8347 14.8828 15.597 14.226 16.4799 13.7728C17.3629 13.3197 18.341 13.0833 19.3334 13.0833ZM19.3334 14.7499C18.1178 14.7499 16.952 15.2328 16.0925 16.0923C15.233 16.9519 14.7501 18.1177 14.7501 19.3333C14.7501 20.5488 15.233 21.7146 16.0925 22.5742C16.952 23.4337 18.1178 23.9166 19.3334 23.9166C20.549 23.9166 21.7148 23.4337 22.5743 22.5742C23.4339 21.7146 23.9167 20.5488 23.9167 19.3333C23.9167 18.1177 23.4339 16.9519 22.5743 16.0923C21.7148 15.2328 20.549 14.7499 19.3334 14.7499Z" fill="white"/>
<rect x="0.5" y="0.5" width="39" height="39" rx="19.5" stroke="url(#paint0_linear_1_3309)" stroke-opacity="0.08"/>
<defs>
<linearGradient id="paint0_linear_1_3309" x1="1.59445e-07" y1="19.4872" x2="40" y2="19.4872" gradientUnits="userSpaceOnUse">
<stop stop-color="#D136F6"/>
<stop offset="1" stop-color="#6C5DD3"/>
</linearGradient>
</defs>
</svg>
