<svg width="40" height="40" viewBox="0 0 40 40" fill="none" xmlns="http://www.w3.org/2000/svg">
<circle cx="20" cy="20" r="20" fill="url(#paint0_linear_1_3261)"/>
<path d="M27.3194 12.6814C27.235 12.5975 27.1284 12.5393 27.0122 12.5139C26.8959 12.4884 26.7748 12.4967 26.6631 12.5377L12.9131 17.5377C12.7945 17.5826 12.6924 17.6626 12.6204 17.767C12.5483 17.8714 12.5098 17.9952 12.5098 18.122C12.5098 18.2489 12.5483 18.3727 12.6204 18.4771C12.6924 18.5814 12.7945 18.6614 12.9131 18.7064L18.2819 20.8502L22.2444 16.8752L23.1256 17.7564L19.1444 21.7377L21.2944 27.1064C21.3407 27.2227 21.4208 27.3224 21.5245 27.3926C21.6281 27.4628 21.7504 27.5003 21.8756 27.5002C22.0019 27.4976 22.1245 27.4568 22.2271 27.3831C22.3298 27.3095 22.4077 27.2065 22.4506 27.0877L27.4506 13.3377C27.4932 13.2271 27.5035 13.1067 27.4802 12.9905C27.457 12.8743 27.4012 12.7671 27.3194 12.6814Z" fill="white"/>
<defs>
<linearGradient id="paint0_linear_1_3261" x1="1.59445e-07" y1="19.4872" x2="40" y2="19.4872" gradientUnits="userSpaceOnUse">
<stop stop-color="#D136F6"/>
<stop offset="1" stop-color="#6C5DD3"/>
</linearGradient>
</defs>
</svg>
