<svg width="14" height="9" viewBox="0 0 14 9" fill="none" xmlns="http://www.w3.org/2000/svg">
<path d="M6.33395 8.49821C6.17529 8.49821 5.98462 8.42688 5.85928 8.29954L3.19262 5.59156C2.93395 5.32889 2.93729 4.90689 3.19995 4.64889C3.46195 4.39089 3.88395 4.39355 4.14262 4.65621L6.33795 6.88554L12.53 0.694218C12.7906 0.433552 13.2119 0.433552 13.4726 0.694218C13.7333 0.954218 13.7333 1.37689 13.4726 1.63689L6.80595 8.30355C6.68062 8.42822 6.51062 8.49821 6.33395 8.49821ZM6.80529 5.63621L10.8053 1.63621C11.066 1.37621 11.066 0.953547 10.8053 0.693547C10.5446 0.43288 10.1233 0.43288 9.86262 0.693547L5.86262 4.69355C5.60195 4.95355 5.60195 5.37621 5.86262 5.63621C5.99262 5.76621 6.16329 5.83155 6.33395 5.83155C6.50462 5.83155 6.67529 5.76621 6.80529 5.63621ZM4.13529 8.30622C4.39795 8.04755 4.40062 7.62555 4.14262 7.36355L1.47595 4.65688C1.21729 4.39488 0.795286 4.39155 0.533286 4.65021C0.270619 4.90888 0.267951 5.33088 0.525951 5.59288L3.19262 8.29954C3.32262 8.43154 3.49529 8.49821 3.66729 8.49821C3.83595 8.49821 4.00529 8.43422 4.13529 8.30622Z" fill="white" fill-opacity="0.48"/>
</svg>
