<svg width="24" height="24" viewBox="0 0 24 24" fill="none" xmlns="http://www.w3.org/2000/svg">
<g clip-path="url(#clip0_1_3554)">
<path d="M12 22C17.5228 22 22 17.5228 22 12C22 6.47715 17.5228 2 12 2C6.47715 2 2 6.47715 2 12C2 17.5228 6.47715 22 12 22Z" fill="#D80027"/>
<path d="M7.47278 8.08447L8.33606 10.7407H11.129L8.87122 12.3853L9.7345 15.0415L7.47278 13.4009L5.21106 15.0415L6.07825 12.3853L3.81653 10.7407H6.6095L7.47278 8.08447Z" fill="#FFDA44"/>
<path d="M13.8552 17.4872L13.195 16.6747L12.2184 17.0536L12.7849 16.1747L12.1247 15.3583L13.1364 15.6278L13.7067 14.7489L13.7614 15.7958L14.777 16.0653L13.7966 16.4403L13.8552 17.4872Z" fill="#FFDA44"/>
<path d="M15.1682 15.1044L15.4807 14.1044L14.6252 13.4989L15.6721 13.4833L15.9806 12.4833L16.3205 13.4755L17.3674 13.4637L16.5275 14.0887L16.8635 15.0809L16.008 14.4755L15.1682 15.1044Z" fill="#FFDA44"/>
<path d="M16.9379 9.33887L16.4769 10.2803L17.2269 11.0107L16.1918 10.8623L15.7308 11.7998L15.5511 10.7686L14.5121 10.6201L15.4418 10.1318L15.2621 9.09668L16.0121 9.82715L16.9379 9.33887Z" fill="#FFDA44"/>
<path d="M13.8826 6.48755L13.8045 7.53052L14.7772 7.92505L13.7576 8.17505L13.6834 9.22193L13.1326 8.3313L12.1131 8.5813L12.7889 7.78052L12.2342 6.8938L13.2068 7.28833L13.8826 6.48755Z" fill="#FFDA44"/>
</g>
<defs>
<clipPath id="clip0_1_3554">
<rect width="20" height="20" fill="white" transform="translate(2 2)"/>
</clipPath>
</defs>
</svg>
