<svg width="254" height="72" viewBox="0 0 254 72" fill="none" xmlns="http://www.w3.org/2000/svg">
<path d="M84.4566 72H113.621L41.3753 0H12.2109L84.4566 72Z" fill="#6C5DD3"/>
<path d="M56.3594 3.68361e-06L126.003 69.4066V0H107.156V21.913L85.1682 0L56.3594 3.68361e-06Z" fill="#E56F8C"/>
<path d="M0 2.4104V71.9997H18.8467V50.0866L40.8343 71.9997H69.8269L0 2.4104Z" fill="#64C2DB"/>
<path d="M173.848 2.3H175.348V0.799995H173.848V2.3ZM173.848 11.516L175.297 11.9046L175.348 11.7137V11.516H173.848ZM158.296 69.5V71H159.447L159.745 69.8886L158.296 69.5ZM147.736 69.5L146.287 69.1113L145.78 71H147.736V69.5ZM163.192 11.9L164.641 12.2887L165.148 10.4H163.192V11.9ZM142.168 11.9H140.668V13.4H142.168V11.9ZM142.168 2.3V0.799995H140.668V2.3H142.168ZM172.348 2.3V11.516H175.348V2.3H172.348ZM172.399 11.1274L156.847 69.1114L159.745 69.8886L175.297 11.9046L172.399 11.1274ZM158.296 68H147.736V71H158.296V68ZM149.185 69.8887L164.641 12.2887L161.743 11.5112L146.287 69.1113L149.185 69.8887ZM163.192 10.4H142.168V13.4H163.192V10.4ZM143.668 11.9V2.3H140.668V11.9H143.668ZM142.168 3.8H173.848V0.799995H142.168V3.8ZM190.407 47.804H191.907V46.304H190.407V47.804ZM191.847 59.132L190.786 60.1927L190.803 60.2098L190.821 60.2263L191.847 59.132ZM199.815 59.132L198.789 58.0377L198.771 58.0542L198.754 58.0713L199.815 59.132ZM199.815 34.172L198.72 35.1979L198.753 35.2332L198.789 35.2663L199.815 34.172ZM191.847 34.172L190.786 33.1113L190.786 33.1113L191.847 34.172ZM190.407 41.276V42.776H191.907V41.276H190.407ZM180.423 41.276L178.924 41.2022L178.847 42.776H180.423V41.276ZM182.343 2.3V0.799995H180.915L180.844 2.22619L182.343 2.3ZM210.183 2.3H211.683V0.799995H210.183V2.3ZM210.183 11.9V13.4H211.683V11.9H210.183ZM191.847 11.9V10.4H190.425L190.349 11.8193L191.847 11.9ZM190.983 27.932L189.485 27.8513L192.264 28.7111L190.983 27.932ZM208.935 26.972L207.724 27.8578L207.731 27.8673L207.738 27.8767L208.935 26.972ZM207.879 65.948L206.771 64.9366L206.77 64.9378L207.879 65.948ZM184.359 65.948L183.239 66.9461L183.25 66.9589L183.262 66.9715L184.359 65.948ZM180.423 47.804V46.304H178.923V47.804H180.423ZM188.907 47.804V54.044H191.907V47.804H188.907ZM188.907 54.044C188.907 56.5857 189.391 58.798 190.786 60.1927L192.907 58.0713C192.382 57.546 191.907 56.3663 191.907 54.044H188.907ZM190.821 60.2263C192.173 61.4942 193.909 62.072 195.879 62.072V59.072C194.52 59.072 193.568 58.6898 192.872 58.0377L190.821 60.2263ZM195.879 62.072C197.845 62.072 199.573 61.4949 200.875 60.1927L198.754 58.0713C198.136 58.6891 197.24 59.072 195.879 59.072V62.072ZM200.84 60.2263C202.326 58.8337 202.851 56.6055 202.851 54.044H199.851C199.851 56.3465 199.351 57.5103 198.789 58.0377L200.84 60.2263ZM202.851 54.044V39.26H199.851V54.044H202.851ZM202.851 39.26C202.851 36.6985 202.326 34.4703 200.84 33.0777L198.789 35.2663C199.351 35.7937 199.851 36.9575 199.851 39.26H202.851ZM200.909 33.1461C199.613 31.7637 197.874 31.136 195.879 31.136V34.136C197.211 34.136 198.096 34.5323 198.72 35.1979L200.909 33.1461ZM195.879 31.136C193.881 31.136 192.134 31.7636 190.786 33.1113L192.907 35.2327C193.607 34.5324 194.548 34.136 195.879 34.136V31.136ZM190.786 33.1113C189.391 34.5059 188.907 36.7183 188.907 39.26H191.907C191.907 36.9377 192.382 35.758 192.907 35.2327L190.786 33.1113ZM188.907 39.26V41.276H191.907V39.26H188.907ZM190.407 39.776H180.423V42.776H190.407V39.776ZM181.921 41.3498L183.841 2.3738L180.844 2.22619L178.924 41.2022L181.921 41.3498ZM182.343 3.8H210.183V0.799995H182.343V3.8ZM208.683 2.3V11.9H211.683V2.3H208.683ZM210.183 10.4H191.847V13.4H210.183V10.4ZM190.349 11.8193L189.485 27.8513L192.48 28.0127L193.344 11.9807L190.349 11.8193ZM192.264 28.7111C193.948 25.9408 196.506 24.536 200.199 24.536V21.536C195.571 21.536 191.985 23.3952 189.701 27.1529L192.264 28.7111ZM200.199 24.536C203.733 24.536 206.145 25.6997 207.724 27.8578L210.145 26.0862C207.884 22.9963 204.472 21.536 200.199 21.536V24.536ZM207.738 27.8767C209.447 30.1363 210.411 33.5705 210.411 38.396H213.411C213.411 33.2375 212.39 29.0557 210.131 26.0673L207.738 27.8767ZM210.411 38.396V53.372H213.411V38.396H210.411ZM210.411 53.372C210.411 58.5757 209.127 62.3563 206.771 64.9366L208.986 66.9594C212.006 63.6517 213.411 59.0483 213.411 53.372H210.411ZM206.77 64.9378C204.515 67.4119 201.075 68.768 196.167 68.768V71.768C201.626 71.768 205.994 70.2441 208.987 66.9582L206.77 64.9378ZM196.167 68.768C191.26 68.768 187.777 67.4127 185.455 64.9245L183.262 66.9715C186.316 70.2433 190.705 71.768 196.167 71.768V68.768ZM185.478 64.9499C183.179 62.3699 181.923 58.584 181.923 53.372H178.923C178.923 59.0399 180.29 63.6381 183.239 66.9461L185.478 64.9499ZM181.923 53.372V47.804H178.923V53.372H181.923ZM180.423 49.304H190.407V46.304H180.423V49.304ZM246.037 65.852L247.157 66.8501L247.162 66.8441L247.167 66.8381L246.037 65.852ZM222.037 65.948L220.917 66.9461L220.929 66.9589L220.94 66.9715L222.037 65.948ZM218.101 51.644V50.144H216.601V51.644H218.101ZM228.085 51.644H229.585V50.144H228.085V51.644ZM229.525 59.228L228.431 60.2539L228.464 60.2892L228.499 60.3223L229.525 59.228ZM239.413 40.124H240.913L238.054 39.4885L239.413 40.124ZM220.789 42.14L219.578 43.0258L219.585 43.0353L219.593 43.0447L220.789 42.14ZM222.037 5.94799L223.121 6.98428L223.127 6.97833L223.133 6.97232L222.037 5.94799ZM245.845 5.94799L244.749 6.97232L244.755 6.97833L244.761 6.98428L245.845 5.94799ZM237.877 35.036L236.816 33.9753L236.816 33.9753L237.877 35.036ZM237.877 12.668L236.816 13.7287L236.833 13.7458L236.851 13.7623L237.877 12.668ZM229.909 12.668L228.883 11.5737L228.865 11.5902L228.848 11.6073L229.909 12.668ZM229.909 35.036L228.815 36.0619L228.848 36.0972L228.883 36.1303L229.909 35.036ZM248.473 52.796C248.473 58.2824 247.208 62.2278 244.907 64.8659L247.167 66.8381C250.114 63.4602 251.473 58.7016 251.473 52.796H248.473ZM244.917 64.8539C242.677 67.3678 239.096 68.768 233.845 68.768V71.768C239.602 71.768 244.149 70.2242 247.157 66.8501L244.917 64.8539ZM233.845 68.768C228.939 68.768 225.456 67.4127 223.134 64.9245L220.94 66.9715C223.994 70.2433 228.383 71.768 233.845 71.768V68.768ZM223.157 64.9499C220.857 62.3699 219.601 58.584 219.601 53.372H216.601C216.601 59.0399 217.969 63.6381 220.917 66.9461L223.157 64.9499ZM219.601 53.372V51.644H216.601V53.372H219.601ZM218.101 53.144H228.085V50.144H218.101V53.144ZM226.585 51.644V54.044H229.585V51.644H226.585ZM226.585 54.044C226.585 56.6 227.076 58.8086 228.431 60.2539L230.619 58.2021C230.054 57.5994 229.585 56.352 229.585 54.044H226.585ZM228.499 60.3223C229.852 61.5902 231.587 62.168 233.557 62.168V59.168C232.199 59.168 231.246 58.7858 230.551 58.1337L228.499 60.3223ZM233.557 62.168C235.746 62.168 237.632 61.4737 238.998 59.9365L236.756 57.9435C236.074 58.7103 235.08 59.168 233.557 59.168V62.168ZM238.998 59.9365C240.421 58.3358 240.913 55.6481 240.913 52.412H237.913C237.913 55.5759 237.381 57.2402 236.756 57.9435L238.998 59.9365ZM240.913 52.412V40.124H237.913V52.412H240.913ZM238.054 39.4885C237.233 41.2451 236.138 42.4895 234.794 43.3062C233.444 44.1267 231.744 44.576 229.621 44.576V47.576C232.171 47.576 234.438 47.0333 236.352 45.8698C238.272 44.7025 239.737 42.9709 240.772 40.7595L238.054 39.4885ZM229.621 44.576C226.088 44.576 223.631 43.4119 221.985 41.2353L219.593 43.0447C221.915 46.1161 225.346 47.576 229.621 47.576V44.576ZM222 41.2542C220.344 38.9918 219.409 35.5496 219.409 30.716H216.409C216.409 35.8664 217.394 40.0402 219.578 43.0258L222 41.2542ZM219.409 30.716V18.428H216.409V30.716H219.409ZM219.409 18.428C219.409 13.2304 220.721 9.49626 223.121 6.98428L220.953 4.91171C217.849 8.15973 216.409 12.7455 216.409 18.428H219.409ZM223.133 6.97232C225.525 4.41282 229.047 3.032 233.941 3.032V0.0319996C228.467 0.0319996 224.053 1.59517 220.941 4.92367L223.133 6.97232ZM233.941 3.032C238.835 3.032 242.357 4.41282 244.749 6.97232L246.941 4.92367C243.829 1.59517 239.415 0.0319996 233.941 0.0319996V3.032ZM244.761 6.98428C247.161 9.49626 248.473 13.2304 248.473 18.428H251.473C251.473 12.7455 250.033 8.15973 246.929 4.91171L244.761 6.98428ZM248.473 18.428V52.796H251.473V18.428H248.473ZM233.941 37.976C235.907 37.976 237.635 37.3989 238.938 36.0967L236.816 33.9753C236.199 34.5931 235.303 34.976 233.941 34.976V37.976ZM238.938 36.0967C240.383 34.6517 240.913 32.4271 240.913 29.852H237.913C237.913 32.1409 237.419 33.3723 236.816 33.9753L238.938 36.0967ZM240.913 29.852V17.756H237.913V29.852H240.913ZM240.913 17.756C240.913 15.1945 240.388 12.9663 238.903 11.5737L236.851 13.7623C237.414 14.2897 237.913 15.4535 237.913 17.756H240.913ZM238.938 11.6073C237.635 10.3051 235.907 9.72799 233.941 9.72799V12.728C235.303 12.728 236.199 13.1109 236.816 13.7287L238.938 11.6073ZM233.941 9.72799C231.971 9.72799 230.236 10.3058 228.883 11.5737L230.935 13.7623C231.63 13.1102 232.583 12.728 233.941 12.728V9.72799ZM228.848 11.6073C227.454 13.0019 226.969 15.2143 226.969 17.756H229.969C229.969 15.4337 230.444 14.254 230.97 13.7287L228.848 11.6073ZM226.969 17.756V29.852H229.969V17.756H226.969ZM226.969 29.852C226.969 32.408 227.46 34.6166 228.815 36.0619L231.003 34.0101C230.438 33.4074 229.969 32.16 229.969 29.852H226.969ZM228.883 36.1303C230.236 37.3982 231.971 37.976 233.941 37.976V34.976C232.583 34.976 231.63 34.5938 230.935 33.9417L228.883 36.1303Z" fill="#D136F6"/>
</svg>
