<svg width="16" height="16" viewBox="0 0 16 16" fill="none" xmlns="http://www.w3.org/2000/svg">
<mask id="mask0_253_8012" style="mask-type:alpha" maskUnits="userSpaceOnUse" x="0" y="0" width="16" height="16">
<rect width="16" height="16" fill="#D9D9D9"/>
</mask>
<g mask="url(#mask0_253_8012)">
<path d="M7.99996 10.6666C8.83329 10.6666 9.54163 10.375 10.125 9.79163C10.7083 9.20829 11 8.49996 11 7.66663C11 6.83329 10.7083 6.12496 10.125 5.54163C9.54163 4.95829 8.83329 4.66663 7.99996 4.66663C7.16663 4.66663 6.45829 4.95829 5.87496 5.54163C5.29163 6.12496 4.99996 6.83329 4.99996 7.66663C4.99996 8.49996 5.29163 9.20829 5.87496 9.79163C6.45829 10.375 7.16663 10.6666 7.99996 10.6666ZM7.99996 9.46663C7.49996 9.46663 7.07496 9.29163 6.72496 8.94163C6.37496 8.59163 6.19996 8.16663 6.19996 7.66663C6.19996 7.16663 6.37496 6.74163 6.72496 6.39163C7.07496 6.04163 7.49996 5.86663 7.99996 5.86663C8.49996 5.86663 8.92496 6.04163 9.27496 6.39163C9.62496 6.74163 9.79996 7.16663 9.79996 7.66663C9.79996 8.16663 9.62496 8.59163 9.27496 8.94163C8.92496 9.29163 8.49996 9.46663 7.99996 9.46663ZM7.99996 12.6666C6.37774 12.6666 4.89996 12.2138 3.56663 11.3083C2.23329 10.4027 1.26663 9.18885 0.666626 7.66663C1.26663 6.1444 2.23329 4.93052 3.56663 4.02496C4.89996 3.1194 6.37774 2.66663 7.99996 2.66663C9.62218 2.66663 11.1 3.1194 12.4333 4.02496C13.7666 4.93052 14.7333 6.1444 15.3333 7.66663C14.7333 9.18885 13.7666 10.4027 12.4333 11.3083C11.1 12.2138 9.62218 12.6666 7.99996 12.6666ZM7.99996 11.3333C9.25552 11.3333 10.4083 11.0027 11.4583 10.3416C12.5083 9.68051 13.3111 8.78885 13.8666 7.66663C13.3111 6.5444 12.5083 5.65274 11.4583 4.99163C10.4083 4.33051 9.25552 3.99996 7.99996 3.99996C6.7444 3.99996 5.59163 4.33051 4.54163 4.99163C3.49163 5.65274 2.68885 6.5444 2.13329 7.66663C2.68885 8.78885 3.49163 9.68051 4.54163 10.3416C5.59163 11.0027 6.7444 11.3333 7.99996 11.3333Z" fill="#ADA8C4"/>
</g>
</svg>
