<svg width="24" height="24" viewBox="0 0 24 24" fill="none" xmlns="http://www.w3.org/2000/svg">
<mask id="mask0_253_8047" style="mask-type:alpha" maskUnits="userSpaceOnUse" x="0" y="0" width="24" height="24">
<rect width="24" height="24" fill="#D9D9D9"/>
</mask>
<g mask="url(#mask0_253_8047)">
<path d="M12.5961 11.6423C13.0218 11.1795 13.3365 10.6481 13.5403 10.0481C13.7442 9.44811 13.8461 8.82952 13.8461 8.19236C13.8461 7.55519 13.7442 6.93661 13.5403 6.33661C13.3365 5.73661 13.0218 5.2052 12.5961 4.74238C13.4743 4.84367 14.2035 5.22283 14.7836 5.87988C15.3637 6.53692 15.6538 7.30774 15.6538 8.19236C15.6538 9.07696 15.3637 9.84778 14.7836 10.5048C14.2035 11.1619 13.4743 11.541 12.5961 11.6423ZM17.4576 19.3077C17.5803 19.2031 17.6757 19.0723 17.7439 18.9153C17.812 18.7584 17.8461 18.5828 17.8461 18.3885V16.9616C17.8461 16.4164 17.7352 15.8977 17.5134 15.4056C17.2916 14.9134 16.9769 14.4911 16.5692 14.1385C17.3359 14.3936 18.0416 14.7379 18.6865 15.1712C19.3314 15.6045 19.6538 16.2013 19.6538 16.9616V18.4038C19.6538 18.6599 19.5672 18.8746 19.3939 19.0478C19.2207 19.2211 19.006 19.3077 18.7499 19.3077H17.4576ZM20.4034 12.75C20.1908 12.75 20.0128 12.6781 19.8692 12.5344C19.7256 12.3907 19.6538 12.2125 19.6538 12V10.75H18.4038C18.1913 10.75 18.0132 10.6781 17.8694 10.5343C17.7257 10.3905 17.6538 10.2123 17.6538 9.99971C17.6538 9.78711 17.7257 9.60902 17.8694 9.46543C18.0132 9.32185 18.1913 9.25006 18.4038 9.25006H19.6538V8.00003C19.6538 7.78753 19.7257 7.60941 19.8695 7.46566C20.0133 7.32192 20.1915 7.25006 20.4041 7.25006C20.6167 7.25006 20.7948 7.32192 20.9384 7.46566C21.082 7.60941 21.1537 7.78753 21.1537 8.00003V9.25006H22.4038C22.6163 9.25006 22.7944 9.32196 22.9381 9.46576C23.0819 9.60957 23.1537 9.78777 23.1537 10.0004C23.1537 10.213 23.0819 10.391 22.9381 10.5346C22.7944 10.6782 22.6163 10.75 22.4038 10.75H21.1537V12C21.1537 12.2125 21.0818 12.3907 20.938 12.5344C20.7942 12.6781 20.616 12.75 20.4034 12.75ZM8.34614 11.6923C7.38366 11.6923 6.55971 11.3496 5.87429 10.6642C5.18889 9.97879 4.84619 9.15484 4.84619 8.19236C4.84619 7.22986 5.18889 6.40591 5.87429 5.72051C6.55971 5.03509 7.38366 4.69238 8.34614 4.69238C9.30864 4.69238 10.1326 5.03509 10.818 5.72051C11.5034 6.40591 11.8461 7.22986 11.8461 8.19236C11.8461 9.15484 11.5034 9.97879 10.818 10.6642C10.1326 11.3496 9.30864 11.6923 8.34614 11.6923ZM1.75002 19.3077C1.49393 19.3077 1.27927 19.2211 1.10602 19.0478C0.9328 18.8746 0.846191 18.6599 0.846191 18.4038V17.0846C0.846191 16.5949 0.9792 16.1414 1.24522 15.7241C1.51125 15.3068 1.8667 14.9859 2.31157 14.7616C3.30002 14.277 4.29712 13.9135 5.30289 13.6712C6.30866 13.4289 7.32307 13.3078 8.34614 13.3078C9.36921 13.3078 10.3836 13.4289 11.3894 13.6712C12.3952 13.9135 13.3923 14.277 14.3807 14.7616C14.8256 14.9859 15.181 15.3068 15.4471 15.7241C15.7131 16.1414 15.8461 16.5949 15.8461 17.0846V18.4038C15.8461 18.6599 15.7595 18.8746 15.5863 19.0478C15.413 19.2211 15.1984 19.3077 14.9423 19.3077H1.75002ZM8.34614 10.1924C8.89614 10.1924 9.36697 9.99652 9.75864 9.60486C10.1503 9.21319 10.3461 8.74236 10.3461 8.19236C10.3461 7.64236 10.1503 7.17152 9.75864 6.77986C9.36697 6.38819 8.89614 6.19236 8.34614 6.19236C7.79614 6.19236 7.32531 6.38819 6.93364 6.77986C6.54197 7.17152 6.34614 7.64236 6.34614 8.19236C6.34614 8.74236 6.54197 9.21319 6.93364 9.60486C7.32531 9.99652 7.79614 10.1924 8.34614 10.1924ZM2.34614 17.8077H14.3461V17.0846C14.3461 16.8821 14.2875 16.6946 14.1702 16.5221C14.0529 16.3497 13.8936 16.209 13.6923 16.1C12.8308 15.6757 11.9523 15.3542 11.0568 15.1356C10.1614 14.917 9.25786 14.8077 8.34614 14.8077C7.43444 14.8077 6.53088 14.917 5.63544 15.1356C4.74003 15.3542 3.86154 15.6757 2.99999 16.1C2.79871 16.209 2.63942 16.3497 2.52212 16.5221C2.4048 16.6946 2.34614 16.8821 2.34614 17.0846V17.8077Z" fill="white"/>
</g>
</svg>
