<svg width="32" height="32" viewBox="0 0 32 32" fill="none" xmlns="http://www.w3.org/2000/svg">
<path d="M16 12.4062C17.9688 12.4062 19.5938 14.0312 19.5938 16C19.5938 18 17.9688 19.5938 16 19.5938C14 19.5938 12.4062 18 12.4062 16C12.4062 14.0312 14 12.4062 16 12.4062ZM16 18.3438C17.2812 18.3438 18.3125 17.3125 18.3125 16C18.3125 14.7188 17.2812 13.6875 16 13.6875C14.6875 13.6875 13.6562 14.7188 13.6562 16C13.6562 17.3125 14.7188 18.3438 16 18.3438ZM20.5625 12.2812C20.5625 12.75 20.1875 13.125 19.7188 13.125C19.25 13.125 18.875 12.75 18.875 12.2812C18.875 11.8125 19.25 11.4375 19.7188 11.4375C20.1875 11.4375 20.5625 11.8125 20.5625 12.2812ZM22.9375 13.125C23 14.2812 23 17.75 22.9375 18.9062C22.875 20.0312 22.625 21 21.8125 21.8438C21 22.6562 20 22.9062 18.875 22.9688C17.7188 23.0312 14.25 23.0312 13.0938 22.9688C11.9688 22.9062 11 22.6562 10.1562 21.8438C9.34375 21 9.09375 20.0312 9.03125 18.9062C8.96875 17.75 8.96875 14.2812 9.03125 13.125C9.09375 12 9.34375 11 10.1562 10.1875C11 9.375 11.9688 9.125 13.0938 9.0625C14.25 9 17.7188 9 18.875 9.0625C20 9.125 21 9.375 21.8125 10.1875C22.625 11 22.875 12 22.9375 13.125ZM21.4375 20.125C21.8125 19.2188 21.7188 17.0312 21.7188 16C21.7188 15 21.8125 12.8125 21.4375 11.875C21.1875 11.2812 20.7188 10.7812 20.125 10.5625C19.1875 10.1875 17 10.2812 16 10.2812C14.9688 10.2812 12.7812 10.1875 11.875 10.5625C11.25 10.8125 10.7812 11.2812 10.5312 11.875C10.1562 12.8125 10.25 15 10.25 16C10.25 17.0312 10.1562 19.2188 10.5312 20.125C10.7812 20.75 11.25 21.2188 11.875 21.4688C12.7812 21.8438 14.9688 21.75 16 21.75C17 21.75 19.1875 21.8438 20.125 21.4688C20.7188 21.2188 21.2188 20.75 21.4375 20.125Z" fill="#D136F6"/>
</svg>
