<svg width="32" height="32" viewBox="0 0 32 32" fill="none" xmlns="http://www.w3.org/2000/svg">
<path d="M22 9C22.5312 9 23 9.46875 23 10.0312V22C23 22.5625 22.5312 23 22 23H9.96875C9.4375 23 9 22.5625 9 22V10.0312C9 9.46875 9.4375 9 9.96875 9H22ZM13.2188 21V14.3438H11.1562V21H13.2188ZM12.1875 13.4062C12.8438 13.4062 13.375 12.875 13.375 12.2188C13.375 11.5625 12.8438 11 12.1875 11C11.5 11 10.9688 11.5625 10.9688 12.2188C10.9688 12.875 11.5 13.4062 12.1875 13.4062ZM21 21V17.3438C21 15.5625 20.5938 14.1562 18.5 14.1562C17.5 14.1562 16.8125 14.7188 16.5312 15.25H16.5V14.3438H14.5312V21H16.5938V17.7188C16.5938 16.8438 16.75 16 17.8438 16C18.9062 16 18.9062 17 18.9062 17.75V21H21Z" fill="#D136F6"/>
</svg>
