<svg width="32" height="32" viewBox="0 0 32 32" fill="none" xmlns="http://www.w3.org/2000/svg">
<path d="M22.3438 12.75C22.3438 12.9062 22.3438 13.0312 22.3438 13.1875C22.3438 17.5312 19.0625 22.5 13.0312 22.5C11.1562 22.5 9.4375 21.9688 8 21.0312C8.25 21.0625 8.5 21.0938 8.78125 21.0938C10.3125 21.0938 11.7188 20.5625 12.8438 19.6875C11.4062 19.6562 10.1875 18.7188 9.78125 17.4062C10 17.4375 10.1875 17.4688 10.4062 17.4688C10.6875 17.4688 11 17.4062 11.25 17.3438C9.75 17.0312 8.625 15.7188 8.625 14.125V14.0938C9.0625 14.3438 9.59375 14.4688 10.125 14.5C9.21875 13.9062 8.65625 12.9062 8.65625 11.7812C8.65625 11.1562 8.8125 10.5938 9.09375 10.125C10.7188 12.0938 13.1562 13.4062 15.875 13.5625C15.8125 13.3125 15.7812 13.0625 15.7812 12.8125C15.7812 11 17.25 9.53125 19.0625 9.53125C20 9.53125 20.8438 9.90625 21.4688 10.5625C22.1875 10.4062 22.9062 10.125 23.5312 9.75C23.2812 10.5312 22.7812 11.1562 22.0938 11.5625C22.75 11.5 23.4062 11.3125 23.9688 11.0625C23.5312 11.7188 22.9688 12.2812 22.3438 12.75Z" fill="#D136F6"/>
</svg>
