<svg width="16" height="16" viewBox="0 0 16 16" fill="none" xmlns="http://www.w3.org/2000/svg">
<mask id="mask0_1_4196" style="mask-type:alpha" maskUnits="userSpaceOnUse" x="0" y="0" width="16" height="16">
<rect width="16" height="16" fill="#D9D9D9"/>
</mask>
<g mask="url(#mask0_1_4196)">
<path d="M7.99998 7.79479C7.35833 7.79479 6.80903 7.56632 6.35208 7.10939C5.89514 6.65245 5.66667 6.10315 5.66667 5.46149C5.66667 4.81982 5.89514 4.27052 6.35208 3.81359C6.80903 3.35665 7.35833 3.12817 7.99998 3.12817C8.64164 3.12817 9.19094 3.35665 9.64788 3.81359C10.1048 4.27052 10.3333 4.81982 10.3333 5.46149C10.3333 6.10315 10.1048 6.65245 9.64788 7.10939C9.19094 7.56632 8.64164 7.79479 7.99998 7.79479ZM3 12.8717V11.3897C3 11.0632 3.08868 10.7608 3.26603 10.4826C3.44338 10.2044 3.68034 9.99055 3.97692 9.84097C4.63589 9.5179 5.30064 9.27559 5.97115 9.11406C6.64166 8.95252 7.31794 8.87176 7.99998 8.87176C8.68203 8.87176 9.35831 8.95252 10.0288 9.11406C10.6993 9.27559 11.3641 9.5179 12.023 9.84097C12.3196 9.99055 12.5566 10.2044 12.7339 10.4826C12.9113 10.7608 13 11.0632 13 11.3897V12.8717H3ZM3.99998 11.8717H12V11.3897C12 11.2546 11.9609 11.1296 11.8827 11.0147C11.8045 10.8997 11.6983 10.8059 11.5641 10.7333C10.9897 10.4504 10.4041 10.236 9.80712 10.0903C9.21016 9.94459 8.60778 9.87172 7.99998 9.87172C7.39218 9.87172 6.78981 9.94459 6.19285 10.0903C5.59589 10.236 5.01024 10.4504 4.43588 10.7333C4.30169 10.8059 4.1955 10.8997 4.1173 11.0147C4.03909 11.1296 3.99998 11.2546 3.99998 11.3897V11.8717ZM7.99998 6.79482C8.36665 6.79482 8.68054 6.66427 8.94165 6.40316C9.20276 6.14205 9.33332 5.82816 9.33332 5.46149C9.33332 5.09482 9.20276 4.78093 8.94165 4.51982C8.68054 4.25871 8.36665 4.12816 7.99998 4.12816C7.63332 4.12816 7.31943 4.25871 7.05832 4.51982C6.79721 4.78093 6.66665 5.09482 6.66665 5.46149C6.66665 5.82816 6.79721 6.14205 7.05832 6.40316C7.31943 6.66427 7.63332 6.79482 7.99998 6.79482Z" fill="white"/>
</g>
</svg>
