<svg width="42" height="42" viewBox="0 0 42 42" fill="none" xmlns="http://www.w3.org/2000/svg">
<rect x="0.137207" y="0.410156" width="41.1429" height="41.1429" rx="3.29143" fill="url(#paint0_linear_212_10703)" fill-opacity="0.9"/>
<path d="M14.5372 28.1818C14.5372 29.3132 15.4629 30.2389 16.5943 30.2389H24.8229C25.9543 30.2389 26.88 29.3132 26.88 28.1818V17.896C26.88 16.7646 25.9543 15.8389 24.8229 15.8389H16.5943C15.4629 15.8389 14.5372 16.7646 14.5372 17.896V28.1818ZM26.88 12.7532H24.3086L23.5783 12.0229C23.3932 11.8378 23.1257 11.7246 22.8583 11.7246H18.5589C18.2915 11.7246 18.024 11.8378 17.8389 12.0229L17.1086 12.7532H14.5372C13.9715 12.7532 13.5086 13.216 13.5086 13.7818C13.5086 14.3475 13.9715 14.8103 14.5372 14.8103H26.88C27.4457 14.8103 27.9086 14.3475 27.9086 13.7818C27.9086 13.216 27.4457 12.7532 26.88 12.7532Z" fill="white"/>
<defs>
<linearGradient id="paint0_linear_212_10703" x1="0.137207" y1="20.4541" x2="41.2801" y2="20.4541" gradientUnits="userSpaceOnUse">
<stop stop-color="#D136F6"/>
<stop offset="1" stop-color="#6C5DD3"/>
</linearGradient>
</defs>
</svg>
