<svg width="48" height="40" viewBox="0 0 48 40" fill="none" xmlns="http://www.w3.org/2000/svg">
<rect x="0.5" y="0.5" width="47" height="39" rx="3.5" fill="#150E1E"/>
<path d="M28.59 17H27V12C27 11.45 26.55 11 26 11H22C21.45 11 21 11.45 21 12V17H19.41C18.52 17 18.07 18.08 18.7 18.71L23.29 23.3C23.68 23.69 24.31 23.69 24.7 23.3L29.29 18.71C29.92 18.08 29.48 17 28.59 17ZM17 27C17 27.55 17.45 28 18 28H30C30.55 28 31 27.55 31 27C31 26.45 30.55 26 30 26H18C17.45 26 17 26.45 17 27Z" fill="#FBBF24"/>
<rect x="0.5" y="0.5" width="47" height="39" rx="3.5" stroke="#252134"/>
</svg>
