<svg width="20" height="20" viewBox="0 0 20 20" fill="none" xmlns="http://www.w3.org/2000/svg">
<path d="M14.586 9.9974C15.8016 9.9974 16.9674 10.4803 17.8269 11.3398C18.6865 12.1994 19.1694 13.3652 19.1694 14.5807C19.1694 15.7963 18.6865 16.9621 17.8269 17.8216C16.9674 18.6812 15.8016 19.1641 14.586 19.1641C13.3705 19.1641 12.2047 18.6812 11.3451 17.8216C10.4856 16.9621 10.0027 15.7963 10.0027 14.5807C10.0027 13.3652 10.4856 12.1994 11.3451 11.3398C12.2047 10.4803 13.3705 9.9974 14.586 9.9974ZM10.021 11.6641C9.46341 12.5345 9.16778 13.547 9.16937 14.5807C9.16937 15.9516 9.67771 17.2024 10.5169 18.1566C9.84854 18.2732 9.12104 18.3316 8.33604 18.3316C5.92771 18.3316 4.06271 17.7849 2.76021 16.6649C2.41893 16.3716 2.145 16.0081 1.95717 15.5992C1.76933 15.1903 1.67202 14.7457 1.67188 14.2957V13.5391C1.67188 13.0418 1.86942 12.5649 2.22105 12.2132C2.57268 11.8616 3.04959 11.6641 3.54687 11.6641H10.021ZM14.586 11.6641L14.511 11.6707C14.4278 11.6859 14.3511 11.7261 14.2913 11.786C14.2315 11.8458 14.1913 11.9225 14.176 12.0057L14.1694 12.0807V14.1641H12.0844L12.0094 14.1716C11.9261 14.1868 11.8495 14.227 11.7896 14.2868C11.7298 14.3467 11.6896 14.4233 11.6744 14.5066L11.6677 14.5816L11.6744 14.6566C11.6897 14.7397 11.73 14.8161 11.7898 14.8758C11.8497 14.9355 11.9262 14.9756 12.0094 14.9907L12.0844 14.9974H14.1694L14.1702 17.0841L14.1769 17.1591C14.1921 17.2423 14.2323 17.319 14.2921 17.3788C14.352 17.4387 14.4286 17.4789 14.5119 17.4941L14.5869 17.5007L14.6619 17.4941C14.7451 17.4789 14.8218 17.4387 14.8816 17.3788C14.9415 17.319 14.9817 17.2423 14.9969 17.1591L15.0035 17.0841V14.9974H17.0894L17.1644 14.9907C17.2476 14.9755 17.3243 14.9353 17.3841 14.8755C17.444 14.8156 17.4842 14.739 17.4994 14.6557L17.506 14.5807L17.4994 14.5057C17.484 14.4226 17.4437 14.3462 17.3839 14.2865C17.3241 14.2268 17.2475 14.1867 17.1644 14.1716L17.0894 14.1641H15.0027V12.0807L14.9969 12.0057C14.9817 11.9225 14.9415 11.8458 14.8816 11.786C14.8218 11.7261 14.7451 11.6859 14.6619 11.6707L14.586 11.6641ZM8.33604 1.66406C8.48707 1.66407 8.63299 1.71876 8.74682 1.81804C8.86064 1.91731 8.93467 2.05443 8.95521 2.20406L8.96104 2.28906V2.91406H11.8777C12.375 2.91406 12.8519 3.11161 13.2035 3.46324C13.5552 3.81487 13.7527 4.29178 13.7527 4.78906V8.54323C13.7527 8.79406 13.7027 9.03323 13.6135 9.2524C12.6954 9.41863 11.8362 9.82066 11.1202 10.4191H4.79437C4.29709 10.4191 3.82018 10.2215 3.46855 9.86989C3.11692 9.51826 2.91937 9.04134 2.91937 8.54406V4.78906C2.91937 4.29178 3.11692 3.81487 3.46855 3.46324C3.82018 3.11161 4.29709 2.91406 4.79437 2.91406H7.71104V2.2899C7.71101 2.15316 7.75583 2.02019 7.83861 1.91136C7.9214 1.80253 8.03759 1.72386 8.16937 1.6874L8.25104 1.67073L8.33604 1.66406ZM6.46104 5.41406C6.32085 5.40845 6.18098 5.43122 6.0498 5.481C5.91863 5.53077 5.79886 5.60654 5.69769 5.70374C5.59652 5.80095 5.51603 5.91759 5.46104 6.04666C5.40606 6.17574 5.37772 6.3146 5.37772 6.4549C5.37772 6.5952 5.40606 6.73405 5.46104 6.86313C5.51603 6.99221 5.59652 7.10885 5.69769 7.20605C5.79886 7.30325 5.91863 7.37902 6.0498 7.42879C6.18098 7.47857 6.32085 7.50134 6.46104 7.49573C6.7321 7.48806 6.98948 7.37499 7.17849 7.18056C7.36751 6.98612 7.47325 6.72564 7.47325 6.45448C7.47325 6.18331 7.36751 5.92284 7.17849 5.7284C6.98948 5.53396 6.7321 5.42173 6.46104 5.41406ZM10.2044 5.41406C10.0642 5.40845 9.92431 5.43122 9.79314 5.481C9.66196 5.53077 9.5422 5.60654 9.44103 5.70374C9.33985 5.80095 9.25936 5.91759 9.20438 6.04666C9.14939 6.17574 9.12105 6.3146 9.12105 6.4549C9.12105 6.5952 9.14939 6.73405 9.20438 6.86313C9.25936 6.99221 9.33985 7.10885 9.44103 7.20605C9.5422 7.30325 9.66196 7.37902 9.79314 7.42879C9.92431 7.47857 10.0642 7.50134 10.2044 7.49573C10.4754 7.48806 10.7328 7.37499 10.9218 7.18056C11.1108 6.98612 11.2166 6.72564 11.2166 6.45448C11.2166 6.18331 11.1108 5.92284 10.9218 5.7284C10.7328 5.53396 10.4754 5.42173 10.2044 5.41406Z" fill="white"/>
</svg>
