<svg width="20" height="20" viewBox="0 0 20 20" fill="none" xmlns="http://www.w3.org/2000/svg">
<g clip-path="url(#clip0_1_10130)">
<path d="M10.1255 12.1167C7.2505 12.1167 4.82471 12.5865 4.82471 14.3996C4.82471 16.2135 7.26617 16.6668 10.1255 16.6668C13.0005 16.6668 15.4263 16.197 15.4263 14.3838C15.4263 12.57 12.9848 12.1167 10.1255 12.1167" fill="url(#paint0_linear_1_10130)"/>
<path d="M10.1255 10.3894C12.0723 10.3894 13.6333 8.81938 13.6333 6.86142C13.6333 4.90272 12.0723 3.3335 10.1255 3.3335C8.17878 3.3335 6.6178 4.90272 6.6178 6.86142C6.6178 8.81938 8.17878 10.3894 10.1255 10.3894" fill="url(#paint1_linear_1_10130)"/>
<path d="M17.7413 7.68245C18.2449 5.70122 16.7683 3.92188 14.8879 3.92188C14.6835 3.92188 14.488 3.94439 14.297 3.98266C14.2716 3.98867 14.2432 4.00142 14.2283 4.02394C14.2112 4.05246 14.2238 4.09073 14.2425 4.11549C14.8073 4.91249 15.1319 5.88284 15.1319 6.92448C15.1319 7.9226 14.8342 8.85317 14.3119 9.6254C14.2582 9.70495 14.3059 9.81226 14.4007 9.82877C14.532 9.85204 14.6663 9.86404 14.8036 9.8678C16.1728 9.90382 17.4018 9.01752 17.7413 7.68245" fill="url(#paint2_linear_1_10130)"/>
<path d="M19.1757 12.3474C18.925 11.8101 18.3198 11.4416 17.3998 11.2607C16.9655 11.1541 15.7903 11.0041 14.6972 11.0243C14.6808 11.0266 14.6718 11.0378 14.6703 11.0453C14.6681 11.0558 14.6726 11.0738 14.6942 11.0851C15.1994 11.3365 17.1521 12.4299 16.9066 14.7361C16.8961 14.8359 16.976 14.9222 17.0752 14.9072C17.5558 14.8382 18.7922 14.571 19.1757 13.7387C19.3876 13.299 19.3876 12.7879 19.1757 12.3474" fill="url(#paint3_linear_1_10130)"/>
<path d="M6.03866 3.98315C5.84839 3.94413 5.65215 3.92236 5.4477 3.92236C3.56735 3.92236 2.09068 5.70171 2.59509 7.68294C2.93385 9.01801 4.16279 9.90431 5.53201 9.86828C5.66931 9.86453 5.80436 9.85177 5.93494 9.82926C6.02971 9.81275 6.07746 9.70543 6.02374 9.62589C5.50142 8.85291 5.2037 7.92308 5.2037 6.92497C5.2037 5.88257 5.52903 4.91222 6.09388 4.11598C6.11179 4.09122 6.12522 4.05294 6.10731 4.02443C6.09239 4.00116 6.06478 3.98915 6.03866 3.98315" fill="url(#paint4_linear_1_10130)"/>
<path d="M2.93597 11.2606C2.01595 11.4414 1.41155 11.8099 1.16084 12.3473C0.948178 12.7878 0.948178 13.2988 1.16084 13.7394C1.54437 14.5709 2.78077 14.8388 3.2613 14.9071C3.36054 14.9221 3.43964 14.8365 3.42919 14.736C3.1837 12.4306 5.13642 11.3371 5.64233 11.0857C5.66322 11.0737 5.6677 11.0565 5.66546 11.0452C5.66397 11.0377 5.65576 11.0264 5.63934 11.0249C4.54546 11.0039 3.37099 11.154 2.93597 11.2606" fill="url(#paint5_linear_1_10130)"/>
</g>
<defs>
<linearGradient id="paint0_linear_1_10130" x1="4.82471" y1="14.3334" x2="15.4263" y2="14.3334" gradientUnits="userSpaceOnUse">
<stop stop-color="#D136F6"/>
<stop offset="1" stop-color="#6C5DD3"/>
</linearGradient>
<linearGradient id="paint1_linear_1_10130" x1="6.6178" y1="6.77097" x2="13.6333" y2="6.77097" gradientUnits="userSpaceOnUse">
<stop stop-color="#D136F6"/>
<stop offset="1" stop-color="#6C5DD3"/>
</linearGradient>
<linearGradient id="paint2_linear_1_10130" x1="14.2202" y1="6.81912" x2="17.8409" y2="6.81912" gradientUnits="userSpaceOnUse">
<stop stop-color="#D136F6"/>
<stop offset="1" stop-color="#6C5DD3"/>
</linearGradient>
<linearGradient id="paint3_linear_1_10130" x1="14.6698" y1="12.9159" x2="19.3346" y2="12.9159" gradientUnits="userSpaceOnUse">
<stop stop-color="#D136F6"/>
<stop offset="1" stop-color="#6C5DD3"/>
</linearGradient>
<linearGradient id="paint4_linear_1_10130" x1="2.49524" y1="6.81961" x2="6.11577" y2="6.81961" gradientUnits="userSpaceOnUse">
<stop stop-color="#D136F6"/>
<stop offset="1" stop-color="#6C5DD3"/>
</linearGradient>
<linearGradient id="paint5_linear_1_10130" x1="1.00134" y1="12.9161" x2="5.66598" y2="12.9161" gradientUnits="userSpaceOnUse">
<stop stop-color="#D136F6"/>
<stop offset="1" stop-color="#6C5DD3"/>
</linearGradient>
<clipPath id="clip0_1_10130">
<rect width="20" height="20" fill="white"/>
</clipPath>
</defs>
</svg>
