<svg width="16" height="17" viewBox="0 0 16 17" fill="none" xmlns="http://www.w3.org/2000/svg">
<path d="M4.14286 3.78414C4.53371 3.30817 5.156 3 5.85714 3H11.4286C12.1106 3 12.7646 3.24784 13.2468 3.68901C13.7291 4.13017 14 4.72852 14 5.35242V8.88105C14 9.52248 13.6631 10.0918 13.1429 10.4493V5.35242C13.1429 4.93649 12.9622 4.53759 12.6408 4.24348C12.3193 3.94937 11.8832 3.78414 11.4286 3.78414H4.14286ZM12.2857 6.13656C12.2857 5.72063 12.1051 5.32173 11.7836 5.02762C11.4621 4.73351 11.0261 4.56828 10.5714 4.56828H3.71429C3.25963 4.56828 2.82359 4.73351 2.5021 5.02762C2.18061 5.32173 2 5.72063 2 6.13656V10.8414C2 11.2573 2.18061 11.6562 2.5021 11.9503C2.82359 12.2445 3.25963 12.4097 3.71429 12.4097V13.2158C3.71427 13.3598 3.75764 13.5011 3.83963 13.6241C3.92162 13.7471 4.03906 13.8471 4.17907 13.913C4.31907 13.979 4.47623 14.0084 4.6333 13.998C4.79036 13.9876 4.94126 13.9378 5.06943 13.8541L7.28086 12.4097H10.5714C11.0261 12.4097 11.4621 12.2445 11.7836 11.9503C12.1051 11.6562 12.2857 11.2573 12.2857 10.8414V6.13656Z" fill="white"/>
</svg>
