<svg width="21" height="20" viewBox="0 0 21 20" fill="none" xmlns="http://www.w3.org/2000/svg">
<path d="M3.46094 4.79167C3.46094 4.5154 3.57068 4.25045 3.76603 4.0551C3.96138 3.85975 4.22634 3.75 4.5026 3.75H17.0026C17.2789 3.75 17.5438 3.85975 17.7392 4.0551C17.9345 4.25045 18.0443 4.5154 18.0443 4.79167H3.46094ZM10.7526 13.125C11.3051 13.125 11.835 12.9055 12.2257 12.5148C12.6164 12.1241 12.8359 11.5942 12.8359 11.0417C12.8359 10.4891 12.6164 9.95923 12.2257 9.56853C11.835 9.17783 11.3051 8.95833 10.7526 8.95833C10.2001 8.95833 9.67017 9.17783 9.27947 9.56853C8.88876 9.95923 8.66927 10.4891 8.66927 11.0417C8.66927 11.5942 8.88876 12.1241 9.27947 12.5148C9.67017 12.9055 10.2001 13.125 10.7526 13.125Z" fill="url(#paint0_linear_1_10106)"/>
<path d="M2.41797 6.87516C2.41797 6.5989 2.52772 6.33394 2.72307 6.13859C2.91842 5.94324 3.18337 5.8335 3.45964 5.8335H18.043C18.3192 5.8335 18.5842 5.94324 18.7795 6.13859C18.9749 6.33394 19.0846 6.5989 19.0846 6.87516V15.2085C19.0846 15.4848 18.9749 15.7497 18.7795 15.9451C18.5842 16.1404 18.3192 16.2502 18.043 16.2502H3.45964C3.18337 16.2502 2.91842 16.1404 2.72307 15.9451C2.52772 15.7497 2.41797 15.4848 2.41797 15.2085V6.87516ZM5.54297 6.87516C5.54297 7.4277 5.32348 7.9576 4.93277 8.3483C4.54207 8.739 4.01217 8.9585 3.45964 8.9585V13.1252C4.01217 13.1252 4.54207 13.3447 4.93277 13.7354C5.32348 14.1261 5.54297 14.656 5.54297 15.2085H15.9596C15.9596 14.656 16.1791 14.1261 16.5698 13.7354C16.9605 13.3447 17.4904 13.1252 18.043 13.1252V8.9585C17.4904 8.9585 16.9605 8.739 16.5698 8.3483C16.1791 7.9576 15.9596 7.4277 15.9596 6.87516H5.54297Z" fill="url(#paint1_linear_1_10106)"/>
<defs>
<linearGradient id="paint0_linear_1_10106" x1="3.46094" y1="8.31731" x2="18.0443" y2="8.31731" gradientUnits="userSpaceOnUse">
<stop stop-color="#D136F6"/>
<stop offset="1" stop-color="#6C5DD3"/>
</linearGradient>
<linearGradient id="paint1_linear_1_10106" x1="2.41797" y1="10.9083" x2="19.0846" y2="10.9083" gradientUnits="userSpaceOnUse">
<stop stop-color="#D136F6"/>
<stop offset="1" stop-color="#6C5DD3"/>
</linearGradient>
</defs>
</svg>
