<svg width="240" height="256" viewBox="0 0 240 256" fill="none" xmlns="http://www.w3.org/2000/svg">
<path d="M0 26.9432C0 20.3924 5.0902 14.969 11.6278 14.5543L226.257 0.938276C233.606 0.472071 239.742 6.46856 239.446 13.8262L230.331 240.393C230.067 246.979 224.701 252.21 218.11 252.307L12.5965 255.332C5.66983 255.434 0 249.847 0 242.919V26.9432Z" fill="#E4E4E4" fill-opacity="0.1"/>
<path d="M34.1406 144.38L45.9836 128.595L35.2407 114.126H39.6767C42.5253 114.126 43.3091 115.296 44.3171 116.493L49.6907 123.897L54.7685 117.151C56.8821 114.323 57.4967 114.126 60.5444 114.126H64.3307L53.4359 128.589L74.5714 157.307H69.8957C67.2091 157.307 66.181 156.169 65.4738 155.221L49.6289 133.367L43.017 142.172C42.1409 143.299 40.9035 144.38 38.5412 144.38H34.1406Z" fill="white"/>
<path d="M78.6115 144.381H72.5605V119.627H65.4922L69.3428 114.127H72.5607V111.04C72.5607 100.657 82.452 98.1315 88.0052 99.8915L86.7642 105.391C82.654 104.496 78.6115 105.974 78.6115 112.201V114.127H86.3952V119.627H78.6115V144.381ZM97.3968 114.127V144.381H91.2084V114.127H97.3968ZM104.658 144.381V114.127H110.764V117.152C110.764 117.152 113.752 113.5 120.216 113.5C127.629 113.5 132.409 119.005 132.409 126.503V144.381H129.026C127.197 144.381 126.276 142.957 126.276 141.631V127.879C126.276 122.179 123.341 119.366 118.787 119.366C113.191 119.366 110.764 123.753 110.764 123.753V144.381H104.658ZM145.726 114.127V144.381H139.538V114.127H145.726ZM150.479 119.627V114.127H156.998V104.65L163.131 102.025V114.126H169.182L171.657 119.627H163.131V133.929C163.131 138.171 166.936 140.159 171.506 138.899L172.747 144.312C172.747 144.312 170.993 144.933 168.253 144.933C161.061 144.933 156.998 140.318 156.998 134.204V119.627L150.479 119.627ZM174.133 114.127H177.158C180.66 114.127 181.452 115.204 182.495 117.632L189.385 132.426L197.707 116.86C198.714 115.089 199.672 114.127 202.737 114.127H205.762L184.408 153.803C182.951 156.437 182.139 157.308 178.808 157.308H175.662L185.92 138.763L174.133 114.127Z" fill="white"/>
</svg>
