<svg width="240" height="255" viewBox="0 0 240 255" fill="none" xmlns="http://www.w3.org/2000/svg">
<path d="M240 26.915C240 20.363 234.908 14.9391 228.369 14.5259L13.7422 0.964967C6.39375 0.500663 0.25856 6.49797 0.55574 13.8551L9.66664 239.408C9.93265 245.994 15.2984 251.223 21.8884 251.32L227.404 254.333C234.331 254.434 240 248.847 240 241.92V26.915Z" fill="#E4E4E4" fill-opacity="0.1"/>
<g clip-path="url(#clip0_1_10066)">
<path fill-rule="evenodd" clip-rule="evenodd" d="M95.3775 155.271H113.523V163.544H84.4924V127.588H105.072L109.887 135.861H95.3879V141.795H108.508V149.337H95.3879L95.3775 155.271ZM132.838 127.588L126.675 139.319L120.532 127.588H108.498L121.169 149.337V163.544H132.034V149.337L144.705 127.588H132.838Z" fill="white"/>
<path fill-rule="evenodd" clip-rule="evenodd" d="M155.528 104.513V91.1309L83.7932 117.069L155.528 104.513Z" fill="white"/>
</g>
<defs>
<clipPath id="clip0_1_10066">
<rect width="71.7348" height="72.4138" fill="white" transform="translate(83.7932 91.1309)"/>
</clipPath>
</defs>
</svg>
