<svg width="240" height="256" viewBox="0 0 240 256" fill="none" xmlns="http://www.w3.org/2000/svg">
<path d="M240 26.8805C240 20.3298 234.91 14.9065 228.372 14.4917L13.7433 0.8721C6.3945 0.405771 0.257492 6.40221 0.553421 13.7599L9.66862 240.392C9.93352 246.978 15.2992 252.209 21.8896 252.306L227.403 255.332C234.33 255.434 240 249.847 240 242.919V26.8805Z" fill="#E4E4E4" fill-opacity="0.1"/>
<path d="M173.511 124.353C171.044 124.922 164.53 125.238 164.53 125.238L163.729 127.81C163.729 127.81 166.954 127.536 169.315 127.768C169.315 127.768 170.074 127.705 170.159 128.611C170.201 129.539 170.096 130.508 170.096 130.508C170.096 130.508 170.032 131.078 169.252 131.225C168.346 131.373 162.232 131.647 162.232 131.647L161.241 134.978C161.241 134.978 160.883 135.737 161.705 135.526C162.464 135.315 168.873 134.092 169.716 134.261C170.601 134.472 171.613 135.694 171.318 136.791C170.981 138.119 164.572 142.209 160.693 141.935C160.693 141.935 158.648 142.061 156.941 139.299C155.296 136.664 157.51 131.71 157.51 131.71C157.51 131.71 156.519 129.391 157.257 128.548C157.257 128.548 157.678 128.189 158.943 128.084L160.524 124.837C160.524 124.837 158.733 124.943 157.678 123.636C156.709 122.371 156.624 121.823 157.383 121.485C158.184 121.064 165.605 119.736 170.707 119.904C170.707 119.904 172.499 119.694 174.08 122.793C174.08 122.793 174.797 124.057 173.532 124.353M154.284 136.833C153.652 138.372 151.902 139.995 149.794 139.004C147.644 137.992 144.249 131.078 144.249 131.078C144.249 131.078 142.985 128.506 142.732 128.59C142.732 128.59 142.458 128.084 142.31 130.909C142.099 133.713 142.352 139.173 141.193 140.037C140.139 140.881 138.874 140.522 138.157 139.531C137.567 138.54 137.314 136.158 137.651 132.005C138.03 127.852 138.979 123.425 140.181 122.055C141.446 120.663 142.458 121.675 142.837 122.055C142.837 122.055 144.46 123.53 147.201 127.894L147.665 128.695C147.665 128.695 150.152 132.848 150.405 132.827C150.405 132.827 150.616 133.038 150.785 132.87C151.038 132.806 150.953 131.457 150.953 131.457C150.953 131.457 150.49 126.967 148.171 119.377C148.171 119.377 147.833 118.408 148.065 117.48C148.276 116.637 149.183 117.058 149.183 117.058C149.183 117.058 152.682 118.745 154.39 124.437C156.076 130.129 154.938 135.294 154.305 136.833M137.124 122.223C136.787 122.814 136.639 123.636 135.184 123.868C135.184 123.868 121.06 124.859 120.364 125.849C120.364 125.849 119.9 126.44 120.659 126.587C121.46 126.756 124.665 127.177 126.183 127.262C127.827 127.262 133.35 127.304 135.374 129.792C135.374 129.792 136.534 130.972 136.491 133.65C136.449 136.39 135.964 137.36 134.889 138.351C133.772 139.278 124.201 143.579 118.024 137.002C118.024 137.002 115.199 133.839 119.015 131.436C119.015 131.436 121.755 129.749 128.776 131.71C128.776 131.71 130.884 132.469 130.799 133.249C130.673 134.092 129.05 134.936 126.689 134.893C124.412 134.83 122.725 133.734 123.062 133.924C123.379 134.029 120.596 132.574 119.732 133.565C118.888 134.493 119.099 135.041 119.942 135.61C122.051 136.833 130.336 136.39 132.802 133.628C132.802 133.628 133.793 132.511 132.296 131.605C130.821 130.761 126.52 130.234 124.854 130.171C123.273 130.087 117.349 130.171 116.464 128.632C116.464 128.632 115.621 127.536 116.548 124.542C117.518 121.38 124.412 120.157 127.405 119.904C127.405 119.904 135.627 119.567 137.166 121.254C137.166 121.254 137.377 121.633 137.124 122.202M113.808 140.754C112.817 141.492 110.709 141.176 110.097 140.332C109.507 139.595 109.296 136.685 109.402 132.111C109.549 127.43 109.612 121.696 110.667 120.769C111.721 119.862 112.353 120.663 112.775 121.275C113.196 121.907 113.744 122.603 113.829 124.057C113.955 125.533 114.314 133.122 114.314 133.122C114.314 133.122 114.777 140.037 113.829 140.754M115.916 116.089C113.007 117.079 111.025 116.763 109.338 116.025C108.601 117.353 108.158 117.754 107.61 117.838C106.766 117.923 106.029 116.573 105.923 116.152C105.755 115.836 105.354 115.266 105.839 113.98C104.194 112.505 104.068 110.523 104.363 109.195C104.743 107.635 107.525 101.774 115.958 101.078C115.958 101.078 120.09 100.783 120.807 102.976H120.933C120.933 102.976 124.939 102.976 124.854 106.56C124.854 110.144 120.427 114.613 115.916 116.152M119.668 105.885C117.012 106.307 112.922 109.848 110.962 112.779C113.976 113.327 119.247 113.116 121.608 108.352C121.608 108.352 122.725 105.358 119.668 105.885ZM108.01 108.204C107.167 109.574 107.125 110.397 107.525 110.945C108.516 109.469 110.266 107.15 112.901 105.337C110.877 105.548 109.17 106.391 108.01 108.204ZM179.835 140.606C177.896 145.371 176.251 150.199 175.303 157.43C175.303 157.43 175.092 158.842 173.932 158.378C172.773 157.957 170.876 156.059 170.454 153.382C170.032 149.882 171.592 143.98 174.776 137.191C173.848 135.716 173.195 133.523 173.722 130.445C173.722 130.445 174.565 124.753 180.257 119.609C180.257 119.609 180.931 119.04 181.311 119.23C181.775 119.441 181.585 121.254 181.206 122.181C180.868 123.067 178.338 127.452 178.338 127.452C178.338 127.452 176.757 130.445 177.2 132.785C180.194 128.189 187.003 118.871 191.219 121.823C193.897 123.72 193.897 129.834 191.894 133.375C190.313 136.179 185.843 141.977 179.877 140.628M188.647 126.292C187.087 127.979 184.305 131.183 182.112 135.526C184.431 135.273 186.687 133.987 187.382 133.333C188.5 132.342 191.072 129.665 190.671 126.123C190.671 126.123 190.418 124.268 188.647 126.292ZM94.2018 143.094C86.7389 145.371 79.6977 144.317 75.8608 143.305C75.7554 144.865 75.5868 145.518 75.3338 145.771C75.0386 146.109 72.5932 147.5 71.2439 145.518C70.6537 144.57 70.3585 142.862 70.1899 141.302C61.5464 137.381 57.5409 131.605 57.4144 131.394C57.2036 131.183 55.243 129.138 57.2036 126.608C59.0377 124.331 65.1092 122.034 70.5483 121.127C70.7591 116.489 71.265 112.905 71.9186 111.324C72.6986 109.427 73.6894 111.113 74.5748 112.378C75.2916 113.327 75.7343 117.396 75.7765 120.642C79.3182 120.474 81.4685 120.727 85.4108 121.485C90.5968 122.371 94.0542 125.027 93.7802 128.021C93.5272 130.972 90.8287 132.195 89.7747 132.279C88.7206 132.364 87.0341 131.584 87.0341 131.584C85.8535 131.035 86.9286 130.529 88.299 129.939C89.8168 129.201 89.4795 128.463 89.4795 128.463C88.9314 126.777 82.2064 125.66 75.5235 125.66C75.5235 129.349 75.6711 135.463 75.7765 139.025C80.4566 139.911 83.9561 139.721 83.9561 139.721C83.9561 139.721 101.032 139.236 101.517 128.337C102.044 117.417 84.441 106.96 71.4758 103.672C58.5317 100.277 51.1954 102.681 50.5629 102.997C49.8672 103.334 50.4997 103.461 50.4997 103.461C50.4997 103.461 51.1954 103.566 52.4603 103.988C53.7251 104.409 52.7132 105.042 52.7132 105.042C50.4997 105.801 48.0331 105.358 47.5482 104.346C47.0634 103.355 47.8645 102.449 48.8131 101.121C49.6986 99.7503 50.7105 99.7925 50.7105 99.7925C66.7325 94.2059 86.2962 104.22 86.2962 104.22C104.595 113.453 107.715 124.31 107.378 128.527C107.083 132.68 105.48 139.7 94.2018 143.115M58.9955 128.021C57.1825 128.864 58.4474 130.213 58.4474 130.213C61.8626 133.86 66.0368 136.158 70.0423 137.592C70.5061 131.267 70.4639 129.012 70.4639 125.828C64.2659 126.25 60.6821 127.262 58.9955 128.021Z" fill="white"/>
</svg>
