<svg width="240" height="256" viewBox="0 0 240 256" fill="none" xmlns="http://www.w3.org/2000/svg">
<path d="M0 26.9432C0 20.3924 5.0902 14.969 11.6278 14.5543L226.257 0.938276C233.606 0.472071 239.742 6.46856 239.446 13.8262L230.331 240.393C230.067 246.979 224.701 252.21 218.11 252.307L12.5965 255.332C5.66983 255.434 0 249.847 0 242.919V26.9432Z" fill="#E4E4E4" fill-opacity="0.1"/>
<path d="M114.047 145.732C114.137 145.665 114.159 145.531 114.114 145.42C107.955 132.182 100.272 119.708 91.2196 108.252C91.2196 108.252 84.0274 115.087 84.5411 121.944C84.6615 123.525 85.0923 125.067 85.809 126.481C86.5257 127.895 87.5142 129.155 88.718 130.186C94.9944 136.307 110.183 144.035 113.712 145.799C113.824 145.844 113.958 145.822 114.047 145.732ZM111.702 150.959C111.657 150.825 111.523 150.736 111.367 150.736L86.0823 151.607C88.8297 156.498 93.4532 160.296 98.2555 159.134C101.584 158.308 109.089 153.059 111.568 151.272C111.769 151.115 111.702 150.981 111.702 150.959ZM112.082 148.703C112.216 148.502 111.992 148.323 111.992 148.323C100.891 140.818 79.3591 129.293 79.3591 129.293C78.6455 131.48 78.4458 133.803 78.7757 136.08C79.1056 138.358 79.9562 140.528 81.2613 142.423C82.5665 144.318 84.291 145.887 86.3009 147.007C88.3108 148.127 90.552 148.769 92.8502 148.882C93.2299 148.949 107.882 148.882 111.814 148.859C111.925 148.837 112.015 148.792 112.082 148.703ZM113.757 97.33C112.662 97.4193 109.692 98.1117 109.692 98.1117C102.991 99.8316 101.405 105.929 101.405 105.929C100.176 109.749 101.427 113.97 101.427 113.97C103.661 123.888 114.65 140.215 117.018 143.633C117.174 143.811 117.308 143.744 117.308 143.744C117.442 143.7 117.554 143.588 117.554 143.432C121.217 106.979 113.757 97.33 113.757 97.33ZM122.133 143.7C122.267 143.744 122.423 143.7 122.49 143.566C124.925 140.059 135.847 123.821 138.081 113.948C138.081 113.948 139.287 109.168 138.126 105.907C138.126 105.907 136.473 99.7199 129.772 98.0894C129.772 98.0894 127.851 97.598 125.796 97.3076C125.796 97.3076 118.291 106.957 121.954 143.409C121.932 143.543 122.021 143.655 122.133 143.7ZM128.119 150.758C128.059 150.77 128.003 150.794 127.953 150.829C127.903 150.863 127.861 150.908 127.829 150.959C127.806 151.093 127.829 151.205 127.918 151.294C130.33 153.036 137.679 158.174 141.208 159.156C141.208 159.156 147.752 161.39 153.426 151.629L128.119 150.758ZM160.171 129.248C160.171 129.248 138.684 140.796 127.561 148.301C127.449 148.39 127.382 148.524 127.427 148.658C127.427 148.658 127.538 148.859 127.695 148.859C131.67 148.859 146.725 148.882 147.127 148.815C148.624 148.703 150.098 148.368 151.483 147.81C151.483 147.81 156.843 146.112 159.613 140.014C159.613 140.014 162.092 135.056 160.171 129.248ZM125.528 145.732C125.617 145.799 125.751 145.822 125.863 145.755C129.481 143.945 144.558 136.284 150.79 130.186C150.79 130.186 154.744 127.015 154.945 121.9C155.391 114.819 148.266 108.252 148.266 108.252C148.266 108.252 135.088 124.223 125.416 145.33C125.401 145.401 125.403 145.475 125.422 145.545C125.442 145.615 125.478 145.68 125.528 145.732Z" fill="white"/>
</svg>
