<svg width="240" height="256" viewBox="0 0 240 256" fill="none" xmlns="http://www.w3.org/2000/svg">
<path d="M240 26.9432C240 20.3924 234.91 14.969 228.372 14.5543L13.7433 0.938276C6.39447 0.472071 0.257553 6.46856 0.553558 13.8262L9.6685 240.393C9.93346 246.979 15.2991 252.21 21.8896 252.307L227.404 255.332C234.33 255.434 240 249.847 240 242.919V26.9432Z" fill="#E4E4E4" fill-opacity="0.1"/>
<path d="M96.0876 159.177H90.375V136.508H96.0876V159.177Z" fill="white"/>
<path d="M142.151 143.003C141.916 142.883 140.077 141.792 137.345 141.792C133.652 141.792 131.089 144.365 131.089 147.839C131.089 151.207 133.541 153.891 137.345 153.891C140.03 153.891 141.899 152.822 142.151 152.687V158.772C141.434 158.971 139.482 159.578 136.945 159.578C130.519 159.578 124.879 155.143 124.879 147.837C124.879 141.069 129.982 136.104 136.945 136.104C139.623 136.104 141.61 136.757 142.151 136.918V143.003ZM82.5223 143.003C82.2925 142.883 80.4558 141.792 77.7235 141.792C74.0231 141.792 71.4626 144.365 71.4626 147.839C71.4626 151.207 73.9163 153.891 77.7235 153.891C80.4088 153.891 82.2762 152.822 82.5223 152.687V158.772C81.813 158.971 79.8623 159.578 77.3109 159.578C70.8908 159.578 65.2578 155.143 65.2578 147.837C65.2578 141.069 70.3606 136.104 77.3127 136.104C80.0017 136.104 81.9849 136.757 82.5223 136.918V143.003ZM160.121 141.877C156.732 141.877 154.215 144.548 154.215 147.839C154.215 151.136 156.732 153.805 160.121 153.805C163.507 153.805 166.031 151.136 166.031 147.839C166.031 144.548 163.507 141.877 160.121 141.877ZM172.084 147.839C172.084 154.324 167.084 159.578 160.123 159.578C153.158 159.578 148.166 154.324 148.166 147.837C148.166 141.365 153.16 136.104 160.121 136.104C167.084 136.104 172.084 141.365 172.084 147.839ZM117.752 141.66C117.666 141.633 115.262 140.968 113.286 140.968C110.997 140.968 109.752 141.736 109.752 142.825C109.752 144.206 111.431 144.688 112.37 144.985L113.946 145.487C117.656 146.668 119.344 149.21 119.344 151.972C119.344 157.667 114.342 159.58 109.971 159.58C106.933 159.58 104.086 159.018 103.806 158.96V153.742C104.309 153.869 106.705 154.586 109.2 154.586C112.043 154.586 113.349 153.753 113.349 152.47C113.349 151.321 112.218 150.658 110.801 150.212C110.457 150.096 109.936 149.933 109.582 149.817C106.401 148.81 103.748 146.936 103.748 143.186C103.748 138.946 106.918 136.099 112.184 136.099C114.965 136.099 117.581 136.775 117.752 136.82V141.658V141.66Z" fill="white"/>
<path d="M59.1962 112.145C59.1962 110.584 57.9223 109.317 56.3607 109.317C54.7991 109.317 53.5234 110.583 53.5234 112.144V118.096C53.5421 118.837 53.8492 119.541 54.3791 120.058C54.9089 120.576 55.6198 120.865 56.3598 120.865C57.0999 120.865 57.8107 120.576 58.3406 120.058C58.8705 119.541 59.1775 118.837 59.1962 118.096V112.145ZM74.7743 104.336C74.7743 103.583 74.4754 102.86 73.9435 102.328C73.4116 101.795 72.6901 101.496 71.9379 101.496C71.1856 101.496 70.4642 101.795 69.9322 102.328C69.4003 102.86 69.1015 103.583 69.1015 104.336V118.096C69.1015 118.849 69.4003 119.572 69.9322 120.104C70.4642 120.637 71.1856 120.936 71.9379 120.936C72.6901 120.936 73.4116 120.637 73.9435 120.104C74.4754 119.572 74.7743 118.849 74.7743 118.096V104.334V104.336ZM90.3541 93.6491C90.3541 92.0872 89.0802 90.8188 87.5186 90.8188C85.9552 90.8188 84.6813 92.0872 84.6813 93.6491V123.751C84.7 124.492 85.007 125.196 85.5369 125.713C86.0668 126.231 86.7776 126.52 87.5177 126.52C88.2578 126.52 88.9686 126.231 89.4985 125.713C90.0284 125.196 90.3354 124.492 90.3541 123.751V93.6491ZM105.932 104.336C105.932 103.583 105.633 102.86 105.101 102.328C104.569 101.795 103.848 101.496 103.096 101.496C102.343 101.496 101.622 101.795 101.09 102.328C100.558 102.86 100.259 103.583 100.259 104.336V118.096C100.259 118.849 100.558 119.572 101.09 120.104C101.622 120.637 102.343 120.936 103.096 120.936C103.848 120.936 104.569 120.637 105.101 120.104C105.633 119.572 105.932 118.849 105.932 118.096V104.334V104.336ZM121.494 112.145C121.494 111.396 121.198 110.677 120.669 110.147C120.14 109.616 119.423 109.318 118.675 109.317C117.925 109.316 117.205 109.614 116.674 110.144C116.142 110.673 115.842 111.393 115.839 112.144V118.096C115.839 118.847 116.137 119.567 116.667 120.098C117.197 120.629 117.917 120.927 118.666 120.927C119.416 120.927 120.135 120.629 120.666 120.098C121.196 119.567 121.494 118.847 121.494 118.096V112.145ZM137.079 104.336C137.06 103.597 136.754 102.895 136.226 102.38C135.698 101.864 134.989 101.575 134.252 101.575C133.514 101.575 132.806 101.864 132.277 102.38C131.749 102.895 131.443 103.597 131.424 104.336V118.096C131.424 118.847 131.722 119.567 132.253 120.098C132.783 120.629 133.502 120.927 134.252 120.927C135.002 120.927 135.721 120.629 136.251 120.098C136.781 119.567 137.079 118.847 137.079 118.096V104.334V104.336ZM152.668 93.6491C152.668 92.8982 152.37 92.1781 151.84 91.6471C151.31 91.1162 150.59 90.8179 149.841 90.8179C149.091 90.8179 148.372 91.1162 147.841 91.6471C147.311 92.1781 147.013 92.8982 147.013 93.6491V123.751C146.997 124.133 147.057 124.515 147.192 124.873C147.326 125.231 147.532 125.558 147.796 125.835C148.06 126.111 148.378 126.331 148.729 126.481C149.08 126.631 149.459 126.709 149.841 126.709C150.223 126.709 150.601 126.631 150.952 126.481C151.304 126.331 151.621 126.111 151.885 125.835C152.149 125.558 152.355 125.231 152.489 124.873C152.624 124.515 152.685 124.133 152.668 123.751V93.6491ZM168.253 104.336C168.253 102.772 166.988 101.502 165.391 101.502C164.641 101.503 163.922 101.801 163.392 102.332C162.862 102.863 162.564 103.583 162.564 104.334V118.096C162.564 119.667 163.831 120.933 165.391 120.933C166.988 120.933 168.253 119.667 168.253 118.096V104.334V104.336ZM183.81 112.145C183.81 111.394 183.511 110.673 182.981 110.142C182.45 109.61 181.73 109.312 180.979 109.312C180.229 109.312 179.509 109.61 178.978 110.142C178.448 110.673 178.149 111.394 178.149 112.145V118.096C178.149 119.667 179.418 120.935 180.979 120.935C182.539 120.935 183.808 119.667 183.808 118.096V112.145H183.81Z" fill="white"/>
<path d="M180.541 156.191V156.546H179.531V159.175H179.115V156.548H178.102V156.191H180.541ZM180.752 156.191H181.402L182.294 158.639H182.309L183.172 156.192H183.809V159.175H183.383V156.729H183.369L182.464 159.175H182.072L181.189 156.729H181.169V159.175H180.752V156.191Z" fill="white"/>
</svg>
