<svg width="25" height="24" viewBox="0 0 25 24" fill="none" xmlns="http://www.w3.org/2000/svg">
<path d="M22.6632 5.65495C21.8998 5.99266 21.0902 6.21444 20.2612 6.31295C21.135 5.79038 21.789 4.96796 22.1012 3.99895C21.2812 4.48695 20.3822 4.82895 19.4452 5.01395C18.8159 4.34053 17.9816 3.89391 17.0722 3.74353C16.1628 3.59316 15.2292 3.74744 14.4165 4.1824C13.6038 4.61737 12.9576 5.30863 12.5784 6.14874C12.1991 6.98885 12.108 7.93073 12.3193 8.82795C10.6564 8.7446 9.02958 8.31247 7.54454 7.55961C6.05949 6.80675 4.74938 5.75 3.69925 4.45795C3.32754 5.0964 3.13221 5.82218 3.13325 6.56095C3.13325 8.01095 3.87125 9.29195 4.99325 10.0419C4.32927 10.021 3.67991 9.84166 3.09925 9.51895V9.57095C3.09945 10.5367 3.43362 11.4726 4.0451 12.22C4.65658 12.9675 5.50773 13.4804 6.45425 13.6719C5.83787 13.839 5.19156 13.8636 4.56425 13.7439C4.83112 14.5752 5.35126 15.3021 6.05184 15.8231C6.75243 16.344 7.59838 16.6327 8.47125 16.6489C7.60388 17.3302 6.61075 17.8338 5.54862 18.131C4.4865 18.4282 3.37622 18.5131 2.28125 18.3809C4.19292 19.6104 6.41834 20.2631 8.69125 20.261C16.3832 20.261 20.5912 13.8879 20.5912 8.36095C20.5912 8.18095 20.5852 7.99895 20.5772 7.82095C21.3961 7.22913 22.1029 6.49598 22.6642 5.65595L22.6632 5.65495Z" fill="white"/>
</svg>
