<svg width="16" height="17" viewBox="0 0 16 17" fill="none" xmlns="http://www.w3.org/2000/svg">
<path d="M6.66732 10.5002L10.1273 8.50016L6.66732 6.50016V10.5002ZM14.374 5.28016C14.4606 5.5935 14.5207 6.0135 14.5607 6.54683C14.6073 7.08016 14.6273 7.54016 14.6273 7.94016L14.6673 8.50016C14.6673 9.96016 14.5606 11.0335 14.374 11.7202C14.2073 12.3202 13.8207 12.7068 13.2207 12.8735C12.9073 12.9602 12.334 13.0202 11.454 13.0602C10.5873 13.1068 9.79398 13.1268 9.06065 13.1268L8.00065 13.1668C5.20732 13.1668 3.46732 13.0602 2.78065 12.8735C2.18065 12.7068 1.79398 12.3202 1.62732 11.7202C1.54065 11.4068 1.48065 10.9868 1.44065 10.4535C1.39398 9.92016 1.37398 9.46016 1.37398 9.06016L1.33398 8.50016C1.33398 7.04016 1.44065 5.96683 1.62732 5.28016C1.79398 4.68016 2.18065 4.2935 2.78065 4.12683C3.09398 4.04016 3.66732 3.98016 4.54732 3.94016C5.41398 3.8935 6.20732 3.8735 6.94065 3.8735L8.00065 3.8335C10.794 3.8335 12.534 3.94016 13.2207 4.12683C13.8207 4.2935 14.2073 4.68016 14.374 5.28016Z" fill="white"/>
</svg>
