<svg width="16" height="16" viewBox="0 0 16 16" fill="none" xmlns="http://www.w3.org/2000/svg">
<g clip-path="url(#clip0_276_259)">
<path d="M14.9849 9.74272C14.0231 13.6003 10.116 15.948 6.25793 14.986C2.40147 14.0243 0.0538038 10.1169 1.01595 6.25964C1.97724 2.4016 5.88439 0.0537516 9.74126 1.01547C13.5991 1.97719 15.9466 5.885 14.9848 9.74279L14.9848 9.74272H14.9849Z" fill="#F7931A"/>
<path d="M11.1755 6.9749C11.3188 6.01663 10.5892 5.50152 9.59159 5.15789L9.91522 3.85983L9.12505 3.66294L8.81001 4.92682C8.60227 4.87501 8.38895 4.8262 8.17692 4.7778L8.49425 3.50557L7.70458 3.30868L7.38076 4.60632C7.20886 4.56718 7.04002 4.5285 6.87622 4.48774L6.87713 4.48366L5.78747 4.21155L5.57727 5.0555C5.57727 5.0555 6.16351 5.18989 6.15116 5.19816C6.47114 5.27802 6.529 5.48983 6.51939 5.65772L6.15074 7.13652C6.17277 7.14212 6.20135 7.15021 6.23289 7.16288C6.20652 7.15634 6.17847 7.14919 6.14937 7.14222L5.63264 9.21381C5.59354 9.31102 5.49428 9.45691 5.27057 9.40151C5.27849 9.41299 4.69626 9.25819 4.69626 9.25819L4.30396 10.1627L5.33223 10.419C5.52353 10.467 5.71099 10.5172 5.8956 10.5644L5.56862 11.8773L6.35787 12.0742L6.68168 10.7752C6.8973 10.8337 7.10655 10.8877 7.31139 10.9386L6.98867 12.2315L7.77888 12.4284L8.10582 11.1179C9.45323 11.3729 10.4664 11.2701 10.8928 10.0514C11.2364 9.07017 10.8757 8.5042 10.1668 8.13513C10.6832 8.01606 11.072 7.67648 11.1757 6.975L11.1755 6.97483L11.1755 6.9749ZM9.37009 9.50647C9.1259 10.4877 7.47383 9.95727 6.9382 9.82426L7.37211 8.08483C7.9077 8.21855 9.62531 8.48316 9.37013 9.50647H9.37009ZM9.61447 6.96068C9.39171 7.8532 8.01667 7.39976 7.57062 7.28857L7.96401 5.71101C8.41006 5.8222 9.84652 6.02972 9.61454 6.96068H9.61447Z" fill="white"/>
</g>
<defs>
<clipPath id="clip0_276_259">
<rect width="16" height="16" fill="white" transform="translate(0.000244141)"/>
</clipPath>
</defs>
</svg>
