<svg width="16" height="16" viewBox="0 0 16 16" fill="none" xmlns="http://www.w3.org/2000/svg">
<g clip-path="url(#clip0_246_75)">
<path d="M14.9844 9.74271C14.0227 13.6003 10.1155 15.948 6.25744 14.986C2.40098 14.0243 0.0533155 10.1169 1.01546 6.25963C1.97676 2.40159 5.8839 0.0537401 9.74078 1.01546C13.5986 1.97718 15.9461 5.88499 14.9843 9.74278L14.9843 9.74271H14.9844Z" fill="#F7931A"/>
<path d="M11.1752 6.97484C11.3185 6.01657 10.589 5.50146 9.59134 5.15784L9.91498 3.85977L9.12481 3.66288L8.80976 4.92677C8.60203 4.87496 8.3887 4.82614 8.17668 4.77774L8.49401 3.50552L7.70433 3.30862L7.38052 4.60626C7.20862 4.56713 7.03978 4.52844 6.87597 4.48769L6.87689 4.4836L5.78723 4.2115L5.57703 5.05545C5.57703 5.05545 6.16327 5.18983 6.15092 5.1981C6.47089 5.27796 6.52875 5.48978 6.51915 5.65767L6.15049 7.13647C6.17253 7.14206 6.20111 7.15016 6.23264 7.16283C6.20628 7.15628 6.17823 7.14914 6.14912 7.14217L5.63239 9.21375C5.59329 9.31097 5.49404 9.45686 5.27032 9.40146C5.27824 9.41293 4.69602 9.25814 4.69602 9.25814L4.30371 10.1626L5.33199 10.419C5.52328 10.4669 5.71074 10.5171 5.89535 10.5643L5.56837 11.8773L6.35763 12.0742L6.68144 10.7752C6.89706 10.8337 7.1063 10.8877 7.31115 10.9386L6.98843 12.2315L7.77863 12.4284L8.10558 11.1179C9.45299 11.3729 10.4661 11.2701 10.8926 10.0513C11.2362 9.07011 10.8755 8.50415 10.1666 8.13507C10.6829 8.016 11.0718 7.67642 11.1755 6.97495L11.1752 6.97477L11.1752 6.97484ZM9.36985 9.50641C9.12565 10.4876 7.47358 9.95722 6.93795 9.82421L7.37186 8.08478C7.90745 8.21849 9.62506 8.4831 9.36989 9.50641H9.36985ZM9.61422 6.96062C9.39146 7.85314 8.01642 7.3997 7.57037 7.28852L7.96377 5.71095C8.40982 5.82214 9.84628 6.02966 9.61429 6.96062H9.61422Z" fill="white"/>
</g>
<defs>
<clipPath id="clip0_246_75">
<rect width="16" height="16" fill="white"/>
</clipPath>
</defs>
</svg>
