<svg width="154" height="47" viewBox="0 0 154 47" fill="none" xmlns="http://www.w3.org/2000/svg">
<path d="M3.224 3.632L2.47749 2.96662L2.47659 2.96763L3.224 3.632ZM18.776 3.632L18.0214 4.28818L18.029 4.29692L18.0368 4.30549L18.776 3.632ZM21.4 13.36V14.36H22.4V13.36H21.4ZM14.744 13.36H13.744V14.36H14.744V13.36ZM13.784 8.112L13.0314 8.7705L13.0533 8.79556L13.0769 8.81911L13.784 8.112ZM8.6 8.112L7.87046 7.42806L7.86895 7.42968L8.6 8.112ZM8.728 15.6L7.85976 16.0961L7.86368 16.103L7.86771 16.1098L8.728 15.6ZM11.288 18.928L10.5666 19.6205L10.5737 19.6279L10.5809 19.6351L11.288 18.928ZM14.552 22.064L13.8726 22.7978L13.8867 22.8108L13.9012 22.8233L14.552 22.064ZM17.88 25.456L17.1096 26.0936L17.1096 26.0936L17.88 25.456ZM20.44 29.68L21.3579 29.2831L21.3579 29.2831L20.44 29.68ZM18.776 43.632L18.0375 42.9577L18.0368 42.9585L18.776 43.632ZM3.096 43.632L2.34949 44.2974L2.35712 44.3059L2.36494 44.3143L3.096 43.632ZM0.472 32.496V31.496H-0.528V32.496H0.472ZM7.128 32.496H8.128V31.496H7.128V32.496ZM8.088 39.088L7.38089 39.7951L7.3923 39.8065L7.40406 39.8175L8.088 39.088ZM13.4 39.088L12.7161 38.3585L12.7043 38.3695L12.6929 38.3809L13.4 39.088ZM13.4 31.664L12.5318 32.1601L12.5357 32.167L12.5397 32.1738L13.4 31.664ZM10.84 28.336L10.1186 29.0285L10.1257 29.0359L10.1329 29.0431L10.84 28.336ZM7.512 25.2L6.83259 25.9338L6.84666 25.9468L6.86121 25.9593L7.512 25.2ZM4.248 21.744L3.47761 22.3816L3.47761 22.3816L4.248 21.744ZM1.688 17.52L2.60586 17.1231L2.60586 17.1231L1.688 17.52ZM1.664 11.952C1.664 8.46996 2.48361 5.97014 3.97141 4.29636L2.47659 2.96763C0.551059 5.13386 -0.336 8.1807 -0.336 11.952H1.664ZM3.97051 4.29737C5.47501 2.6094 7.7663 1.688 11.032 1.688V-0.312C7.3857 -0.312 4.47166 0.729262 2.47749 2.96663L3.97051 4.29737ZM11.032 1.688C14.2992 1.688 16.562 2.60989 18.0214 4.28818L19.5306 2.97582C17.5767 0.728772 14.6768 -0.312 11.032 -0.312V1.688ZM18.0368 4.30549C19.5619 5.97935 20.4 8.47556 20.4 11.952H22.4C22.4 8.1751 21.4888 5.12464 19.5152 2.95851L18.0368 4.30549ZM20.4 11.952V13.36H22.4V11.952H20.4ZM21.4 12.36H14.744V14.36H21.4V12.36ZM15.744 13.36V11.504H13.744V13.36H15.744ZM15.744 11.504C15.744 9.80954 15.4208 8.33463 14.4911 7.40489L13.0769 8.81911C13.4272 9.16937 13.744 9.95579 13.744 11.504H15.744ZM14.5366 7.4535C13.7077 6.50623 12.5518 6.088 11.224 6.088V8.088C12.1149 8.088 12.6656 8.35243 13.0314 8.7705L14.5366 7.4535ZM11.224 6.088C9.89392 6.088 8.73448 6.50644 7.87046 7.42806L9.32954 8.79594C9.74552 8.35222 10.3354 8.088 11.224 8.088V6.088ZM7.86895 7.42968C7.00145 8.35914 6.704 9.82192 6.704 11.504H8.704C8.704 9.94341 9.00388 9.14486 9.33106 8.79432L7.86895 7.42968ZM6.704 11.504C6.704 13.1933 7.08103 14.7334 7.85976 16.0961L9.59624 15.1039C9.00963 14.0773 8.704 12.8867 8.704 11.504H6.704ZM7.86771 16.1098C8.59333 17.3343 9.4949 18.5042 10.5666 19.6205L12.0094 18.2355C11.0331 17.2185 10.228 16.1697 9.58829 15.0902L7.86771 16.1098ZM10.5809 19.6351C11.6147 20.6689 12.712 21.7231 13.8726 22.7978L15.2314 21.3302C14.088 20.2716 13.0093 19.2351 11.9951 18.2209L10.5809 19.6351ZM13.9012 22.8233C15.0517 23.8094 16.1212 24.8992 17.1096 26.0936L18.6504 24.8184C17.5908 23.5381 16.4416 22.3666 15.2028 21.3047L13.9012 22.8233ZM17.1096 26.0936C18.0692 27.2531 18.8744 28.5789 19.5221 30.0769L21.3579 29.2831C20.6403 27.6238 19.7388 26.1336 18.6504 24.8184L17.1096 26.0936ZM19.5221 30.0769C20.1393 31.504 20.464 33.2193 20.464 35.248H22.464C22.464 33.01 22.1061 31.0133 21.3579 29.2831L19.5221 30.0769ZM20.464 35.248C20.464 38.7171 19.6081 41.2375 18.0375 42.9577L19.5145 44.3063C21.5279 42.1012 22.464 39.0322 22.464 35.248H20.464ZM18.0368 42.9585C16.534 44.6079 14.2402 45.512 10.968 45.512V47.512C14.6078 47.512 17.5193 46.4961 19.5152 44.3055L18.0368 42.9585ZM10.968 45.512C7.6973 45.512 5.37523 44.6084 3.82706 42.9497L2.36494 44.3143C4.40077 46.4956 7.3267 47.512 10.968 47.512V45.512ZM3.84251 42.9666C2.30943 41.2466 1.472 38.7227 1.472 35.248H-0.528C-0.528 39.0266 0.383904 42.0921 2.34949 44.2974L3.84251 42.9666ZM1.472 35.248V32.496H-0.528V35.248H1.472ZM0.472 33.496H7.128V31.496H0.472V33.496ZM6.128 32.496V35.696H8.128V32.496H6.128ZM6.128 35.696C6.128 37.3905 6.45115 38.8654 7.38089 39.7951L8.79511 38.3809C8.44485 38.0306 8.128 37.2442 8.128 35.696H6.128ZM7.40406 39.8175C8.30567 40.6628 9.46275 41.048 10.776 41.048V39.048C9.87059 39.048 9.23566 38.7932 8.77194 38.3585L7.40406 39.8175ZM10.776 41.048C12.0869 41.048 13.2389 40.6633 14.1071 39.7951L12.6929 38.3809C12.2811 38.7927 11.6837 39.048 10.776 39.048V41.048ZM14.0839 39.8175C15.0742 38.8891 15.424 37.4037 15.424 35.696H13.424C13.424 37.231 13.0911 38.0069 12.7161 38.3585L14.0839 39.8175ZM15.424 35.696C15.424 34.0074 15.0472 32.4821 14.2603 31.1542L12.5397 32.1738C13.1181 33.1499 13.424 34.3126 13.424 35.696H15.424ZM14.2682 31.1679C13.5392 29.8921 12.6307 28.7124 11.5471 27.6289L10.1329 29.0431C11.0973 30.0076 11.8954 31.0466 12.5318 32.1601L14.2682 31.1679ZM11.5614 27.6435C10.5136 26.552 9.3805 25.4845 8.16279 24.4407L6.86121 25.9593C8.03283 26.9635 9.11843 27.9867 10.1186 29.0285L11.5614 27.6435ZM8.19141 24.4662C7.07256 23.4303 6.01487 22.3105 5.01839 21.1064L3.47761 22.3816C4.52913 23.6522 5.64744 24.8364 6.83259 25.9338L8.19141 24.4662ZM5.01839 21.1064C4.0588 19.9469 3.25365 18.6211 2.60586 17.1231L0.770143 17.9169C1.48769 19.5762 2.3892 21.0664 3.47761 22.3816L5.01839 21.1064ZM2.60586 17.1231C1.98873 15.696 1.664 13.9807 1.664 11.952H-0.336C-0.336 14.19 0.0219361 16.1867 0.770143 17.9169L2.60586 17.1231ZM23.4495 1.2V0.199997H22.4495V1.2H23.4495ZM45.2095 1.2H46.2095V0.199997H45.2095V1.2ZM45.2095 7.6V8.6H46.2095V7.6H45.2095ZM37.8495 7.6V6.6H36.8495V7.6H37.8495ZM37.8495 46V47H38.8495V46H37.8495ZM30.8095 46H29.8095V47H30.8095V46ZM30.8095 7.6H31.8095V6.6H30.8095V7.6ZM23.4495 7.6H22.4495V8.6H23.4495V7.6ZM23.4495 2.2H45.2095V0.199997H23.4495V2.2ZM44.2095 1.2V7.6H46.2095V1.2H44.2095ZM45.2095 6.6H37.8495V8.6H45.2095V6.6ZM36.8495 7.6V46H38.8495V7.6H36.8495ZM37.8495 45H30.8095V47H37.8495V45ZM31.8095 46V7.6H29.8095V46H31.8095ZM30.8095 6.6H23.4495V8.6H30.8095V6.6ZM24.4495 7.6V1.2H22.4495V7.6H24.4495ZM63.03 46L62.0685 46.2747L62.2757 47H63.03V46ZM62.774 45.168L61.8253 45.4842L61.8253 45.4842L62.774 45.168ZM62.518 44.208L61.5241 44.3184L61.5301 44.3722L61.5418 44.4249L62.518 44.208ZM62.39 42.736H61.39V42.7717L61.3925 42.8072L62.39 42.736ZM61.302 29.04L62.0639 28.3924L61.302 29.04ZM55.35 27.76V26.76H54.35V27.76H55.35ZM55.35 46V47H56.35V46H55.35ZM48.31 46H47.31V47H48.31V46ZM48.31 1.2V0.199997H47.31V1.2H48.31ZM66.87 3.76L66.1449 4.44881L66.154 4.4581L66.87 3.76ZM64.758 24.112L64.331 23.2078L62.2668 24.1825L64.3828 25.0389L64.758 24.112ZM68.406 27.696L67.4727 28.055L67.4783 28.0696L67.4844 28.0841L68.406 27.696ZM69.558 43.504L68.5629 43.6035L68.5635 43.6087L69.558 43.504ZM70.198 46V47H71.675L71.1265 45.6286L70.198 46ZM55.35 7.6V6.6H54.35V7.6H55.35ZM55.35 21.36H54.35V22.36H55.35V21.36ZM61.174 20.336L60.5096 19.5886L60.499 19.598L60.4886 19.6078L61.174 20.336ZM61.43 8.688L60.6356 9.29545L60.6466 9.30978L60.6581 9.32371L61.43 8.688ZM63.9915 45.7253C63.9028 45.4147 63.8132 45.1234 63.7227 44.8518L61.8253 45.4842C61.9054 45.7246 61.9865 45.988 62.0685 46.2747L63.9915 45.7253ZM63.7227 44.8518C63.6519 44.6394 63.5751 44.3552 63.4942 43.9911L61.5418 44.4249C61.6316 44.8288 61.7254 45.1846 61.8253 45.4842L63.7227 44.8518ZM63.5119 44.0976C63.4712 43.7316 63.4296 43.2553 63.3875 42.6648L61.3925 42.8072C61.4357 43.4114 61.4794 43.9164 61.5241 44.3184L63.5119 44.0976ZM63.39 42.736C63.39 42.7348 63.39 42.7337 63.39 42.7325C63.39 42.7313 63.39 42.7302 63.39 42.729C63.39 42.7278 63.39 42.7267 63.39 42.7255C63.39 42.7243 63.39 42.7231 63.39 42.722C63.39 42.7208 63.39 42.7196 63.39 42.7185C63.39 42.7173 63.39 42.7161 63.39 42.7149C63.39 42.7138 63.39 42.7126 63.39 42.7114C63.39 42.7102 63.39 42.7091 63.39 42.7079C63.39 42.7067 63.39 42.7055 63.39 42.7044C63.39 42.7032 63.39 42.702 63.39 42.7008C63.39 42.6997 63.39 42.6985 63.39 42.6973C63.39 42.6961 63.39 42.6949 63.39 42.6938C63.39 42.6926 63.39 42.6914 63.39 42.6902C63.39 42.689 63.39 42.6878 63.39 42.6867C63.39 42.6855 63.39 42.6843 63.39 42.6831C63.39 42.6819 63.39 42.6807 63.39 42.6796C63.39 42.6784 63.39 42.6772 63.39 42.676C63.39 42.6748 63.39 42.6736 63.39 42.6724C63.39 42.6713 63.39 42.6701 63.39 42.6689C63.39 42.6677 63.39 42.6665 63.39 42.6653C63.39 42.6641 63.39 42.6629 63.39 42.6617C63.39 42.6606 63.39 42.6594 63.39 42.6582C63.39 42.657 63.39 42.6558 63.39 42.6546C63.39 42.6534 63.39 42.6522 63.39 42.651C63.39 42.6498 63.39 42.6486 63.39 42.6474C63.39 42.6462 63.39 42.645 63.39 42.6438C63.39 42.6426 63.39 42.6415 63.39 42.6403C63.39 42.6391 63.39 42.6379 63.39 42.6367C63.39 42.6355 63.39 42.6343 63.39 42.6331C63.39 42.6319 63.39 42.6307 63.39 42.6295C63.39 42.6283 63.39 42.6271 63.39 42.6259C63.39 42.6247 63.39 42.6235 63.39 42.6222C63.39 42.621 63.39 42.6198 63.39 42.6186C63.39 42.6174 63.39 42.6162 63.39 42.615C63.39 42.6138 63.39 42.6126 63.39 42.6114C63.39 42.6102 63.39 42.609 63.39 42.6078C63.39 42.6066 63.39 42.6054 63.39 42.6042C63.39 42.603 63.39 42.6017 63.39 42.6005C63.39 42.5993 63.39 42.5981 63.39 42.5969C63.39 42.5957 63.39 42.5945 63.39 42.5933C63.39 42.5921 63.39 42.5908 63.39 42.5896C63.39 42.5884 63.39 42.5872 63.39 42.586C63.39 42.5848 63.39 42.5836 63.39 42.5823C63.39 42.5811 63.39 42.5799 63.39 42.5787C63.39 42.5775 63.39 42.5763 63.39 42.575C63.39 42.5738 63.39 42.5726 63.39 42.5714C63.39 42.5702 63.39 42.5689 63.39 42.5677C63.39 42.5665 63.39 42.5653 63.39 42.5641C63.39 42.5628 63.39 42.5616 63.39 42.5604C63.39 42.5592 63.39 42.558 63.39 42.5567C63.39 42.5555 63.39 42.5543 63.39 42.5531C63.39 42.5518 63.39 42.5506 63.39 42.5494C63.39 42.5482 63.39 42.5469 63.39 42.5457C63.39 42.5445 63.39 42.5432 63.39 42.542C63.39 42.5408 63.39 42.5396 63.39 42.5383C63.39 42.5371 63.39 42.5359 63.39 42.5346C63.39 42.5334 63.39 42.5322 63.39 42.5309C63.39 42.5297 63.39 42.5285 63.39 42.5273C63.39 42.526 63.39 42.5248 63.39 42.5236C63.39 42.5223 63.39 42.5211 63.39 42.5198C63.39 42.5186 63.39 42.5174 63.39 42.5161C63.39 42.5149 63.39 42.5137 63.39 42.5124C63.39 42.5112 63.39 42.51 63.39 42.5087C63.39 42.5075 63.39 42.5062 63.39 42.505C63.39 42.5038 63.39 42.5025 63.39 42.5013C63.39 42.5 63.39 42.4988 63.39 42.4976C63.39 42.4963 63.39 42.4951 63.39 42.4938C63.39 42.4926 63.39 42.4913 63.39 42.4901C63.39 42.4889 63.39 42.4876 63.39 42.4864C63.39 42.4851 63.39 42.4839 63.39 42.4826C63.39 42.4814 63.39 42.4801 63.39 42.4789C63.39 42.4776 63.39 42.4764 63.39 42.4751C63.39 42.4739 63.39 42.4726 63.39 42.4714C63.39 42.4701 63.39 42.4689 63.39 42.4676C63.39 42.4664 63.39 42.4651 63.39 42.4639C63.39 42.4626 63.39 42.4614 63.39 42.4601C63.39 42.4589 63.39 42.4576 63.39 42.4564C63.39 42.4551 63.39 42.4539 63.39 42.4526C63.39 42.4513 63.39 42.4501 63.39 42.4488C63.39 42.4476 63.39 42.4463 63.39 42.4451C63.39 42.4438 63.39 42.4425 63.39 42.4413C63.39 42.44 63.39 42.4388 63.39 42.4375C63.39 42.4362 63.39 42.435 63.39 42.4337C63.39 42.4325 63.39 42.4312 63.39 42.4299C63.39 42.4287 63.39 42.4274 63.39 42.4262C63.39 42.4249 63.39 42.4236 63.39 42.4224C63.39 42.4211 63.39 42.4198 63.39 42.4186C63.39 42.4173 63.39 42.416 63.39 42.4148C63.39 42.4135 63.39 42.4122 63.39 42.411C63.39 42.4097 63.39 42.4084 63.39 42.4072C63.39 42.4059 63.39 42.4046 63.39 42.4033C63.39 42.4021 63.39 42.4008 63.39 42.3995C63.39 42.3983 63.39 42.397 63.39 42.3957C63.39 42.3944 63.39 42.3932 63.39 42.3919C63.39 42.3906 63.39 42.3894 63.39 42.3881C63.39 42.3868 63.39 42.3855 63.39 42.3842C63.39 42.383 63.39 42.3817 63.39 42.3804C63.39 42.3791 63.39 42.3779 63.39 42.3766C63.39 42.3753 63.39 42.374 63.39 42.3728C63.39 42.3715 63.39 42.3702 63.39 42.3689C63.39 42.3676 63.39 42.3663 63.39 42.3651C63.39 42.3638 63.39 42.3625 63.39 42.3612C63.39 42.3599 63.39 42.3587 63.39 42.3574C63.39 42.3561 63.39 42.3548 63.39 42.3535C63.39 42.3522 63.39 42.3509 63.39 42.3497C63.39 42.3484 63.39 42.3471 63.39 42.3458C63.39 42.3445 63.39 42.3432 63.39 42.3419C63.39 42.3406 63.39 42.3394 63.39 42.3381C63.39 42.3368 63.39 42.3355 63.39 42.3342C63.39 42.3329 63.39 42.3316 63.39 42.3303C63.39 42.329 63.39 42.3277 63.39 42.3264C63.39 42.3252 63.39 42.3239 63.39 42.3226C63.39 42.3213 63.39 42.32 63.39 42.3187C63.39 42.3174 63.39 42.3161 63.39 42.3148C63.39 42.3135 63.39 42.3122 63.39 42.3109C63.39 42.3096 63.39 42.3083 63.39 42.307C63.39 42.3057 63.39 42.3044 63.39 42.3031C63.39 42.3018 63.39 42.3005 63.39 42.2992C63.39 42.2979 63.39 42.2966 63.39 42.2953C63.39 42.294 63.39 42.2927 63.39 42.2914C63.39 42.2901 63.39 42.2888 63.39 42.2875C63.39 42.2862 63.39 42.2849 63.39 42.2836C63.39 42.2823 63.39 42.281 63.39 42.2796C63.39 42.2783 63.39 42.277 63.39 42.2757C63.39 42.2744 63.39 42.2731 63.39 42.2718C63.39 42.2705 63.39 42.2692 63.39 42.2679C63.39 42.2666 63.39 42.2652 63.39 42.2639C63.39 42.2626 63.39 42.2613 63.39 42.26C63.39 42.2587 63.39 42.2574 63.39 42.2561C63.39 42.2547 63.39 42.2534 63.39 42.2521C63.39 42.2508 63.39 42.2495 63.39 42.2482C63.39 42.2469 63.39 42.2455 63.39 42.2442C63.39 42.2429 63.39 42.2416 63.39 42.2403C63.39 42.239 63.39 42.2376 63.39 42.2363C63.39 42.235 63.39 42.2337 63.39 42.2324C63.39 42.231 63.39 42.2297 63.39 42.2284C63.39 42.2271 63.39 42.2257 63.39 42.2244C63.39 42.2231 63.39 42.2218 63.39 42.2205C63.39 42.2191 63.39 42.2178 63.39 42.2165C63.39 42.2152 63.39 42.2138 63.39 42.2125C63.39 42.2112 63.39 42.2099 63.39 42.2085C63.39 42.2072 63.39 42.2059 63.39 42.2045C63.39 42.2032 63.39 42.2019 63.39 42.2006C63.39 42.1992 63.39 42.1979 63.39 42.1966C63.39 42.1952 63.39 42.1939 63.39 42.1926C63.39 42.1912 63.39 42.1899 63.39 42.1886C63.39 42.1872 63.39 42.1859 63.39 42.1846C63.39 42.1832 63.39 42.1819 63.39 42.1806C63.39 42.1792 63.39 42.1779 63.39 42.1766C63.39 42.1752 63.39 42.1739 63.39 42.1725C63.39 42.1712 63.39 42.1699 63.39 42.1685C63.39 42.1672 63.39 42.1659 63.39 42.1645C63.39 42.1632 63.39 42.1618 63.39 42.1605C63.39 42.1592 63.39 42.1578 63.39 42.1565C63.39 42.1551 63.39 42.1538 63.39 42.1524C63.39 42.1511 63.39 42.1498 63.39 42.1484C63.39 42.1471 63.39 42.1457 63.39 42.1444C63.39 42.143 63.39 42.1417 63.39 42.1403C63.39 42.139 63.39 42.1376 63.39 42.1363C63.39 42.1349 63.39 42.1336 63.39 42.1322C63.39 42.1309 63.39 42.1296 63.39 42.1282C63.39 42.1269 63.39 42.1255 63.39 42.1241C63.39 42.1228 63.39 42.1214 63.39 42.1201C63.39 42.1187 63.39 42.1174 63.39 42.116C63.39 42.1147 63.39 42.1133 63.39 42.112C63.39 42.1106 63.39 42.1093 63.39 42.1079C63.39 42.1066 63.39 42.1052 63.39 42.1038C63.39 42.1025 63.39 42.1011 63.39 42.0998C63.39 42.0984 63.39 42.097 63.39 42.0957C63.39 42.0943 63.39 42.093 63.39 42.0916C63.39 42.0902 63.39 42.0889 63.39 42.0875C63.39 42.0862 63.39 42.0848 63.39 42.0834C63.39 42.0821 63.39 42.0807 63.39 42.0794C63.39 42.078 63.39 42.0766 63.39 42.0753C63.39 42.0739 63.39 42.0725 63.39 42.0712C63.39 42.0698 63.39 42.0684 63.39 42.0671C63.39 42.0657 63.39 42.0643 63.39 42.063C63.39 42.0616 63.39 42.0602 63.39 42.0589C63.39 42.0575 63.39 42.0561 63.39 42.0547C63.39 42.0534 63.39 42.052 63.39 42.0506C63.39 42.0493 63.39 42.0479 63.39 42.0465C63.39 42.0451 63.39 42.0438 63.39 42.0424C63.39 42.041 63.39 42.0396 63.39 42.0383C63.39 42.0369 63.39 42.0355 63.39 42.0341C63.39 42.0328 63.39 42.0314 63.39 42.03C63.39 42.0286 63.39 42.0273 63.39 42.0259C63.39 42.0245 63.39 42.0231 63.39 42.0217C63.39 42.0204 63.39 42.019 63.39 42.0176C63.39 42.0162 63.39 42.0148 63.39 42.0135C63.39 42.0121 63.39 42.0107 63.39 42.0093C63.39 42.0079 63.39 42.0065 63.39 42.0052C63.39 42.0038 63.39 42.0024 63.39 42.001C63.39 41.9996 63.39 41.9982 63.39 41.9968C63.39 41.9955 63.39 41.9941 63.39 41.9927C63.39 41.9913 63.39 41.9899 63.39 41.9885C63.39 41.9871 63.39 41.9857 63.39 41.9843C63.39 41.983 63.39 41.9816 63.39 41.9802C63.39 41.9788 63.39 41.9774 63.39 41.976C63.39 41.9746 63.39 41.9732 63.39 41.9718C63.39 41.9704 63.39 41.969 63.39 41.9676C63.39 41.9662 63.39 41.9649 63.39 41.9635C63.39 41.9621 63.39 41.9607 63.39 41.9593C63.39 41.9579 63.39 41.9565 63.39 41.9551C63.39 41.9537 63.39 41.9523 63.39 41.9509C63.39 41.9495 63.39 41.9481 63.39 41.9467C63.39 41.9453 63.39 41.9439 63.39 41.9425C63.39 41.9411 63.39 41.9397 63.39 41.9383C63.39 41.9369 63.39 41.9355 63.39 41.9341C63.39 41.9327 63.39 41.9313 63.39 41.9298C63.39 41.9284 63.39 41.927 63.39 41.9256C63.39 41.9242 63.39 41.9228 63.39 41.9214C63.39 41.92 63.39 41.9186 63.39 41.9172C63.39 41.9158 63.39 41.9144 63.39 41.913C63.39 41.9116 63.39 41.9101 63.39 41.9087C63.39 41.9073 63.39 41.9059 63.39 41.9045C63.39 41.9031 63.39 41.9017 63.39 41.9003C63.39 41.8989 63.39 41.8974 63.39 41.896C63.39 41.8946 63.39 41.8932 63.39 41.8918C63.39 41.8904 63.39 41.889 63.39 41.8875C63.39 41.8861 63.39 41.8847 63.39 41.8833C63.39 41.8819 63.39 41.8804 63.39 41.879C63.39 41.8776 63.39 41.8762 63.39 41.8748C63.39 41.8734 63.39 41.8719 63.39 41.8705C63.39 41.8691 63.39 41.8677 63.39 41.8662C63.39 41.8648 63.39 41.8634 63.39 41.862C63.39 41.8606 63.39 41.8591 63.39 41.8577C63.39 41.8563 63.39 41.8549 63.39 41.8534C63.39 41.852 63.39 41.8506 63.39 41.8492C63.39 41.8477 63.39 41.8463 63.39 41.8449C63.39 41.8435 63.39 41.842 63.39 41.8406C63.39 41.8392 63.39 41.8377 63.39 41.8363C63.39 41.8349 63.39 41.8334 63.39 41.832C63.39 41.8306 63.39 41.8292 63.39 41.8277C63.39 41.8263 63.39 41.8249 63.39 41.8234C63.39 41.822 63.39 41.8206 63.39 41.8191C63.39 41.8177 63.39 41.8163 63.39 41.8148C63.39 41.8134 63.39 41.8119 63.39 41.8105C63.39 41.8091 63.39 41.8076 63.39 41.8062C63.39 41.8048 63.39 41.8033 63.39 41.8019C63.39 41.8004 63.39 41.799 63.39 41.7976C63.39 41.7961 63.39 41.7947 63.39 41.7932C63.39 41.7918 63.39 41.7904 63.39 41.7889C63.39 41.7875 63.39 41.786 63.39 41.7846C63.39 41.7831 63.39 41.7817 63.39 41.7803C63.39 41.7788 63.39 41.7774 63.39 41.7759C63.39 41.7745 63.39 41.773 63.39 41.7716C63.39 41.7701 63.39 41.7687 63.39 41.7672C63.39 41.7658 63.39 41.7643 63.39 41.7629C63.39 41.7614 63.39 41.76 63.39 41.7585C63.39 41.7571 63.39 41.7556 63.39 41.7542C63.39 41.7527 63.39 41.7513 63.39 41.7498C63.39 41.7484 63.39 41.7469 63.39 41.7455C63.39 41.744 63.39 41.7426 63.39 41.7411C63.39 41.7397 63.39 41.7382 63.39 41.7367C63.39 41.7353 63.39 41.7338 63.39 41.7324C63.39 41.7309 63.39 41.7295 63.39 41.728C63.39 41.7265 63.39 41.7251 63.39 41.7236C63.39 41.7222 63.39 41.7207 63.39 41.7192C63.39 41.7178 63.39 41.7163 63.39 41.7149C63.39 41.7134 63.39 41.7119 63.39 41.7105C63.39 41.709 63.39 41.7075 63.39 41.7061C63.39 41.7046 63.39 41.7032 63.39 41.7017C63.39 41.7002 63.39 41.6988 63.39 41.6973C63.39 41.6958 63.39 41.6944 63.39 41.6929C63.39 41.6914 63.39 41.69 63.39 41.6885C63.39 41.687 63.39 41.6855 63.39 41.6841C63.39 41.6826 63.39 41.6811 63.39 41.6797C63.39 41.6782 63.39 41.6767 63.39 41.6753C63.39 41.6738 63.39 41.6723 63.39 41.6708C63.39 41.6694 63.39 41.6679 63.39 41.6664C63.39 41.6649 63.39 41.6635 63.39 41.662C63.39 41.6605 63.39 41.659 63.39 41.6576C63.39 41.6561 63.39 41.6546 63.39 41.6531C63.39 41.6517 63.39 41.6502 63.39 41.6487C63.39 41.6472 63.39 41.6457 63.39 41.6443C63.39 41.6428 63.39 41.6413 63.39 41.6398C63.39 41.6383 63.39 41.6369 63.39 41.6354C63.39 41.6339 63.39 41.6324 63.39 41.6309C63.39 41.6294 63.39 41.628 63.39 41.6265C63.39 41.625 63.39 41.6235 63.39 41.622C63.39 41.6205 63.39 41.619 63.39 41.6176C63.39 41.6161 63.39 41.6146 63.39 41.6131C63.39 41.6116 63.39 41.6101 63.39 41.6086C63.39 41.6071 63.39 41.6057 63.39 41.6042C63.39 41.6027 63.39 41.6012 63.39 41.5997C63.39 41.5982 63.39 41.5967 63.39 41.5952C63.39 41.5937 63.39 41.5922 63.39 41.5907C63.39 41.5892 63.39 41.5877 63.39 41.5862C63.39 41.5848 63.39 41.5833 63.39 41.5818C63.39 41.5803 63.39 41.5788 63.39 41.5773C63.39 41.5758 63.39 41.5743 63.39 41.5728C63.39 41.5713 63.39 41.5698 63.39 41.5683C63.39 41.5668 63.39 41.5653 63.39 41.5638C63.39 41.5623 63.39 41.5608 63.39 41.5593C63.39 41.5578 63.39 41.5563 63.39 41.5548C63.39 41.5533 63.39 41.5518 63.39 41.5503C63.39 41.5488 63.39 41.5473 63.39 41.5458C63.39 41.5442 63.39 41.5427 63.39 41.5412C63.39 41.5397 63.39 41.5382 63.39 41.5367C63.39 41.5352 63.39 41.5337 63.39 41.5322C63.39 41.5307 63.39 41.5292 63.39 41.5277C63.39 41.5262 63.39 41.5246 63.39 41.5231C63.39 41.5216 63.39 41.5201 63.39 41.5186C63.39 41.5171 63.39 41.5156 63.39 41.5141C63.39 41.5125 63.39 41.511 63.39 41.5095C63.39 41.508 63.39 41.5065 63.39 41.505C63.39 41.5035 63.39 41.5019 63.39 41.5004C63.39 41.4989 63.39 41.4974 63.39 41.4959C63.39 41.4944 63.39 41.4928 63.39 41.4913C63.39 41.4898 63.39 41.4883 63.39 41.4868C63.39 41.4852 63.39 41.4837 63.39 41.4822C63.39 41.4807 63.39 41.4792 63.39 41.4776C63.39 41.4761 63.39 41.4746 63.39 41.4731C63.39 41.4715 63.39 41.47 63.39 41.4685C63.39 41.467 63.39 41.4655 63.39 41.4639C63.39 41.4624 63.39 41.4609 63.39 41.4593C63.39 41.4578 63.39 41.4563 63.39 41.4548C63.39 41.4532 63.39 41.4517 63.39 41.4502C63.39 41.4487 63.39 41.4471 63.39 41.4456C63.39 41.4441 63.39 41.4425 63.39 41.441C63.39 41.4395 63.39 41.4379 63.39 41.4364C63.39 41.4349 63.39 41.4333 63.39 41.4318C63.39 41.4303 63.39 41.4287 63.39 41.4272C63.39 41.4257 63.39 41.4241 63.39 41.4226C63.39 41.4211 63.39 41.4195 63.39 41.418C63.39 41.4165 63.39 41.4149 63.39 41.4134C63.39 41.4118 63.39 41.4103 63.39 41.4088C63.39 41.4072 63.39 41.4057 63.39 41.4041C63.39 41.4026 63.39 41.4011 63.39 41.3995C63.39 41.398 63.39 41.3964 63.39 41.3949C63.39 41.3933 63.39 41.3918 63.39 41.3903C63.39 41.3887 63.39 41.3872 63.39 41.3856C63.39 41.3841 63.39 41.3825 63.39 41.381C63.39 41.3794 63.39 41.3779 63.39 41.3764C63.39 41.3748 63.39 41.3733 63.39 41.3717C63.39 41.3702 63.39 41.3686 63.39 41.3671C63.39 41.3655 63.39 41.364 63.39 41.3624C63.39 41.3609 63.39 41.3593 63.39 41.3578C63.39 41.3562 63.39 41.3547 63.39 41.3531C63.39 41.3515 63.39 41.35 63.39 41.3484C63.39 41.3469 63.39 41.3453 63.39 41.3438C63.39 41.3422 63.39 41.3407 63.39 41.3391C63.39 41.3376 63.39 41.336 63.39 41.3344C63.39 41.3329 63.39 41.3313 63.39 41.3298C63.39 41.3282 63.39 41.3266 63.39 41.3251C63.39 41.3235 63.39 41.322 63.39 41.3204C63.39 41.3188 63.39 41.3173 63.39 41.3157C63.39 41.3142 63.39 41.3126 63.39 41.311C63.39 41.3095 63.39 41.3079 63.39 41.3063C63.39 41.3048 63.39 41.3032 63.39 41.3016C63.39 41.3001 63.39 41.2985 63.39 41.297C63.39 41.2954 63.39 41.2938 63.39 41.2922C63.39 41.2907 63.39 41.2891 63.39 41.2875C63.39 41.286 63.39 41.2844 63.39 41.2828C63.39 41.2813 63.39 41.2797 63.39 41.2781C63.39 41.2766 63.39 41.275 63.39 41.2734C63.39 41.2718 63.39 41.2703 63.39 41.2687C63.39 41.2671 63.39 41.2655 63.39 41.264C63.39 41.2624 63.39 41.2608 63.39 41.2592C63.39 41.2577 63.39 41.2561 63.39 41.2545C63.39 41.2529 63.39 41.2514 63.39 41.2498C63.39 41.2482 63.39 41.2466 63.39 41.245C63.39 41.2435 63.39 41.2419 63.39 41.2403C63.39 41.2387 63.39 41.2371 63.39 41.2356C63.39 41.234 63.39 41.2324 63.39 41.2308C63.39 41.2292 63.39 41.2277 63.39 41.2261C63.39 41.2245 63.39 41.2229 63.39 41.2213C63.39 41.2197 63.39 41.2181 63.39 41.2166C63.39 41.215 63.39 41.2134 63.39 41.2118C63.39 41.2102 63.39 41.2086 63.39 41.207C63.39 41.2055 63.39 41.2039 63.39 41.2023C63.39 41.2007 63.39 41.1991 63.39 41.1975C63.39 41.1959 63.39 41.1943 63.39 41.1927C63.39 41.1911 63.39 41.1895 63.39 41.188C63.39 41.1864 63.39 41.1848 63.39 41.1832C63.39 41.1816 63.39 41.18 63.39 41.1784C63.39 41.1768 63.39 41.1752 63.39 41.1736C63.39 41.172 63.39 41.1704 63.39 41.1688C63.39 41.1672 63.39 41.1656 63.39 41.164C63.39 41.1624 63.39 41.1608 63.39 41.1592C63.39 41.1576 63.39 41.156 63.39 41.1544C63.39 41.1528 63.39 41.1512 63.39 41.1496C63.39 41.148 63.39 41.1464 63.39 41.1448C63.39 41.1432 63.39 41.1416 63.39 41.14C63.39 41.1384 63.39 41.1368 63.39 41.1352C63.39 41.1336 63.39 41.132 63.39 41.1304C63.39 41.1288 63.39 41.1272 63.39 41.1255C63.39 41.1239 63.39 41.1223 63.39 41.1207C63.39 41.1191 63.39 41.1175 63.39 41.1159C63.39 41.1143 63.39 41.1127 63.39 41.1111C63.39 41.1095 63.39 41.1078 63.39 41.1062C63.39 41.1046 63.39 41.103 63.39 41.1014C63.39 41.0998 63.39 41.0982 63.39 41.0965C63.39 41.0949 63.39 41.0933 63.39 41.0917C63.39 41.0901 63.39 41.0885 63.39 41.0869C63.39 41.0852 63.39 41.0836 63.39 41.082C63.39 41.0804 63.39 41.0788 63.39 41.0771C63.39 41.0755 63.39 41.0739 63.39 41.0723C63.39 41.0707 63.39 41.069 63.39 41.0674C63.39 41.0658 63.39 41.0642 63.39 41.0626C63.39 41.0609 63.39 41.0593 63.39 41.0577C63.39 41.0561 63.39 41.0544 63.39 41.0528C63.39 41.0512 63.39 41.0496 63.39 41.0479C63.39 41.0463 63.39 41.0447 63.39 41.0431C63.39 41.0414 63.39 41.0398 63.39 41.0382C63.39 41.0366 63.39 41.0349 63.39 41.0333C63.39 41.0317 63.39 41.03 63.39 41.0284C63.39 41.0268 63.39 41.0251 63.39 41.0235C63.39 41.0219 63.39 41.0203 63.39 41.0186C63.39 41.017 63.39 41.0154 63.39 41.0137C63.39 41.0121 63.39 41.0105 63.39 41.0088C63.39 41.0072 63.39 41.0055 63.39 41.0039C63.39 41.0023 63.39 41.0006 63.39 40.999C63.39 40.9974 63.39 40.9957 63.39 40.9941C63.39 40.9924 63.39 40.9908 63.39 40.9892C63.39 40.9875 63.39 40.9859 63.39 40.9842C63.39 40.9826 63.39 40.981 63.39 40.9793C63.39 40.9777 63.39 40.976 63.39 40.9744C63.39 40.9728 63.39 40.9711 63.39 40.9695C63.39 40.9678 63.39 40.9662 63.39 40.9645C63.39 40.9629 63.39 40.9612 63.39 40.9596C63.39 40.958 63.39 40.9563 63.39 40.9547C63.39 40.953 63.39 40.9514 63.39 40.9497C63.39 40.9481 63.39 40.9464 63.39 40.9448C63.39 40.9431 63.39 40.9415 63.39 40.9398C63.39 40.9382 63.39 40.9365 63.39 40.9349C63.39 40.9332 63.39 40.9316 63.39 40.9299C63.39 40.9282 63.39 40.9266 63.39 40.9249C63.39 40.9233 63.39 40.9216 63.39 40.92C63.39 40.9183 63.39 40.9167 63.39 40.915C63.39 40.9134 63.39 40.9117 63.39 40.91C63.39 40.9084 63.39 40.9067 63.39 40.9051C63.39 40.9034 63.39 40.9017 63.39 40.9001C63.39 40.8984 63.39 40.8968 63.39 40.8951C63.39 40.8934 63.39 40.8918 63.39 40.8901C63.39 40.8885 63.39 40.8868 63.39 40.8851C63.39 40.8835 63.39 40.8818 63.39 40.8801C63.39 40.8785 63.39 40.8768 63.39 40.8751C63.39 40.8735 63.39 40.8718 63.39 40.8701C63.39 40.8685 63.39 40.8668 63.39 40.8651C63.39 40.8635 63.39 40.8618 63.39 40.8601C63.39 40.8585 63.39 40.8568 63.39 40.8551C63.39 40.8535 63.39 40.8518 63.39 40.8501C63.39 40.8484 63.39 40.8468 63.39 40.8451C63.39 40.8434 63.39 40.8418 63.39 40.8401C63.39 40.8384 63.39 40.8367 63.39 40.8351C63.39 40.8334 63.39 40.8317 63.39 40.83C63.39 40.8284 63.39 40.8267 63.39 40.825C63.39 40.8233 63.39 40.8216 63.39 40.82C63.39 40.8183 63.39 40.8166 63.39 40.8149C63.39 40.8133 63.39 40.8116 63.39 40.8099C63.39 40.8082 63.39 40.8065 63.39 40.8048C63.39 40.8032 63.39 40.8015 63.39 40.7998C63.39 40.7981 63.39 40.7964 63.39 40.7948C63.39 40.7931 63.39 40.7914 63.39 40.7897C63.39 40.788 63.39 40.7863 63.39 40.7846C63.39 40.783 63.39 40.7813 63.39 40.7796C63.39 40.7779 63.39 40.7762 63.39 40.7745C63.39 40.7728 63.39 40.7711 63.39 40.7694C63.39 40.7678 63.39 40.7661 63.39 40.7644C63.39 40.7627 63.39 40.761 63.39 40.7593C63.39 40.7576 63.39 40.7559 63.39 40.7542C63.39 40.7525 63.39 40.7508 63.39 40.7491C63.39 40.7475 63.39 40.7458 63.39 40.7441C63.39 40.7424 63.39 40.7407 63.39 40.739C63.39 40.7373 63.39 40.7356 63.39 40.7339C63.39 40.7322 63.39 40.7305 63.39 40.7288C63.39 40.7271 63.39 40.7254 63.39 40.7237C63.39 40.722 63.39 40.7203 63.39 40.7186C63.39 40.7169 63.39 40.7152 63.39 40.7135C63.39 40.7118 63.39 40.7101 63.39 40.7084C63.39 40.7067 63.39 40.705 63.39 40.7033C63.39 40.7016 63.39 40.6999 63.39 40.6982C63.39 40.6964 63.39 40.6947 63.39 40.693C63.39 40.6913 63.39 40.6896 63.39 40.6879C63.39 40.6862 63.39 40.6845 63.39 40.6828C63.39 40.6811 63.39 40.6794 63.39 40.6777C63.39 40.6759 63.39 40.6742 63.39 40.6725C63.39 40.6708 63.39 40.6691 63.39 40.6674C63.39 40.6657 63.39 40.664 63.39 40.6622C63.39 40.6605 63.39 40.6588 63.39 40.6571C63.39 40.6554 63.39 40.6537 63.39 40.652C63.39 40.6502 63.39 40.6485 63.39 40.6468C63.39 40.6451 63.39 40.6434 63.39 40.6417C63.39 40.6399 63.39 40.6382 63.39 40.6365C63.39 40.6348 63.39 40.6331 63.39 40.6313C63.39 40.6296 63.39 40.6279 63.39 40.6262C63.39 40.6245 63.39 40.6227 63.39 40.621C63.39 40.6193 63.39 40.6176 63.39 40.6158C63.39 40.6141 63.39 40.6124 63.39 40.6107C63.39 40.6089 63.39 40.6072 63.39 40.6055C63.39 40.6038 63.39 40.602 63.39 40.6003C63.39 40.5986 63.39 40.5969 63.39 40.5951C63.39 40.5934 63.39 40.5917 63.39 40.5899C63.39 40.5882 63.39 40.5865 63.39 40.5848C63.39 40.583 63.39 40.5813 63.39 40.5796C63.39 40.5778 63.39 40.5761 63.39 40.5744C63.39 40.5726 63.39 40.5709 63.39 40.5692C63.39 40.5674 63.39 40.5657 63.39 40.564C63.39 40.5622 63.39 40.5605 63.39 40.5588C63.39 40.557 63.39 40.5553 63.39 40.5535C63.39 40.5518 63.39 40.5501 63.39 40.5483C63.39 40.5466 63.39 40.5449 63.39 40.5431C63.39 40.5414 63.39 40.5396 63.39 40.5379C63.39 40.5361 63.39 40.5344 63.39 40.5327C63.39 40.5309 63.39 40.5292 63.39 40.5274C63.39 40.5257 63.39 40.524 63.39 40.5222C63.39 40.5205 63.39 40.5187 63.39 40.517C63.39 40.5152 63.39 40.5135 63.39 40.5117C63.39 40.51 63.39 40.5082 63.39 40.5065C63.39 40.5047 63.39 40.503 63.39 40.5012C63.39 40.4995 63.39 40.4977 63.39 40.496H61.39C61.39 40.4977 61.39 40.4995 61.39 40.5012C61.39 40.503 61.39 40.5047 61.39 40.5065C61.39 40.5082 61.39 40.51 61.39 40.5117C61.39 40.5135 61.39 40.5152 61.39 40.517C61.39 40.5187 61.39 40.5205 61.39 40.5222C61.39 40.524 61.39 40.5257 61.39 40.5274C61.39 40.5292 61.39 40.5309 61.39 40.5327C61.39 40.5344 61.39 40.5361 61.39 40.5379C61.39 40.5396 61.39 40.5414 61.39 40.5431C61.39 40.5449 61.39 40.5466 61.39 40.5483C61.39 40.5501 61.39 40.5518 61.39 40.5535C61.39 40.5553 61.39 40.557 61.39 40.5588C61.39 40.5605 61.39 40.5622 61.39 40.564C61.39 40.5657 61.39 40.5674 61.39 40.5692C61.39 40.5709 61.39 40.5726 61.39 40.5744C61.39 40.5761 61.39 40.5778 61.39 40.5796C61.39 40.5813 61.39 40.583 61.39 40.5848C61.39 40.5865 61.39 40.5882 61.39 40.5899C61.39 40.5917 61.39 40.5934 61.39 40.5951C61.39 40.5969 61.39 40.5986 61.39 40.6003C61.39 40.602 61.39 40.6038 61.39 40.6055C61.39 40.6072 61.39 40.6089 61.39 40.6107C61.39 40.6124 61.39 40.6141 61.39 40.6158C61.39 40.6176 61.39 40.6193 61.39 40.621C61.39 40.6227 61.39 40.6245 61.39 40.6262C61.39 40.6279 61.39 40.6296 61.39 40.6313C61.39 40.6331 61.39 40.6348 61.39 40.6365C61.39 40.6382 61.39 40.6399 61.39 40.6417C61.39 40.6434 61.39 40.6451 61.39 40.6468C61.39 40.6485 61.39 40.6502 61.39 40.652C61.39 40.6537 61.39 40.6554 61.39 40.6571C61.39 40.6588 61.39 40.6605 61.39 40.6622C61.39 40.664 61.39 40.6657 61.39 40.6674C61.39 40.6691 61.39 40.6708 61.39 40.6725C61.39 40.6742 61.39 40.6759 61.39 40.6777C61.39 40.6794 61.39 40.6811 61.39 40.6828C61.39 40.6845 61.39 40.6862 61.39 40.6879C61.39 40.6896 61.39 40.6913 61.39 40.693C61.39 40.6947 61.39 40.6964 61.39 40.6982C61.39 40.6999 61.39 40.7016 61.39 40.7033C61.39 40.705 61.39 40.7067 61.39 40.7084C61.39 40.7101 61.39 40.7118 61.39 40.7135C61.39 40.7152 61.39 40.7169 61.39 40.7186C61.39 40.7203 61.39 40.722 61.39 40.7237C61.39 40.7254 61.39 40.7271 61.39 40.7288C61.39 40.7305 61.39 40.7322 61.39 40.7339C61.39 40.7356 61.39 40.7373 61.39 40.739C61.39 40.7407 61.39 40.7424 61.39 40.7441C61.39 40.7458 61.39 40.7475 61.39 40.7491C61.39 40.7508 61.39 40.7525 61.39 40.7542C61.39 40.7559 61.39 40.7576 61.39 40.7593C61.39 40.761 61.39 40.7627 61.39 40.7644C61.39 40.7661 61.39 40.7678 61.39 40.7694C61.39 40.7711 61.39 40.7728 61.39 40.7745C61.39 40.7762 61.39 40.7779 61.39 40.7796C61.39 40.7813 61.39 40.783 61.39 40.7846C61.39 40.7863 61.39 40.788 61.39 40.7897C61.39 40.7914 61.39 40.7931 61.39 40.7948C61.39 40.7964 61.39 40.7981 61.39 40.7998C61.39 40.8015 61.39 40.8032 61.39 40.8048C61.39 40.8065 61.39 40.8082 61.39 40.8099C61.39 40.8116 61.39 40.8133 61.39 40.8149C61.39 40.8166 61.39 40.8183 61.39 40.82C61.39 40.8216 61.39 40.8233 61.39 40.825C61.39 40.8267 61.39 40.8284 61.39 40.83C61.39 40.8317 61.39 40.8334 61.39 40.8351C61.39 40.8367 61.39 40.8384 61.39 40.8401C61.39 40.8418 61.39 40.8434 61.39 40.8451C61.39 40.8468 61.39 40.8484 61.39 40.8501C61.39 40.8518 61.39 40.8535 61.39 40.8551C61.39 40.8568 61.39 40.8585 61.39 40.8601C61.39 40.8618 61.39 40.8635 61.39 40.8651C61.39 40.8668 61.39 40.8685 61.39 40.8701C61.39 40.8718 61.39 40.8735 61.39 40.8751C61.39 40.8768 61.39 40.8785 61.39 40.8801C61.39 40.8818 61.39 40.8835 61.39 40.8851C61.39 40.8868 61.39 40.8885 61.39 40.8901C61.39 40.8918 61.39 40.8934 61.39 40.8951C61.39 40.8968 61.39 40.8984 61.39 40.9001C61.39 40.9017 61.39 40.9034 61.39 40.9051C61.39 40.9067 61.39 40.9084 61.39 40.91C61.39 40.9117 61.39 40.9134 61.39 40.915C61.39 40.9167 61.39 40.9183 61.39 40.92C61.39 40.9216 61.39 40.9233 61.39 40.9249C61.39 40.9266 61.39 40.9282 61.39 40.9299C61.39 40.9316 61.39 40.9332 61.39 40.9349C61.39 40.9365 61.39 40.9382 61.39 40.9398C61.39 40.9415 61.39 40.9431 61.39 40.9448C61.39 40.9464 61.39 40.9481 61.39 40.9497C61.39 40.9514 61.39 40.953 61.39 40.9547C61.39 40.9563 61.39 40.958 61.39 40.9596C61.39 40.9612 61.39 40.9629 61.39 40.9645C61.39 40.9662 61.39 40.9678 61.39 40.9695C61.39 40.9711 61.39 40.9728 61.39 40.9744C61.39 40.976 61.39 40.9777 61.39 40.9793C61.39 40.981 61.39 40.9826 61.39 40.9842C61.39 40.9859 61.39 40.9875 61.39 40.9892C61.39 40.9908 61.39 40.9924 61.39 40.9941C61.39 40.9957 61.39 40.9974 61.39 40.999C61.39 41.0006 61.39 41.0023 61.39 41.0039C61.39 41.0055 61.39 41.0072 61.39 41.0088C61.39 41.0105 61.39 41.0121 61.39 41.0137C61.39 41.0154 61.39 41.017 61.39 41.0186C61.39 41.0203 61.39 41.0219 61.39 41.0235C61.39 41.0251 61.39 41.0268 61.39 41.0284C61.39 41.03 61.39 41.0317 61.39 41.0333C61.39 41.0349 61.39 41.0366 61.39 41.0382C61.39 41.0398 61.39 41.0414 61.39 41.0431C61.39 41.0447 61.39 41.0463 61.39 41.0479C61.39 41.0496 61.39 41.0512 61.39 41.0528C61.39 41.0544 61.39 41.0561 61.39 41.0577C61.39 41.0593 61.39 41.0609 61.39 41.0626C61.39 41.0642 61.39 41.0658 61.39 41.0674C61.39 41.069 61.39 41.0707 61.39 41.0723C61.39 41.0739 61.39 41.0755 61.39 41.0771C61.39 41.0788 61.39 41.0804 61.39 41.082C61.39 41.0836 61.39 41.0852 61.39 41.0869C61.39 41.0885 61.39 41.0901 61.39 41.0917C61.39 41.0933 61.39 41.0949 61.39 41.0965C61.39 41.0982 61.39 41.0998 61.39 41.1014C61.39 41.103 61.39 41.1046 61.39 41.1062C61.39 41.1078 61.39 41.1095 61.39 41.1111C61.39 41.1127 61.39 41.1143 61.39 41.1159C61.39 41.1175 61.39 41.1191 61.39 41.1207C61.39 41.1223 61.39 41.1239 61.39 41.1255C61.39 41.1272 61.39 41.1288 61.39 41.1304C61.39 41.132 61.39 41.1336 61.39 41.1352C61.39 41.1368 61.39 41.1384 61.39 41.14C61.39 41.1416 61.39 41.1432 61.39 41.1448C61.39 41.1464 61.39 41.148 61.39 41.1496C61.39 41.1512 61.39 41.1528 61.39 41.1544C61.39 41.156 61.39 41.1576 61.39 41.1592C61.39 41.1608 61.39 41.1624 61.39 41.164C61.39 41.1656 61.39 41.1672 61.39 41.1688C61.39 41.1704 61.39 41.172 61.39 41.1736C61.39 41.1752 61.39 41.1768 61.39 41.1784C61.39 41.18 61.39 41.1816 61.39 41.1832C61.39 41.1848 61.39 41.1864 61.39 41.188C61.39 41.1895 61.39 41.1911 61.39 41.1927C61.39 41.1943 61.39 41.1959 61.39 41.1975C61.39 41.1991 61.39 41.2007 61.39 41.2023C61.39 41.2039 61.39 41.2055 61.39 41.207C61.39 41.2086 61.39 41.2102 61.39 41.2118C61.39 41.2134 61.39 41.215 61.39 41.2166C61.39 41.2181 61.39 41.2197 61.39 41.2213C61.39 41.2229 61.39 41.2245 61.39 41.2261C61.39 41.2277 61.39 41.2292 61.39 41.2308C61.39 41.2324 61.39 41.234 61.39 41.2356C61.39 41.2371 61.39 41.2387 61.39 41.2403C61.39 41.2419 61.39 41.2435 61.39 41.245C61.39 41.2466 61.39 41.2482 61.39 41.2498C61.39 41.2514 61.39 41.2529 61.39 41.2545C61.39 41.2561 61.39 41.2577 61.39 41.2592C61.39 41.2608 61.39 41.2624 61.39 41.264C61.39 41.2655 61.39 41.2671 61.39 41.2687C61.39 41.2703 61.39 41.2718 61.39 41.2734C61.39 41.275 61.39 41.2766 61.39 41.2781C61.39 41.2797 61.39 41.2813 61.39 41.2828C61.39 41.2844 61.39 41.286 61.39 41.2875C61.39 41.2891 61.39 41.2907 61.39 41.2922C61.39 41.2938 61.39 41.2954 61.39 41.297C61.39 41.2985 61.39 41.3001 61.39 41.3016C61.39 41.3032 61.39 41.3048 61.39 41.3063C61.39 41.3079 61.39 41.3095 61.39 41.311C61.39 41.3126 61.39 41.3142 61.39 41.3157C61.39 41.3173 61.39 41.3188 61.39 41.3204C61.39 41.322 61.39 41.3235 61.39 41.3251C61.39 41.3266 61.39 41.3282 61.39 41.3298C61.39 41.3313 61.39 41.3329 61.39 41.3344C61.39 41.336 61.39 41.3376 61.39 41.3391C61.39 41.3407 61.39 41.3422 61.39 41.3438C61.39 41.3453 61.39 41.3469 61.39 41.3484C61.39 41.35 61.39 41.3515 61.39 41.3531C61.39 41.3547 61.39 41.3562 61.39 41.3578C61.39 41.3593 61.39 41.3609 61.39 41.3624C61.39 41.364 61.39 41.3655 61.39 41.3671C61.39 41.3686 61.39 41.3702 61.39 41.3717C61.39 41.3733 61.39 41.3748 61.39 41.3764C61.39 41.3779 61.39 41.3794 61.39 41.381C61.39 41.3825 61.39 41.3841 61.39 41.3856C61.39 41.3872 61.39 41.3887 61.39 41.3903C61.39 41.3918 61.39 41.3933 61.39 41.3949C61.39 41.3964 61.39 41.398 61.39 41.3995C61.39 41.4011 61.39 41.4026 61.39 41.4041C61.39 41.4057 61.39 41.4072 61.39 41.4088C61.39 41.4103 61.39 41.4118 61.39 41.4134C61.39 41.4149 61.39 41.4165 61.39 41.418C61.39 41.4195 61.39 41.4211 61.39 41.4226C61.39 41.4241 61.39 41.4257 61.39 41.4272C61.39 41.4287 61.39 41.4303 61.39 41.4318C61.39 41.4333 61.39 41.4349 61.39 41.4364C61.39 41.4379 61.39 41.4395 61.39 41.441C61.39 41.4425 61.39 41.4441 61.39 41.4456C61.39 41.4471 61.39 41.4487 61.39 41.4502C61.39 41.4517 61.39 41.4532 61.39 41.4548C61.39 41.4563 61.39 41.4578 61.39 41.4593C61.39 41.4609 61.39 41.4624 61.39 41.4639C61.39 41.4655 61.39 41.467 61.39 41.4685C61.39 41.47 61.39 41.4715 61.39 41.4731C61.39 41.4746 61.39 41.4761 61.39 41.4776C61.39 41.4792 61.39 41.4807 61.39 41.4822C61.39 41.4837 61.39 41.4852 61.39 41.4868C61.39 41.4883 61.39 41.4898 61.39 41.4913C61.39 41.4928 61.39 41.4944 61.39 41.4959C61.39 41.4974 61.39 41.4989 61.39 41.5004C61.39 41.5019 61.39 41.5035 61.39 41.505C61.39 41.5065 61.39 41.508 61.39 41.5095C61.39 41.511 61.39 41.5125 61.39 41.5141C61.39 41.5156 61.39 41.5171 61.39 41.5186C61.39 41.5201 61.39 41.5216 61.39 41.5231C61.39 41.5246 61.39 41.5262 61.39 41.5277C61.39 41.5292 61.39 41.5307 61.39 41.5322C61.39 41.5337 61.39 41.5352 61.39 41.5367C61.39 41.5382 61.39 41.5397 61.39 41.5412C61.39 41.5427 61.39 41.5442 61.39 41.5458C61.39 41.5473 61.39 41.5488 61.39 41.5503C61.39 41.5518 61.39 41.5533 61.39 41.5548C61.39 41.5563 61.39 41.5578 61.39 41.5593C61.39 41.5608 61.39 41.5623 61.39 41.5638C61.39 41.5653 61.39 41.5668 61.39 41.5683C61.39 41.5698 61.39 41.5713 61.39 41.5728C61.39 41.5743 61.39 41.5758 61.39 41.5773C61.39 41.5788 61.39 41.5803 61.39 41.5818C61.39 41.5833 61.39 41.5848 61.39 41.5862C61.39 41.5877 61.39 41.5892 61.39 41.5907C61.39 41.5922 61.39 41.5937 61.39 41.5952C61.39 41.5967 61.39 41.5982 61.39 41.5997C61.39 41.6012 61.39 41.6027 61.39 41.6042C61.39 41.6057 61.39 41.6071 61.39 41.6086C61.39 41.6101 61.39 41.6116 61.39 41.6131C61.39 41.6146 61.39 41.6161 61.39 41.6176C61.39 41.619 61.39 41.6205 61.39 41.622C61.39 41.6235 61.39 41.625 61.39 41.6265C61.39 41.628 61.39 41.6294 61.39 41.6309C61.39 41.6324 61.39 41.6339 61.39 41.6354C61.39 41.6369 61.39 41.6383 61.39 41.6398C61.39 41.6413 61.39 41.6428 61.39 41.6443C61.39 41.6457 61.39 41.6472 61.39 41.6487C61.39 41.6502 61.39 41.6517 61.39 41.6531C61.39 41.6546 61.39 41.6561 61.39 41.6576C61.39 41.659 61.39 41.6605 61.39 41.662C61.39 41.6635 61.39 41.6649 61.39 41.6664C61.39 41.6679 61.39 41.6694 61.39 41.6708C61.39 41.6723 61.39 41.6738 61.39 41.6753C61.39 41.6767 61.39 41.6782 61.39 41.6797C61.39 41.6811 61.39 41.6826 61.39 41.6841C61.39 41.6855 61.39 41.687 61.39 41.6885C61.39 41.69 61.39 41.6914 61.39 41.6929C61.39 41.6944 61.39 41.6958 61.39 41.6973C61.39 41.6988 61.39 41.7002 61.39 41.7017C61.39 41.7032 61.39 41.7046 61.39 41.7061C61.39 41.7075 61.39 41.709 61.39 41.7105C61.39 41.7119 61.39 41.7134 61.39 41.7149C61.39 41.7163 61.39 41.7178 61.39 41.7192C61.39 41.7207 61.39 41.7222 61.39 41.7236C61.39 41.7251 61.39 41.7265 61.39 41.728C61.39 41.7295 61.39 41.7309 61.39 41.7324C61.39 41.7338 61.39 41.7353 61.39 41.7367C61.39 41.7382 61.39 41.7397 61.39 41.7411C61.39 41.7426 61.39 41.744 61.39 41.7455C61.39 41.7469 61.39 41.7484 61.39 41.7498C61.39 41.7513 61.39 41.7527 61.39 41.7542C61.39 41.7556 61.39 41.7571 61.39 41.7585C61.39 41.76 61.39 41.7614 61.39 41.7629C61.39 41.7643 61.39 41.7658 61.39 41.7672C61.39 41.7687 61.39 41.7701 61.39 41.7716C61.39 41.773 61.39 41.7745 61.39 41.7759C61.39 41.7774 61.39 41.7788 61.39 41.7803C61.39 41.7817 61.39 41.7831 61.39 41.7846C61.39 41.786 61.39 41.7875 61.39 41.7889C61.39 41.7904 61.39 41.7918 61.39 41.7932C61.39 41.7947 61.39 41.7961 61.39 41.7976C61.39 41.799 61.39 41.8004 61.39 41.8019C61.39 41.8033 61.39 41.8048 61.39 41.8062C61.39 41.8076 61.39 41.8091 61.39 41.8105C61.39 41.8119 61.39 41.8134 61.39 41.8148C61.39 41.8163 61.39 41.8177 61.39 41.8191C61.39 41.8206 61.39 41.822 61.39 41.8234C61.39 41.8249 61.39 41.8263 61.39 41.8277C61.39 41.8292 61.39 41.8306 61.39 41.832C61.39 41.8334 61.39 41.8349 61.39 41.8363C61.39 41.8377 61.39 41.8392 61.39 41.8406C61.39 41.842 61.39 41.8435 61.39 41.8449C61.39 41.8463 61.39 41.8477 61.39 41.8492C61.39 41.8506 61.39 41.852 61.39 41.8534C61.39 41.8549 61.39 41.8563 61.39 41.8577C61.39 41.8591 61.39 41.8606 61.39 41.862C61.39 41.8634 61.39 41.8648 61.39 41.8662C61.39 41.8677 61.39 41.8691 61.39 41.8705C61.39 41.8719 61.39 41.8734 61.39 41.8748C61.39 41.8762 61.39 41.8776 61.39 41.879C61.39 41.8804 61.39 41.8819 61.39 41.8833C61.39 41.8847 61.39 41.8861 61.39 41.8875C61.39 41.889 61.39 41.8904 61.39 41.8918C61.39 41.8932 61.39 41.8946 61.39 41.896C61.39 41.8974 61.39 41.8989 61.39 41.9003C61.39 41.9017 61.39 41.9031 61.39 41.9045C61.39 41.9059 61.39 41.9073 61.39 41.9087C61.39 41.9101 61.39 41.9116 61.39 41.913C61.39 41.9144 61.39 41.9158 61.39 41.9172C61.39 41.9186 61.39 41.92 61.39 41.9214C61.39 41.9228 61.39 41.9242 61.39 41.9256C61.39 41.927 61.39 41.9284 61.39 41.9298C61.39 41.9313 61.39 41.9327 61.39 41.9341C61.39 41.9355 61.39 41.9369 61.39 41.9383C61.39 41.9397 61.39 41.9411 61.39 41.9425C61.39 41.9439 61.39 41.9453 61.39 41.9467C61.39 41.9481 61.39 41.9495 61.39 41.9509C61.39 41.9523 61.39 41.9537 61.39 41.9551C61.39 41.9565 61.39 41.9579 61.39 41.9593C61.39 41.9607 61.39 41.9621 61.39 41.9635C61.39 41.9649 61.39 41.9662 61.39 41.9676C61.39 41.969 61.39 41.9704 61.39 41.9718C61.39 41.9732 61.39 41.9746 61.39 41.976C61.39 41.9774 61.39 41.9788 61.39 41.9802C61.39 41.9816 61.39 41.983 61.39 41.9843C61.39 41.9857 61.39 41.9871 61.39 41.9885C61.39 41.9899 61.39 41.9913 61.39 41.9927C61.39 41.9941 61.39 41.9955 61.39 41.9968C61.39 41.9982 61.39 41.9996 61.39 42.001C61.39 42.0024 61.39 42.0038 61.39 42.0052C61.39 42.0065 61.39 42.0079 61.39 42.0093C61.39 42.0107 61.39 42.0121 61.39 42.0135C61.39 42.0148 61.39 42.0162 61.39 42.0176C61.39 42.019 61.39 42.0204 61.39 42.0217C61.39 42.0231 61.39 42.0245 61.39 42.0259C61.39 42.0273 61.39 42.0286 61.39 42.03C61.39 42.0314 61.39 42.0328 61.39 42.0341C61.39 42.0355 61.39 42.0369 61.39 42.0383C61.39 42.0396 61.39 42.041 61.39 42.0424C61.39 42.0438 61.39 42.0451 61.39 42.0465C61.39 42.0479 61.39 42.0493 61.39 42.0506C61.39 42.052 61.39 42.0534 61.39 42.0547C61.39 42.0561 61.39 42.0575 61.39 42.0589C61.39 42.0602 61.39 42.0616 61.39 42.063C61.39 42.0643 61.39 42.0657 61.39 42.0671C61.39 42.0684 61.39 42.0698 61.39 42.0712C61.39 42.0725 61.39 42.0739 61.39 42.0753C61.39 42.0766 61.39 42.078 61.39 42.0794C61.39 42.0807 61.39 42.0821 61.39 42.0834C61.39 42.0848 61.39 42.0862 61.39 42.0875C61.39 42.0889 61.39 42.0902 61.39 42.0916C61.39 42.093 61.39 42.0943 61.39 42.0957C61.39 42.097 61.39 42.0984 61.39 42.0998C61.39 42.1011 61.39 42.1025 61.39 42.1038C61.39 42.1052 61.39 42.1066 61.39 42.1079C61.39 42.1093 61.39 42.1106 61.39 42.112C61.39 42.1133 61.39 42.1147 61.39 42.116C61.39 42.1174 61.39 42.1187 61.39 42.1201C61.39 42.1214 61.39 42.1228 61.39 42.1241C61.39 42.1255 61.39 42.1269 61.39 42.1282C61.39 42.1296 61.39 42.1309 61.39 42.1322C61.39 42.1336 61.39 42.1349 61.39 42.1363C61.39 42.1376 61.39 42.139 61.39 42.1403C61.39 42.1417 61.39 42.143 61.39 42.1444C61.39 42.1457 61.39 42.1471 61.39 42.1484C61.39 42.1498 61.39 42.1511 61.39 42.1524C61.39 42.1538 61.39 42.1551 61.39 42.1565C61.39 42.1578 61.39 42.1592 61.39 42.1605C61.39 42.1618 61.39 42.1632 61.39 42.1645C61.39 42.1659 61.39 42.1672 61.39 42.1685C61.39 42.1699 61.39 42.1712 61.39 42.1725C61.39 42.1739 61.39 42.1752 61.39 42.1766C61.39 42.1779 61.39 42.1792 61.39 42.1806C61.39 42.1819 61.39 42.1832 61.39 42.1846C61.39 42.1859 61.39 42.1872 61.39 42.1886C61.39 42.1899 61.39 42.1912 61.39 42.1926C61.39 42.1939 61.39 42.1952 61.39 42.1966C61.39 42.1979 61.39 42.1992 61.39 42.2006C61.39 42.2019 61.39 42.2032 61.39 42.2045C61.39 42.2059 61.39 42.2072 61.39 42.2085C61.39 42.2099 61.39 42.2112 61.39 42.2125C61.39 42.2138 61.39 42.2152 61.39 42.2165C61.39 42.2178 61.39 42.2191 61.39 42.2205C61.39 42.2218 61.39 42.2231 61.39 42.2244C61.39 42.2257 61.39 42.2271 61.39 42.2284C61.39 42.2297 61.39 42.231 61.39 42.2324C61.39 42.2337 61.39 42.235 61.39 42.2363C61.39 42.2376 61.39 42.239 61.39 42.2403C61.39 42.2416 61.39 42.2429 61.39 42.2442C61.39 42.2455 61.39 42.2469 61.39 42.2482C61.39 42.2495 61.39 42.2508 61.39 42.2521C61.39 42.2534 61.39 42.2547 61.39 42.2561C61.39 42.2574 61.39 42.2587 61.39 42.26C61.39 42.2613 61.39 42.2626 61.39 42.2639C61.39 42.2652 61.39 42.2666 61.39 42.2679C61.39 42.2692 61.39 42.2705 61.39 42.2718C61.39 42.2731 61.39 42.2744 61.39 42.2757C61.39 42.277 61.39 42.2783 61.39 42.2796C61.39 42.281 61.39 42.2823 61.39 42.2836C61.39 42.2849 61.39 42.2862 61.39 42.2875C61.39 42.2888 61.39 42.2901 61.39 42.2914C61.39 42.2927 61.39 42.294 61.39 42.2953C61.39 42.2966 61.39 42.2979 61.39 42.2992C61.39 42.3005 61.39 42.3018 61.39 42.3031C61.39 42.3044 61.39 42.3057 61.39 42.307C61.39 42.3083 61.39 42.3096 61.39 42.3109C61.39 42.3122 61.39 42.3135 61.39 42.3148C61.39 42.3161 61.39 42.3174 61.39 42.3187C61.39 42.32 61.39 42.3213 61.39 42.3226C61.39 42.3239 61.39 42.3252 61.39 42.3264C61.39 42.3277 61.39 42.329 61.39 42.3303C61.39 42.3316 61.39 42.3329 61.39 42.3342C61.39 42.3355 61.39 42.3368 61.39 42.3381C61.39 42.3394 61.39 42.3406 61.39 42.3419C61.39 42.3432 61.39 42.3445 61.39 42.3458C61.39 42.3471 61.39 42.3484 61.39 42.3497C61.39 42.3509 61.39 42.3522 61.39 42.3535C61.39 42.3548 61.39 42.3561 61.39 42.3574C61.39 42.3587 61.39 42.3599 61.39 42.3612C61.39 42.3625 61.39 42.3638 61.39 42.3651C61.39 42.3663 61.39 42.3676 61.39 42.3689C61.39 42.3702 61.39 42.3715 61.39 42.3728C61.39 42.374 61.39 42.3753 61.39 42.3766C61.39 42.3779 61.39 42.3791 61.39 42.3804C61.39 42.3817 61.39 42.383 61.39 42.3842C61.39 42.3855 61.39 42.3868 61.39 42.3881C61.39 42.3894 61.39 42.3906 61.39 42.3919C61.39 42.3932 61.39 42.3944 61.39 42.3957C61.39 42.397 61.39 42.3983 61.39 42.3995C61.39 42.4008 61.39 42.4021 61.39 42.4033C61.39 42.4046 61.39 42.4059 61.39 42.4072C61.39 42.4084 61.39 42.4097 61.39 42.411C61.39 42.4122 61.39 42.4135 61.39 42.4148C61.39 42.416 61.39 42.4173 61.39 42.4186C61.39 42.4198 61.39 42.4211 61.39 42.4224C61.39 42.4236 61.39 42.4249 61.39 42.4262C61.39 42.4274 61.39 42.4287 61.39 42.4299C61.39 42.4312 61.39 42.4325 61.39 42.4337C61.39 42.435 61.39 42.4362 61.39 42.4375C61.39 42.4388 61.39 42.44 61.39 42.4413C61.39 42.4425 61.39 42.4438 61.39 42.4451C61.39 42.4463 61.39 42.4476 61.39 42.4488C61.39 42.4501 61.39 42.4513 61.39 42.4526C61.39 42.4539 61.39 42.4551 61.39 42.4564C61.39 42.4576 61.39 42.4589 61.39 42.4601C61.39 42.4614 61.39 42.4626 61.39 42.4639C61.39 42.4651 61.39 42.4664 61.39 42.4676C61.39 42.4689 61.39 42.4701 61.39 42.4714C61.39 42.4726 61.39 42.4739 61.39 42.4751C61.39 42.4764 61.39 42.4776 61.39 42.4789C61.39 42.4801 61.39 42.4814 61.39 42.4826C61.39 42.4839 61.39 42.4851 61.39 42.4864C61.39 42.4876 61.39 42.4889 61.39 42.4901C61.39 42.4913 61.39 42.4926 61.39 42.4938C61.39 42.4951 61.39 42.4963 61.39 42.4976C61.39 42.4988 61.39 42.5 61.39 42.5013C61.39 42.5025 61.39 42.5038 61.39 42.505C61.39 42.5062 61.39 42.5075 61.39 42.5087C61.39 42.51 61.39 42.5112 61.39 42.5124C61.39 42.5137 61.39 42.5149 61.39 42.5161C61.39 42.5174 61.39 42.5186 61.39 42.5198C61.39 42.5211 61.39 42.5223 61.39 42.5236C61.39 42.5248 61.39 42.526 61.39 42.5273C61.39 42.5285 61.39 42.5297 61.39 42.5309C61.39 42.5322 61.39 42.5334 61.39 42.5346C61.39 42.5359 61.39 42.5371 61.39 42.5383C61.39 42.5396 61.39 42.5408 61.39 42.542C61.39 42.5432 61.39 42.5445 61.39 42.5457C61.39 42.5469 61.39 42.5482 61.39 42.5494C61.39 42.5506 61.39 42.5518 61.39 42.5531C61.39 42.5543 61.39 42.5555 61.39 42.5567C61.39 42.558 61.39 42.5592 61.39 42.5604C61.39 42.5616 61.39 42.5628 61.39 42.5641C61.39 42.5653 61.39 42.5665 61.39 42.5677C61.39 42.5689 61.39 42.5702 61.39 42.5714C61.39 42.5726 61.39 42.5738 61.39 42.575C61.39 42.5763 61.39 42.5775 61.39 42.5787C61.39 42.5799 61.39 42.5811 61.39 42.5823C61.39 42.5836 61.39 42.5848 61.39 42.586C61.39 42.5872 61.39 42.5884 61.39 42.5896C61.39 42.5908 61.39 42.5921 61.39 42.5933C61.39 42.5945 61.39 42.5957 61.39 42.5969C61.39 42.5981 61.39 42.5993 61.39 42.6005C61.39 42.6017 61.39 42.603 61.39 42.6042C61.39 42.6054 61.39 42.6066 61.39 42.6078C61.39 42.609 61.39 42.6102 61.39 42.6114C61.39 42.6126 61.39 42.6138 61.39 42.615C61.39 42.6162 61.39 42.6174 61.39 42.6186C61.39 42.6198 61.39 42.621 61.39 42.6222C61.39 42.6235 61.39 42.6247 61.39 42.6259C61.39 42.6271 61.39 42.6283 61.39 42.6295C61.39 42.6307 61.39 42.6319 61.39 42.6331C61.39 42.6343 61.39 42.6355 61.39 42.6367C61.39 42.6379 61.39 42.6391 61.39 42.6403C61.39 42.6415 61.39 42.6426 61.39 42.6438C61.39 42.645 61.39 42.6462 61.39 42.6474C61.39 42.6486 61.39 42.6498 61.39 42.651C61.39 42.6522 61.39 42.6534 61.39 42.6546C61.39 42.6558 61.39 42.657 61.39 42.6582C61.39 42.6594 61.39 42.6606 61.39 42.6617C61.39 42.6629 61.39 42.6641 61.39 42.6653C61.39 42.6665 61.39 42.6677 61.39 42.6689C61.39 42.6701 61.39 42.6713 61.39 42.6724C61.39 42.6736 61.39 42.6748 61.39 42.676C61.39 42.6772 61.39 42.6784 61.39 42.6796C61.39 42.6807 61.39 42.6819 61.39 42.6831C61.39 42.6843 61.39 42.6855 61.39 42.6867C61.39 42.6878 61.39 42.689 61.39 42.6902C61.39 42.6914 61.39 42.6926 61.39 42.6938C61.39 42.6949 61.39 42.6961 61.39 42.6973C61.39 42.6985 61.39 42.6997 61.39 42.7008C61.39 42.702 61.39 42.7032 61.39 42.7044C61.39 42.7055 61.39 42.7067 61.39 42.7079C61.39 42.7091 61.39 42.7102 61.39 42.7114C61.39 42.7126 61.39 42.7138 61.39 42.7149C61.39 42.7161 61.39 42.7173 61.39 42.7185C61.39 42.7196 61.39 42.7208 61.39 42.722C61.39 42.7231 61.39 42.7243 61.39 42.7255C61.39 42.7267 61.39 42.7278 61.39 42.729C61.39 42.7302 61.39 42.7313 61.39 42.7325C61.39 42.7337 61.39 42.7348 61.39 42.736H63.39ZM63.39 40.496V33.456H61.39V40.496H63.39ZM63.39 33.456C63.39 31.3086 63.0293 29.528 62.0639 28.3924L60.5401 29.6876C61.0254 30.2586 61.39 31.4221 61.39 33.456H63.39ZM62.0639 28.3924C61.0757 27.2298 59.5616 26.76 57.782 26.76V28.76C59.2451 28.76 60.0776 29.1436 60.5401 29.6876L62.0639 28.3924ZM57.782 26.76H55.35V28.76H57.782V26.76ZM54.35 27.76V46H56.35V27.76H54.35ZM55.35 45H48.31V47H55.35V45ZM49.31 46V1.2H47.31V46H49.31ZM48.31 2.2H58.934V0.199997H48.31V2.2ZM58.934 2.2C62.4794 2.2 64.7956 3.0283 66.145 4.44875L67.595 3.07125C65.7018 1.07836 62.7273 0.199997 58.934 0.199997V2.2ZM66.154 4.4581C67.5679 5.90827 68.366 8.19176 68.366 11.504H70.366C70.366 7.90424 69.5001 5.02507 67.586 3.0619L66.154 4.4581ZM68.366 11.504V15.024H70.366V11.504H68.366ZM68.366 15.024C68.366 19.4071 66.9273 21.9817 64.331 23.2078L65.185 25.0162C68.7327 23.3409 70.366 19.8569 70.366 15.024H68.366ZM64.3828 25.0389C65.9423 25.6702 66.941 26.6728 67.4727 28.055L69.3393 27.337C68.591 25.3912 67.1577 24.0045 65.1332 23.1851L64.3828 25.0389ZM67.4844 28.0841C68.1012 29.5489 68.43 31.3925 68.43 33.648H70.43C70.43 31.2101 70.0762 29.0857 69.3276 27.3079L67.4844 28.0841ZM68.43 33.648V40.56H70.43V33.648H68.43ZM68.43 40.56C68.43 41.6935 68.4735 42.7092 68.563 43.6035L70.553 43.4045C70.4718 42.5922 70.43 41.6452 70.43 40.56H68.43ZM68.5635 43.6087C68.6596 44.5217 68.8983 45.4433 69.2695 46.3714L71.1265 45.6286C70.815 44.85 70.6271 44.1077 70.5525 43.3993L68.5635 43.6087ZM70.198 45H63.03V47H70.198V45ZM54.35 7.6V21.36H56.35V7.6H54.35ZM55.35 22.36H58.102V20.36H55.35V22.36ZM58.102 22.36C59.5938 22.36 60.8944 21.9724 61.8594 21.0642L60.4886 19.6078C60.003 20.0649 59.2556 20.36 58.102 20.36V22.36ZM61.8384 21.0834C62.9341 20.1095 63.326 18.5011 63.326 16.624H61.326C61.326 18.3309 60.95 19.1972 60.5096 19.5886L61.8384 21.0834ZM63.326 16.624V12.208H61.326V16.624H63.326ZM63.326 12.208C63.326 10.5073 63.0209 9.04681 62.2019 8.05229L60.6581 9.32371C61.0337 9.77985 61.326 10.6661 61.326 12.208H63.326ZM62.2244 8.08055C61.4184 7.02662 60.172 6.6 58.742 6.6V8.6C59.7867 8.6 60.3323 8.89871 60.6356 9.29545L62.2244 8.08055ZM58.742 6.6H55.35V8.6H58.742V6.6ZM81.1 20.08H80.1V21.08H81.1V20.08ZM90.764 20.08H91.764V19.08H90.764V20.08ZM90.764 26.48V27.48H91.764V26.48H90.764ZM81.1 26.48V25.48H80.1V26.48H81.1ZM81.1 39.6H80.1V40.6H81.1V39.6ZM93.26 39.6H94.26V38.6H93.26V39.6ZM93.26 46V47H94.26V46H93.26ZM74.06 46H73.06V47H74.06V46ZM74.06 1.2V0.199997H73.06V1.2H74.06ZM93.26 1.2H94.26V0.199997H93.26V1.2ZM93.26 7.6V8.6H94.26V7.6H93.26ZM81.1 7.6V6.6H80.1V7.6H81.1ZM81.1 21.08H90.764V19.08H81.1V21.08ZM89.764 20.08V26.48H91.764V20.08H89.764ZM90.764 25.48H81.1V27.48H90.764V25.48ZM80.1 26.48V39.6H82.1V26.48H80.1ZM81.1 40.6H93.26V38.6H81.1V40.6ZM92.26 39.6V46H94.26V39.6H92.26ZM93.26 45H74.06V47H93.26V45ZM75.06 46V1.2H73.06V46H75.06ZM74.06 2.2H93.26V0.199997H74.06V2.2ZM92.26 1.2V7.6H94.26V1.2H92.26ZM93.26 6.6H81.1V8.6H93.26V6.6ZM80.1 7.6V20.08H82.1V7.6H80.1ZM120.407 46V47H121.579L121.394 45.842L120.407 46ZM113.303 46L112.314 46.148L112.441 47H113.303V46ZM112.087 37.872L113.075 37.724L112.948 36.872H112.087V37.872ZM103.447 37.872V36.872H102.585L102.458 37.724L103.447 37.872ZM102.231 46V47H103.092L103.219 46.148L102.231 46ZM95.7665 46L94.7791 45.842L94.5938 47H95.7665V46ZM102.935 1.2V0.199997H102.082L101.947 1.04201L102.935 1.2ZM113.239 1.2L114.226 1.04201L114.091 0.199997H113.239V1.2ZM104.343 31.792L103.354 31.6439L103.182 32.792H104.343V31.792ZM111.127 31.792V32.792H112.287L112.115 31.6439L111.127 31.792ZM107.735 9.136L108.723 8.98793H106.746L107.735 9.136ZM120.407 45H113.303V47H120.407V45ZM114.291 45.852L113.075 37.724L111.098 38.02L112.314 46.148L114.291 45.852ZM112.087 36.872H103.447V38.872H112.087V36.872ZM102.458 37.724L101.242 45.852L103.219 46.148L104.435 38.02L102.458 37.724ZM102.231 45H95.7665V47H102.231V45ZM96.7539 46.158L103.922 1.35799L101.947 1.04201L94.7791 45.842L96.7539 46.158ZM102.935 2.2H113.239V0.199997H102.935V2.2ZM112.251 1.35799L119.419 46.158L121.394 45.842L114.226 1.04201L112.251 1.35799ZM104.343 32.792H111.127V30.792H104.343V32.792ZM112.115 31.6439L108.723 8.98793L106.746 9.28406L110.138 31.9401L112.115 31.6439ZM106.746 8.98793L103.354 31.6439L105.331 31.9401L108.723 9.28406L106.746 8.98793ZM138.597 33.008L137.61 33.1689L139.586 33.1572L138.597 33.008ZM143.397 1.2V0.199997H142.537L142.408 1.05078L143.397 1.2ZM153.189 1.2H154.189V0.199997H153.189V1.2ZM153.189 46V47H154.189V46H153.189ZM146.533 46H145.533V47H146.533V46ZM146.533 13.872H147.533L145.544 13.7223L146.533 13.872ZM141.669 46V47H142.529L142.658 46.1497L141.669 46ZM135.013 46L134.026 46.1634L134.165 47H135.013V46ZM129.765 14.32L130.752 14.1566L128.765 14.32H129.765ZM129.765 46V47H130.765V46H129.765ZM123.621 46H122.621V47H123.621V46ZM123.621 1.2V0.199997H122.621V1.2H123.621ZM133.413 1.2L134.4 1.03914L134.263 0.199997H133.413V1.2ZM139.586 33.1572L144.386 1.34921L142.408 1.05078L137.608 32.8588L139.586 33.1572ZM143.397 2.2H153.189V0.199997H143.397V2.2ZM152.189 1.2V46H154.189V1.2H152.189ZM153.189 45H146.533V47H153.189V45ZM147.533 46V13.872H145.533V46H147.533ZM145.544 13.7223L140.68 45.8503L142.658 46.1497L147.522 14.0217L145.544 13.7223ZM141.669 45H135.013V47H141.669V45ZM136 45.8366L130.752 14.1566L128.778 14.4834L134.026 46.1634L136 45.8366ZM128.765 14.32V46H130.765V14.32H128.765ZM129.765 45H123.621V47H129.765V45ZM124.621 46V1.2H122.621V46H124.621ZM123.621 2.2H133.413V0.199997H123.621V2.2ZM132.426 1.36085L137.61 33.1689L139.584 32.8471L134.4 1.03914L132.426 1.36085Z" fill="url(#paint0_linear_1_2754)"/>
<defs>
<linearGradient id="paint0_linear_1_2754" x1="-0.999999" y1="22.9231" x2="156" y2="22.9231" gradientUnits="userSpaceOnUse">
<stop stop-color="#D136F6"/>
<stop offset="1" stop-color="#6C5DD3"/>
</linearGradient>
</defs>
</svg>
