<svg width="16" height="16" viewBox="0 0 16 16" fill="none" xmlns="http://www.w3.org/2000/svg">
<path d="M2.66659 8.00057C2.66659 7.6339 2.79714 7.32001 3.05825 7.0589C3.31936 6.79779 3.63325 6.66724 3.99992 6.66724C4.36659 6.66724 4.68047 6.79779 4.94159 7.0589C5.2027 7.32001 5.33325 7.6339 5.33325 8.00057C5.33325 8.36724 5.2027 8.68112 4.94159 8.94224C4.68047 9.20335 4.36659 9.3339 3.99992 9.3339C3.63325 9.3339 3.31936 9.20335 3.05825 8.94224C2.79714 8.68112 2.66659 8.36724 2.66659 8.00057ZM6.66659 8.00057C6.66659 7.6339 6.79714 7.32001 7.05825 7.0589C7.31936 6.79779 7.63325 6.66724 7.99992 6.66724C8.36659 6.66724 8.68047 6.79779 8.94159 7.0589C9.2027 7.32001 9.33325 7.6339 9.33325 8.00057C9.33325 8.36724 9.2027 8.68112 8.94159 8.94224C8.68047 9.20335 8.36659 9.3339 7.99992 9.3339C7.63325 9.3339 7.31936 9.20335 7.05825 8.94224C6.79714 8.68112 6.66659 8.36724 6.66659 8.00057ZM10.6666 8.00057C10.6666 7.6339 10.7971 7.32001 11.0583 7.0589C11.3194 6.79779 11.6333 6.66724 11.9999 6.66724C12.3666 6.66724 12.6805 6.79779 12.9416 7.0589C13.2027 7.32001 13.3333 7.6339 13.3333 8.00057C13.3333 8.36724 13.2027 8.68113 12.9416 8.94224C12.6805 9.20335 12.3666 9.3339 11.9999 9.3339C11.6333 9.3339 11.3194 9.20335 11.0583 8.94224C10.7971 8.68113 10.6666 8.36724 10.6666 8.00057Z" fill="white"/>
</svg>
