<svg width="25" height="20" viewBox="0 0 25 20" fill="none" xmlns="http://www.w3.org/2000/svg">
<rect width="25" height="20" rx="2" fill="url(#paint0_linear_421_23922)"/>
<g clip-path="url(#clip0_421_23922)">
<path fill-rule="evenodd" clip-rule="evenodd" d="M18.0685 5.98158C18.2325 6.14566 18.3247 6.36818 18.3247 6.6002C18.3247 6.83222 18.2325 7.05474 18.0685 7.21883L11.5101 13.7772C11.4234 13.8639 11.3205 13.9327 11.2073 13.9796C11.094 14.0265 10.9726 14.0507 10.85 14.0507C10.7275 14.0507 10.6061 14.0265 10.4928 13.9796C10.3796 13.9327 10.2767 13.8639 10.19 13.7772L6.93149 10.5193C6.84792 10.4386 6.78126 10.3421 6.73541 10.2353C6.68955 10.1286 6.66541 10.0137 6.6644 9.89755C6.66339 9.78137 6.68553 9.66615 6.72953 9.55862C6.77352 9.45108 6.83849 9.35339 6.92065 9.27123C7.00281 9.18908 7.1005 9.1241 7.20804 9.08011C7.31557 9.03611 7.43079 9.01397 7.54697 9.01498C7.66315 9.01599 7.77797 9.04013 7.88472 9.08599C7.99148 9.13185 8.08803 9.19851 8.16874 9.28208L10.8497 11.9631L16.8307 5.98158C16.9119 5.90027 17.0084 5.83576 17.1146 5.79176C17.2208 5.74775 17.3346 5.7251 17.4496 5.7251C17.5645 5.7251 17.6784 5.74775 17.7846 5.79176C17.8908 5.83576 17.9872 5.90027 18.0685 5.98158Z" fill="#15191F"/>
</g>
<defs>
<linearGradient id="paint0_linear_421_23922" x1="12.5" y1="0" x2="12.5" y2="20" gradientUnits="userSpaceOnUse">
<stop stop-color="#FFC83E"/>
<stop offset="0.494792" stop-color="#FFB700"/>
<stop offset="1" stop-color="#D09500"/>
</linearGradient>
<clipPath id="clip0_421_23922">
<rect width="14" height="14" fill="white" transform="translate(5.5 3)"/>
</clipPath>
</defs>
</svg>
