<svg width="32" height="32" viewBox="0 0 32 32" fill="none" xmlns="http://www.w3.org/2000/svg">
<path d="M16 0L32 16L16 32L0 16L16 0Z" fill="url(#paint0_angular_276_483)" fill-opacity="0.24"/>
<path d="M8.112 11.6V10.2H12.872V11.6H11.262V20H9.722V11.6H8.112ZM14.9642 12.454V17.746C14.9642 18.39 15.2302 18.712 15.7622 18.712C16.2942 18.712 16.5602 18.39 16.5602 17.746V12.454C16.5602 11.81 16.2942 11.488 15.7622 11.488C15.2302 11.488 14.9642 11.81 14.9642 12.454ZM13.4242 17.648V12.552C13.4242 11.768 13.6249 11.1613 14.0262 10.732C14.4276 10.3027 15.0062 10.088 15.7622 10.088C16.5182 10.088 17.0969 10.3027 17.4982 10.732C17.8996 11.1613 18.1002 11.768 18.1002 12.552V17.648C18.1002 18.432 17.8996 19.0387 17.4982 19.468C17.0969 19.8973 16.5182 20.112 15.7622 20.112C15.0062 20.112 14.4276 19.8973 14.0262 19.468C13.6249 19.0387 13.4242 18.432 13.4242 17.648ZM21.369 10.2C22.8997 10.2 23.665 11.0073 23.665 12.622V13.896C23.665 15.5107 22.8997 16.318 21.369 16.318H20.641V20H19.101V10.2H21.369ZM21.369 11.6H20.641V14.918H21.369C21.621 14.918 21.8077 14.848 21.929 14.708C22.0597 14.568 22.125 14.33 22.125 13.994V12.524C22.125 12.188 22.0597 11.95 21.929 11.81C21.8077 11.67 21.621 11.6 21.369 11.6Z" fill="white"/>
<defs>
<radialGradient id="paint0_angular_276_483" cx="0" cy="0" r="1" gradientUnits="userSpaceOnUse" gradientTransform="translate(15.5852 23.52) rotate(87.1995) scale(8.49014 8.73254)">
<stop offset="0.0993526" stop-color="#2CDBBB"/>
<stop offset="0.427081" stop-color="#6C5DD3"/>
<stop offset="0.718753" stop-color="#9F53FF"/>
<stop offset="1" stop-color="#480CC8"/>
</radialGradient>
</defs>
</svg>
