<svg width="16" height="16" viewBox="0 0 16 16" fill="none" xmlns="http://www.w3.org/2000/svg">
<g clip-path="url(#clip0_1_15004)">
<path d="M7.63067 1.28836C7.76731 0.959846 8.23269 0.959845 8.36933 1.28836L10.0222 5.26234C10.0798 5.40084 10.21 5.49547 10.3596 5.50745L14.6498 5.8514C15.0045 5.87983 15.1483 6.32244 14.8781 6.55391L11.6094 9.35391C11.4954 9.45149 11.4457 9.6046 11.4805 9.7505L12.4791 13.9371C12.5617 14.2831 12.1852 14.5567 11.8816 14.3712L8.2085 12.1277C8.0805 12.0496 7.9195 12.0496 7.7915 12.1277L4.11845 14.3712C3.81481 14.5567 3.43831 14.2831 3.52086 13.9371L4.51951 9.7505C4.55431 9.6046 4.50456 9.45149 4.39065 9.35391L1.12193 6.55391C0.851716 6.32244 0.995526 5.87983 1.35019 5.8514L5.64044 5.50745C5.78995 5.49547 5.9202 5.40084 5.9778 5.26235L7.63067 1.28836Z" fill="#F3F4F6"/>
<g clip-path="url(#clip1_1_15004)">
<path d="M7.63067 1.28836C7.76731 0.959846 8.23269 0.959845 8.36933 1.28836L10.0222 5.26234C10.0798 5.40084 10.21 5.49547 10.3596 5.50745L14.6498 5.8514C15.0045 5.87983 15.1483 6.32244 14.8781 6.55391L11.6094 9.35391C11.4954 9.45149 11.4457 9.6046 11.4805 9.7505L12.4791 13.9371C12.5617 14.2831 12.1852 14.5567 11.8816 14.3712L8.2085 12.1277C8.0805 12.0496 7.9195 12.0496 7.7915 12.1277L4.11845 14.3712C3.81481 14.5567 3.43831 14.2831 3.52086 13.9371L4.51951 9.7505C4.55431 9.6046 4.50456 9.45149 4.39065 9.35391L1.12193 6.55391C0.851716 6.32244 0.995526 5.87983 1.35019 5.8514L5.64044 5.50745C5.78995 5.49547 5.9202 5.40084 5.9778 5.26235L7.63067 1.28836Z" fill="#FBBF24"/>
</g>
</g>
<defs>
<clipPath id="clip0_1_15004">
<rect width="16" height="16" fill="white"/>
</clipPath>
<clipPath id="clip1_1_15004">
<rect width="16" height="16" fill="white"/>
</clipPath>
</defs>
</svg>
