<svg width="20" height="20" viewBox="0 0 20 20" fill="none" xmlns="http://www.w3.org/2000/svg">
<path d="M11.42 3.57056C11.343 3.48982 11.2505 3.42537 11.1481 3.38105C11.0456 3.33672 10.9354 3.31342 10.8238 3.31253C10.7122 3.31163 10.6015 3.33316 10.4984 3.37584C10.3953 3.41852 10.3018 3.48147 10.2235 3.56097C10.1451 3.64047 10.0836 3.73489 10.0424 3.83863C10.0013 3.94237 9.98142 4.05332 9.98397 4.16489C9.98652 4.27646 10.0115 4.38639 10.0573 4.48814C10.1031 4.58989 10.169 4.6814 10.2508 4.75723L14.725 9.16723H3.33333C3.11232 9.16723 2.90036 9.25503 2.74408 9.41131C2.5878 9.56759 2.5 9.77955 2.5 10.0006C2.5 10.2216 2.5878 10.4335 2.74408 10.5898C2.90036 10.7461 3.11232 10.8339 3.33333 10.8339H14.7208L10.25 15.2381C10.1005 15.3947 10.0179 15.6035 10.0196 15.82C10.0213 16.0366 10.1073 16.2439 10.2593 16.3982C10.4113 16.5525 10.6174 16.6415 10.8339 16.6464C11.0504 16.6514 11.2603 16.5719 11.4192 16.4247L17.19 10.7397C17.2883 10.6428 17.3663 10.5274 17.4195 10.4C17.4728 10.2727 17.5002 10.1361 17.5002 9.99806C17.5002 9.86005 17.4728 9.72342 17.4195 9.5961C17.3663 9.46877 17.2883 9.3533 17.19 9.2564L11.4192 3.57056H11.42Z" fill="white"/>
</svg>
