<svg width="798" height="215" viewBox="0 0 798 215" fill="none" xmlns="http://www.w3.org/2000/svg">
<path d="M40.7059 42.1436L42.2447 42.3882L42.5313 40.5854H40.7059V42.1436ZM33.5071 87.4305L31.9682 87.1859L31.1427 92.3794L34.6643 88.474L33.5071 87.4305ZM74.3438 42.1436V40.5854H73.6508L73.1866 41.1001L74.3438 42.1436ZM99.4741 42.1436L100.626 43.1929L103.001 40.5854H99.4741V42.1436ZM62.0404 83.2421L60.8885 82.1929L60.2303 82.9155L60.5944 83.8226L62.0404 83.2421ZM84.4221 139V140.558H86.7266L85.8681 138.42L84.4221 139ZM61.7787 139L60.325 139.561L60.7098 140.558H61.7787V139ZM46.7267 99.9957L48.1803 99.4347L47.2683 97.0713L45.5703 98.9512L46.7267 99.9957ZM28.4025 120.283L27.2462 119.239L26.9373 119.581L26.8641 120.036L28.4025 120.283ZM25.3921 139V140.558H26.7197L26.9305 139.247L25.3921 139ZM4.97371 139L3.43465 138.757L3.14981 140.558H4.97371V139ZM20.2875 42.1436V40.5854H18.9563L18.7484 41.9003L20.2875 42.1436ZM39.167 41.899L31.9682 87.1859L35.0459 87.6751L42.2447 42.3882L39.167 41.899ZM34.6643 88.474L75.501 43.1871L73.1866 41.1001L32.3499 86.387L34.6643 88.474ZM74.3438 43.7018H99.4741V40.5854H74.3438V43.7018ZM98.3222 41.0944L60.8885 82.1929L63.1924 84.2914L100.626 43.1929L98.3222 41.0944ZM60.5944 83.8226L82.9761 139.58L85.8681 138.42L63.4865 82.6617L60.5944 83.8226ZM84.4221 137.442H61.7787V140.558H84.4221V137.442ZM63.2324 138.439L48.1803 99.4347L45.273 100.557L60.325 139.561L63.2324 138.439ZM45.5703 98.9512L27.2462 119.239L29.5588 121.328L47.883 101.04L45.5703 98.9512ZM26.8641 120.036L23.8537 138.753L26.9305 139.247L29.9409 120.531L26.8641 120.036ZM25.3921 137.442H4.97371V140.558H25.3921V137.442ZM6.51277 139.243L21.8265 42.387L18.7484 41.9003L3.43465 138.757L6.51277 139.243ZM20.2875 43.7018H40.7059V40.5854H20.2875V43.7018ZM109.201 139V140.558H110.169L110.598 139.69L109.201 139ZM86.9499 139L85.5607 138.294L84.4104 140.558H86.9499V139ZM136.163 42.1436V40.5854H135.207L134.774 41.4378L136.163 42.1436ZM156.189 42.1436L157.72 41.852L157.478 40.5854H156.189V42.1436ZM174.644 139V140.558H176.527L176.175 138.708L174.644 139ZM153.702 139L152.165 139.253L152.38 140.558H153.702V139ZM150.299 118.32L151.837 118.067L151.622 116.762H150.299V118.32ZM119.41 118.32V116.762H118.441L118.013 117.63L119.41 118.32ZM138.65 78.9229L137.257 78.226L137.251 78.2377L137.245 78.2494L138.65 78.9229ZM128.048 101.043L126.643 100.369L125.574 102.601H128.048V101.043ZM147.289 101.043V102.601H149.126L148.826 100.788L147.289 101.043ZM143.624 78.9229L145.161 78.6682L145.161 78.6667L143.624 78.9229ZM142.577 69.7608H144.135L141.107 69.2422L142.577 69.7608ZM109.201 137.442H86.9499V140.558H109.201V137.442ZM88.339 139.706L137.553 42.8495L134.774 41.4378L85.5607 138.294L88.339 139.706ZM136.163 43.7018H156.189V40.5854H136.163V43.7018ZM154.658 42.4353L173.114 139.292L176.175 138.708L157.72 41.852L154.658 42.4353ZM174.644 137.442H153.702V140.558H174.644V137.442ZM155.24 138.747L151.837 118.067L148.762 118.573L152.165 139.253L155.24 138.747ZM150.299 116.762H119.41V119.878H150.299V116.762ZM118.013 117.63L107.803 138.31L110.598 139.69L120.807 119.01L118.013 117.63ZM137.245 78.2494L126.643 100.369L129.454 101.716L140.055 79.5963L137.245 78.2494ZM128.048 102.601H147.289V99.4846H128.048V102.601ZM148.826 100.788L145.161 78.6682L142.087 79.1776L145.752 101.297L148.826 100.788ZM145.161 78.6667C144.765 76.2914 144.135 71.8362 144.135 69.7608H141.019C141.019 72.1355 141.698 76.8424 142.087 79.179L145.161 78.6667ZM141.107 69.2422C140.344 71.4068 138.798 75.143 137.257 78.226L140.044 79.6197C141.644 76.4202 143.24 72.5649 144.046 70.2794L141.107 69.2422ZM179.816 61.2531L178.277 61.0106L177.993 62.8113H179.816V61.2531ZM182.827 42.1436V40.5854H181.495L181.287 41.9011L182.827 42.1436ZM257.04 42.1436L258.579 42.3861L258.862 40.5854H257.04V42.1436ZM254.029 61.2531V62.8113H255.361L255.568 61.4956L254.029 61.2531ZM227.197 61.2531V59.6949H225.866L225.658 61.0096L227.197 61.2531ZM214.894 139V140.558H216.225L216.433 139.244L214.894 139ZM194.476 139L192.937 138.756L192.651 140.558H194.476V139ZM206.779 61.2531L208.318 61.4967L208.603 59.6949H206.779V61.2531ZM181.355 61.4956L184.366 42.3861L181.287 41.9011L178.277 61.0106L181.355 61.4956ZM182.827 43.7018H257.04V40.5854H182.827V43.7018ZM255.5 41.9011L252.49 61.0106L255.568 61.4956L258.579 42.3861L255.5 41.9011ZM254.029 59.6949H227.197V62.8113H254.029V59.6949ZM225.658 61.0096L213.355 138.756L216.433 139.244L228.736 61.4967L225.658 61.0096ZM214.894 137.442H194.476V140.558H214.894V137.442ZM196.015 139.244L208.318 61.4967L205.24 61.0096L192.937 138.756L196.015 139.244ZM206.779 59.6949H179.816V62.8113H206.779V59.6949ZM260.667 139V140.558H261.635L262.064 139.69L260.667 139ZM238.416 139L237.027 138.294L235.876 140.558H238.416V139ZM287.629 42.1436V40.5854H286.673L286.24 41.4378L287.629 42.1436ZM307.655 42.1436L309.186 41.852L308.944 40.5854H307.655V42.1436ZM326.11 139V140.558H327.993L327.641 138.708L326.11 139ZM305.168 139L303.631 139.253L303.845 140.558H305.168V139ZM301.765 118.32L303.303 118.067L303.088 116.762H301.765V118.32ZM270.876 118.32V116.762H269.907L269.479 117.63L270.876 118.32ZM290.116 78.9229L288.722 78.226L288.717 78.2377L288.711 78.2494L290.116 78.9229ZM279.514 101.043L278.109 100.369L277.04 102.601H279.514V101.043ZM298.755 101.043V102.601H300.592L300.292 100.788L298.755 101.043ZM295.09 78.9229L296.627 78.6682L296.627 78.6667L295.09 78.9229ZM294.043 69.7608H295.601L292.573 69.2422L294.043 69.7608ZM260.667 137.442H238.416V140.558H260.667V137.442ZM239.805 139.706L289.018 42.8495L286.24 41.4378L237.027 138.294L239.805 139.706ZM287.629 43.7018H307.655V40.5854H287.629V43.7018ZM306.124 42.4353L324.579 139.292L327.641 138.708L309.186 41.852L306.124 42.4353ZM326.11 137.442H305.168V140.558H326.11V137.442ZM306.706 138.747L303.303 118.067L300.228 118.573L303.631 139.253L306.706 138.747ZM301.765 116.762H270.876V119.878H301.765V116.762ZM269.479 117.63L259.269 138.31L262.064 139.69L272.273 119.01L269.479 117.63ZM288.711 78.2494L278.109 100.369L280.919 101.716L291.521 79.5963L288.711 78.2494ZM279.514 102.601H298.755V99.4846H279.514V102.601ZM300.292 100.788L296.627 78.6682L293.553 79.1776L297.217 101.297L300.292 100.788ZM296.627 78.6667C296.231 76.2914 295.601 71.8362 295.601 69.7608H292.485C292.485 72.1355 293.163 76.8424 293.553 79.179L296.627 78.6667ZM292.573 69.2422C291.809 71.4068 290.264 75.143 288.722 78.226L291.51 79.6197C293.11 76.4202 294.705 72.5649 295.512 70.2794L292.573 69.2422ZM357.847 139V140.558H359.179L359.386 139.243L357.847 139ZM337.56 139L336.021 138.757L335.736 140.558H337.56V139ZM352.873 42.1436V40.5854H351.542L351.334 41.9003L352.873 42.1436ZM373.161 42.1436L374.562 41.4609L374.135 40.5854H373.161V42.1436ZM403.527 104.446L402.126 105.129L404.295 109.579L405.066 104.688L403.527 104.446ZM413.343 42.1436V40.5854H412.011L411.804 41.9011L413.343 42.1436ZM433.631 42.1436L435.17 42.387L435.455 40.5854H433.631V42.1436ZM418.317 139V140.558H419.648L419.856 139.243L418.317 139ZM398.029 139L396.629 139.683L397.055 140.558H398.029V139ZM367.664 76.6978L369.064 76.0151L366.895 71.5644L366.124 76.4553L367.664 76.6978ZM357.847 137.442H337.56V140.558H357.847V137.442ZM339.099 139.243L354.412 42.387L351.334 41.9003L336.021 138.757L339.099 139.243ZM352.873 43.7018H373.161V40.5854H352.873V43.7018ZM371.76 42.8263L402.126 105.129L404.927 103.763L374.562 41.4609L371.76 42.8263ZM405.066 104.688L414.882 42.3861L411.804 41.9011L401.987 104.203L405.066 104.688ZM413.343 43.7018H433.631V40.5854H413.343V43.7018ZM432.092 41.9003L416.778 138.757L419.856 139.243L435.17 42.387L432.092 41.9003ZM418.317 137.442H398.029V140.558H418.317V137.442ZM399.43 138.317L369.064 76.0151L366.263 77.3805L396.629 139.683L399.43 138.317ZM366.124 76.4553L356.308 138.757L359.386 139.243L369.203 76.9403L366.124 76.4553ZM451.884 139V140.558H452.853L453.281 139.69L451.884 139ZM429.633 139L428.244 138.294L427.094 140.558H429.633V139ZM478.847 42.1436V40.5854H477.891L477.458 41.4378L478.847 42.1436ZM498.873 42.1436L500.403 41.852L500.162 40.5854H498.873V42.1436ZM517.328 139V140.558H519.211L518.858 138.708L517.328 139ZM496.386 139L494.848 139.253L495.063 140.558H496.386V139ZM492.983 118.32L494.52 118.067L494.306 116.762H492.983V118.32ZM462.093 118.32V116.762H461.125L460.696 117.63L462.093 118.32ZM481.334 78.9229L479.94 78.226L479.934 78.2377L479.929 78.2494L481.334 78.9229ZM470.732 101.043L469.327 100.369L468.257 102.601H470.732V101.043ZM489.972 101.043V102.601H491.81L491.51 100.788L489.972 101.043ZM486.308 78.9229L487.845 78.6682L487.845 78.6667L486.308 78.9229ZM485.26 69.7608H486.819L483.791 69.2422L485.26 69.7608ZM451.884 137.442H429.633V140.558H451.884V137.442ZM431.023 139.706L480.236 42.8495L477.458 41.4378L428.244 138.294L431.023 139.706ZM478.847 43.7018H498.873V40.5854H478.847V43.7018ZM497.342 42.4353L515.797 139.292L518.858 138.708L500.403 41.852L497.342 42.4353ZM517.328 137.442H496.386V140.558H517.328V137.442ZM497.923 138.747L494.52 118.067L491.445 118.573L494.848 139.253L497.923 138.747ZM492.983 116.762H462.093V119.878H492.983V116.762ZM460.696 117.63L450.487 138.31L453.281 139.69L463.491 119.01L460.696 117.63ZM479.929 78.2494L469.327 100.369L472.137 101.716L482.739 79.5963L479.929 78.2494ZM470.732 102.601H489.972V99.4846H470.732V102.601ZM491.51 100.788L487.845 78.6682L484.77 79.1776L488.435 101.297L491.51 100.788ZM487.845 78.6667C487.449 76.2914 486.819 71.8362 486.819 69.7608H483.702C483.702 72.1355 484.381 76.8424 484.771 79.179L487.845 78.6667ZM483.791 69.2422C483.027 71.4068 481.482 75.143 479.94 78.226L482.728 79.6197C484.327 76.4202 485.923 72.5649 486.73 70.2794L483.791 69.2422ZM598.509 42.1436L600.048 42.387L600.333 40.5854H598.509V42.1436ZM583.196 139V140.558H584.527L584.735 139.243L583.196 139ZM562.777 139L561.238 138.757L560.953 140.558H562.777V139ZM578.091 42.1436V40.5854H576.76L576.552 41.9003L578.091 42.1436ZM596.97 41.9003L581.657 138.757L584.735 139.243L600.048 42.387L596.97 41.9003ZM583.196 137.442H562.777V140.558H583.196V137.442ZM564.316 139.243L579.63 42.387L576.552 41.9003L561.238 138.757L564.316 139.243ZM578.091 43.7018H598.509V40.5854H578.091V43.7018ZM623.711 139V140.558H625.043L625.25 139.243L623.711 139ZM603.424 139L601.885 138.757L601.6 140.558H603.424V139ZM618.738 42.1436V40.5854H617.406L617.198 41.9003L618.738 42.1436ZM639.025 42.1436L640.426 41.4609L639.999 40.5854H639.025V42.1436ZM669.391 104.446L667.99 105.129L670.159 109.579L670.93 104.688L669.391 104.446ZM679.207 42.1436V40.5854H677.875L677.668 41.9011L679.207 42.1436ZM699.495 42.1436L701.034 42.387L701.319 40.5854H699.495V42.1436ZM684.181 139V140.558H685.512L685.72 139.243L684.181 139ZM663.894 139L662.493 139.683L662.92 140.558H663.894V139ZM633.528 76.6978L634.928 76.0151L632.759 71.5644L631.989 76.4553L633.528 76.6978ZM623.711 137.442H603.424V140.558H623.711V137.442ZM604.963 139.243L620.277 42.387L617.198 41.9003L601.885 138.757L604.963 139.243ZM618.738 43.7018H639.025V40.5854H618.738V43.7018ZM637.624 42.8263L667.99 105.129L670.791 103.763L640.426 41.4609L637.624 42.8263ZM670.93 104.688L680.747 42.3861L677.668 41.9011L667.852 104.203L670.93 104.688ZM679.207 43.7018H699.495V40.5854H679.207V43.7018ZM697.956 41.9003L682.642 138.757L685.72 139.243L701.034 42.387L697.956 41.9003ZM684.181 137.442H663.894V140.558H684.181V137.442ZM665.294 138.317L634.928 76.0151L632.127 77.3805L662.493 139.683L665.294 138.317ZM631.989 76.4553L622.172 138.757L625.25 139.243L635.067 76.9403L631.989 76.4553ZM709.764 101.435L708.225 101.191L708.225 101.193L709.764 101.435ZM719.188 42.1436V40.5854H717.858L717.649 41.899L719.188 42.1436ZM739.607 42.1436L741.146 42.3849L741.428 40.5854H739.607V42.1436ZM730.314 101.435L731.852 101.684L731.853 101.677L730.314 101.435ZM767.355 101.435L768.893 101.684L768.894 101.68L767.355 101.435ZM776.779 42.1436V40.5854H775.448L775.24 41.899L776.779 42.1436ZM797.197 42.1436L798.736 42.389L799.023 40.5854H797.197V42.1436ZM787.511 102.875L789.05 103.123L789.05 103.121L787.511 102.875ZM711.303 101.68L720.727 42.3882L717.649 41.899L708.225 101.191L711.303 101.68ZM719.188 43.7018H739.607V40.5854H719.188V43.7018ZM738.067 41.9024L728.774 101.194L731.853 101.677L741.146 42.3849L738.067 41.9024ZM728.775 101.187C727.755 107.516 728.623 112.859 731.59 116.647C734.578 120.462 739.43 122.365 745.627 122.365V119.249C740.045 119.249 736.258 117.552 734.044 114.725C731.808 111.87 730.909 107.528 731.852 101.684L728.775 101.187ZM745.627 122.365C751.847 122.365 757.173 120.458 761.211 116.847C765.241 113.243 767.866 108.05 768.893 101.684L765.816 101.187C764.88 106.993 762.531 111.486 759.134 114.524C755.743 117.556 751.188 119.249 745.627 119.249V122.365ZM768.894 101.68L778.317 42.3882L775.24 41.899L765.816 101.191L768.894 101.68ZM776.779 43.7018H797.197V40.5854H776.779V43.7018ZM795.658 41.8982L785.973 102.63L789.05 103.121L798.736 42.389L795.658 41.8982ZM785.973 102.627C784.12 114.127 779.45 123.192 772.366 129.385C765.288 135.572 755.661 139.012 743.664 139.012V142.129C756.274 142.129 766.673 138.501 774.417 131.731C782.157 124.965 787.107 115.183 789.05 103.123L785.973 102.627ZM743.664 139.012C733.111 139.012 724.164 135.195 718.3 128.696C712.448 122.211 709.536 112.915 711.304 101.678L708.225 101.193C706.328 113.254 709.436 123.525 715.986 130.784C722.523 138.028 732.359 142.129 743.664 142.129V139.012Z" fill="url(#paint0_angular_1_9854)" fill-opacity="0.4"/>
<path d="M61.9124 83.3843L54.9058 127.462L94.6519 83.3843H119.111L82.6771 123.385L104.461 177.654H82.4224L67.7724 139.691L49.9376 159.437L47.0076 177.654H27.1346L42.0393 83.3843H61.9124ZM128.578 177.654H106.921L154.82 83.3843H174.311L192.273 177.654H171.891L168.579 157.526H138.514L128.578 177.654ZM157.241 119.181L146.922 140.71H165.649L162.082 119.181C161.699 116.888 161.063 112.43 161.063 110.264C160.298 112.43 158.769 116.124 157.241 119.181ZM197.307 101.983L200.237 83.3843H272.468L269.538 101.983H243.423L231.448 177.654H211.575L223.55 101.983H197.307ZM275.998 177.654H254.342L302.241 83.3843H321.732L339.694 177.654H319.311L315.999 157.526H285.935L275.998 177.654ZM304.661 119.181L294.343 140.71H313.069L309.502 119.181C309.12 116.888 308.483 112.43 308.483 110.264C307.719 112.43 306.19 116.124 304.661 119.181ZM370.583 177.654H350.838L365.742 83.3843H385.488L415.043 144.023L424.597 83.3843H444.343L429.438 177.654H409.692L380.138 117.016L370.583 177.654ZM462.109 177.654H440.452L488.351 83.3843H507.842L525.804 177.654H505.422L502.11 157.526H472.045L462.109 177.654ZM490.772 119.181L480.453 140.71H499.18L495.613 119.181C495.231 116.888 494.594 112.43 494.594 110.264C493.829 112.43 492.301 116.124 490.772 119.181Z" fill="url(#paint1_angular_1_9854)"/>
<path d="M61.9124 83.3843L63.485 83.6343L63.7779 81.7919H61.9124V83.3843ZM54.9058 127.462L53.3332 127.212L52.4895 132.519L56.0884 128.528L54.9058 127.462ZM94.6519 83.3843V81.7919H93.9436L93.4693 82.3179L94.6519 83.3843ZM119.111 83.3843L120.288 84.4566L122.715 81.7919H119.111V83.3843ZM82.6771 123.385L81.4999 122.313L80.8273 123.051L81.1994 123.978L82.6771 123.385ZM104.461 177.654V179.246H106.816L105.939 177.061L104.461 177.654ZM82.4224 177.654L80.9367 178.227L81.33 179.246H82.4224V177.654ZM67.7724 139.691L69.258 139.118L68.3259 136.703L66.5906 138.624L67.7724 139.691ZM49.9376 159.437L48.7559 158.37L48.4402 158.719L48.3654 159.184L49.9376 159.437ZM47.0076 177.654V179.246H48.3643L48.5798 177.907L47.0076 177.654ZM27.1346 177.654L25.5617 177.405L25.2706 179.246H27.1346V177.654ZM42.0393 83.3843V81.7919H40.6789L40.4665 83.1356L42.0393 83.3843ZM60.3397 83.1343L53.3332 127.212L56.4785 127.712L63.485 83.6343L60.3397 83.1343ZM56.0884 128.528L95.8345 84.4507L93.4693 82.3179L53.7233 126.395L56.0884 128.528ZM94.6519 84.9767H119.111V81.7919H94.6519V84.9767ZM117.934 82.312L81.4999 122.313L83.8544 124.457L120.288 84.4566L117.934 82.312ZM81.1994 123.978L102.983 178.247L105.939 177.061L84.1549 122.792L81.1994 123.978ZM104.461 176.061H82.4224V179.246H104.461V176.061ZM83.908 177.081L69.258 139.118L66.2868 140.265L80.9367 178.227L83.908 177.081ZM66.5906 138.624L48.7559 158.37L51.1193 160.504L68.9541 140.759L66.5906 138.624ZM48.3654 159.184L45.4354 177.401L48.5798 177.907L51.5098 159.69L48.3654 159.184ZM47.0076 176.061H27.1346V179.246H47.0076V176.061ZM28.7074 177.902L43.6122 83.633L40.4665 83.1356L25.5617 177.405L28.7074 177.902ZM42.0393 84.9767H61.9124V81.7919H42.0393V84.9767ZM128.578 177.654V179.246H129.568L130.006 178.359L128.578 177.654ZM106.921 177.654L105.502 176.932L104.326 179.246H106.921V177.654ZM154.82 83.3843V81.7919H153.843L153.401 82.663L154.82 83.3843ZM174.311 83.3843L175.875 83.0863L175.629 81.7919H174.311V83.3843ZM192.273 177.654V179.246H194.198L193.838 177.356L192.273 177.654ZM171.891 177.654L170.32 177.912L170.539 179.246H171.891V177.654ZM168.579 157.526L170.15 157.267L169.93 155.934H168.579V157.526ZM138.514 157.526V155.934H137.525L137.086 156.821L138.514 157.526ZM157.241 119.181L155.817 118.469L155.811 118.481L155.805 118.493L157.241 119.181ZM146.922 140.71L145.486 140.022L144.393 142.303H146.922V140.71ZM165.649 140.71V142.303H167.527L167.22 140.45L165.649 140.71ZM162.082 119.181L163.653 118.921L163.652 118.919L162.082 119.181ZM161.063 110.264H162.655L159.561 109.734L161.063 110.264ZM128.578 176.061H106.921V179.246H128.578V176.061ZM108.341 178.375L156.24 84.1057L153.401 82.663L105.502 176.932L108.341 178.375ZM154.82 84.9767H174.311V81.7919H154.82V84.9767ZM172.747 83.6824L190.709 177.952L193.838 177.356L175.875 83.0863L172.747 83.6824ZM192.273 176.061H171.891V179.246H192.273V176.061ZM173.462 177.395L170.15 157.267L167.007 157.785L170.32 177.912L173.462 177.395ZM168.579 155.934H138.514V159.118H168.579V155.934ZM137.086 156.821L127.15 176.949L130.006 178.359L139.942 158.231L137.086 156.821ZM155.805 118.493L145.486 140.022L148.358 141.399L158.677 119.869L155.805 118.493ZM146.922 142.303H165.649V139.118H146.922V142.303ZM167.22 140.45L163.653 118.921L160.511 119.442L164.078 140.971L167.22 140.45ZM163.652 118.919C163.267 116.607 162.655 112.277 162.655 110.264H159.47C159.47 112.582 160.132 117.17 160.511 119.443L163.652 118.919ZM159.561 109.734C158.818 111.838 157.315 115.471 155.817 118.469L158.665 119.893C160.224 116.776 161.778 113.021 162.564 110.794L159.561 109.734ZM197.307 101.983L195.734 101.736L195.444 103.576H197.307V101.983ZM200.237 83.3843V81.7919H198.876L198.664 83.1365L200.237 83.3843ZM272.468 83.3843L274.041 83.6321L274.331 81.7919H272.468V83.3843ZM269.538 101.983V103.576H270.899L271.111 102.231L269.538 101.983ZM243.423 101.983V100.391H242.063L241.85 101.735L243.423 101.983ZM231.448 177.654V179.246H232.808L233.021 177.903L231.448 177.654ZM211.575 177.654L210.002 177.405L209.711 179.246H211.575V177.654ZM223.55 101.983L225.123 102.232L225.414 100.391H223.55V101.983ZM198.88 102.231L201.81 83.6321L198.664 83.1365L195.734 101.736L198.88 102.231ZM200.237 84.9767H272.468V81.7919H200.237V84.9767ZM270.895 83.1365L267.965 101.736L271.111 102.231L274.041 83.6321L270.895 83.1365ZM269.538 100.391H243.423V103.576H269.538V100.391ZM241.85 101.735L229.875 177.405L233.021 177.903L244.996 102.232L241.85 101.735ZM231.448 176.061H211.575V179.246H231.448V176.061ZM213.148 177.903L225.123 102.232L221.977 101.735L210.002 177.405L213.148 177.903ZM223.55 100.391H197.307V103.576H223.55V100.391ZM275.998 177.654V179.246H276.988L277.426 178.359L275.998 177.654ZM254.342 177.654L252.922 176.932L251.746 179.246H254.342V177.654ZM302.241 83.3843V81.7919H301.264L300.821 82.663L302.241 83.3843ZM321.732 83.3843L323.296 83.0863L323.049 81.7919H321.732V83.3843ZM339.694 177.654V179.246H341.618L341.258 177.356L339.694 177.654ZM319.311 177.654L317.74 177.912L317.959 179.246H319.311V177.654ZM315.999 157.526L317.57 157.267L317.351 155.934H315.999V157.526ZM285.935 157.526V155.934H284.945L284.507 156.821L285.935 157.526ZM304.661 119.181L303.237 118.469L303.231 118.481L303.225 118.493L304.661 119.181ZM294.343 140.71L292.907 140.022L291.814 142.303H294.343V140.71ZM313.069 140.71V142.303H314.947L314.64 140.45L313.069 140.71ZM309.502 119.181L311.073 118.921L311.073 118.919L309.502 119.181ZM308.483 110.264H310.075L306.981 109.734L308.483 110.264ZM275.998 176.061H254.342V179.246H275.998V176.061ZM255.761 178.375L303.66 84.1057L300.821 82.663L252.922 176.932L255.761 178.375ZM302.241 84.9767H321.732V81.7919H302.241V84.9767ZM320.167 83.6824L338.13 177.952L341.258 177.356L323.296 83.0863L320.167 83.6824ZM339.694 176.061H319.311V179.246H339.694V176.061ZM320.883 177.395L317.57 157.267L314.428 157.785L317.74 177.912L320.883 177.395ZM315.999 155.934H285.935V159.118H315.999V155.934ZM284.507 156.821L274.57 176.949L277.426 178.359L287.363 158.231L284.507 156.821ZM303.225 118.493L292.907 140.022L295.779 141.399L306.097 119.869L303.225 118.493ZM294.343 142.303H313.069V139.118H294.343V142.303ZM314.64 140.45L311.073 118.921L307.931 119.442L311.498 140.971L314.64 140.45ZM311.073 118.919C310.687 116.607 310.075 112.277 310.075 110.264H306.891C306.891 112.582 307.553 117.17 307.931 119.443L311.073 118.919ZM306.981 109.734C306.239 111.838 304.736 115.471 303.237 118.469L306.086 119.893C307.644 116.776 309.198 113.021 309.985 110.794L306.981 109.734ZM370.583 177.654V179.246H371.944L372.156 177.902L370.583 177.654ZM350.838 177.654L349.265 177.405L348.974 179.246H350.838V177.654ZM365.742 83.3843V81.7919H364.382L364.17 83.1356L365.742 83.3843ZM385.488 83.3843L386.919 82.6867L386.483 81.7919H385.488V83.3843ZM415.043 144.023L413.611 144.72L415.828 149.269L416.616 144.27L415.043 144.023ZM424.597 83.3843V81.7919H423.236L423.024 83.1365L424.597 83.3843ZM444.343 83.3843L445.916 83.633L446.207 81.7919H444.343V83.3843ZM429.438 177.654V179.246H430.798L431.011 177.902L429.438 177.654ZM409.692 177.654L408.261 178.351L408.697 179.246H409.692V177.654ZM380.138 117.016L381.569 116.318L379.352 111.77L378.565 116.768L380.138 117.016ZM370.583 176.061H350.838V179.246H370.583V176.061ZM352.41 177.902L367.315 83.633L364.17 83.1356L349.265 177.405L352.41 177.902ZM365.742 84.9767H385.488V81.7919H365.742V84.9767ZM384.057 84.082L413.611 144.72L416.474 143.325L386.919 82.6867L384.057 84.082ZM416.616 144.27L426.17 83.6322L423.024 83.1365L413.47 143.775L416.616 144.27ZM424.597 84.9767H444.343V81.7919H424.597V84.9767ZM442.77 83.1356L427.865 177.405L431.011 177.902L445.916 83.633L442.77 83.1356ZM429.438 176.061H409.692V179.246H429.438V176.061ZM411.124 176.956L381.569 116.318L378.706 117.713L408.261 178.351L411.124 176.956ZM378.565 116.768L369.01 177.406L372.156 177.902L381.711 117.263L378.565 116.768ZM462.109 177.654V179.246H463.099L463.537 178.359L462.109 177.654ZM440.452 177.654L439.033 176.932L437.857 179.246H440.452V177.654ZM488.351 83.3843V81.7919H487.374L486.932 82.663L488.351 83.3843ZM507.842 83.3843L509.407 83.0863L509.16 81.7919H507.842V83.3843ZM525.804 177.654V179.246H527.729L527.369 177.356L525.804 177.654ZM505.422 177.654L503.851 177.912L504.07 179.246H505.422V177.654ZM502.11 157.526L503.681 157.267L503.461 155.934H502.11V157.526ZM472.045 157.526V155.934H471.056L470.617 156.821L472.045 157.526ZM490.772 119.181L489.348 118.469L489.342 118.481L489.336 118.493L490.772 119.181ZM480.453 140.71L479.017 140.022L477.924 142.303H480.453V140.71ZM499.18 140.71V142.303H501.058L500.751 140.45L499.18 140.71ZM495.613 119.181L497.184 118.921L497.183 118.919L495.613 119.181ZM494.594 110.264H496.186L493.092 109.734L494.594 110.264ZM462.109 176.061H440.452V179.246H462.109V176.061ZM441.872 178.375L489.771 84.1057L486.932 82.663L439.033 176.932L441.872 178.375ZM488.351 84.9767H507.842V81.7919H488.351V84.9767ZM506.278 83.6824L524.24 177.952L527.369 177.356L509.407 83.0863L506.278 83.6824ZM525.804 176.061H505.422V179.246H525.804V176.061ZM506.993 177.395L503.681 157.267L500.538 157.785L503.851 177.912L506.993 177.395ZM502.11 155.934H472.045V159.118H502.11V155.934ZM470.617 156.821L460.681 176.949L463.537 178.359L473.473 158.231L470.617 156.821ZM489.336 118.493L479.017 140.022L481.889 141.399L492.208 119.869L489.336 118.493ZM480.453 142.303H499.18V139.118H480.453V142.303ZM500.751 140.45L497.184 118.921L494.042 119.442L497.609 140.971L500.751 140.45ZM497.183 118.919C496.798 116.607 496.186 112.277 496.186 110.264H493.001C493.001 112.582 493.663 117.17 494.042 119.443L497.183 118.919ZM493.092 109.734C492.349 111.838 490.847 115.471 489.348 118.469L492.196 119.893C493.755 116.776 495.309 113.021 496.095 110.794L493.092 109.734Z" fill="url(#paint2_angular_1_9854)"/>
<path d="M588.993 83.3843L574.089 177.654H554.216L569.12 83.3843H588.993ZM613.522 177.654H593.777L608.681 83.3843H628.427L657.982 144.023L667.536 83.3843H687.282L672.377 177.654H652.631L623.077 117.016L613.522 177.654ZM697.277 141.093L706.449 83.3843H726.322L717.277 141.093C715.366 152.94 720.717 159.946 732.182 159.946C743.647 159.946 751.418 152.94 753.329 141.093L762.501 83.3843H782.374L772.947 142.494C769.253 165.424 754.221 179.183 730.271 179.183C708.997 179.183 693.71 163.768 697.277 141.093Z" fill="url(#paint3_angular_1_9854)"/>
<path d="M588.993 83.3843L590.566 83.633L590.857 81.7919H588.993V83.3843ZM574.089 177.654V179.246H575.449L575.662 177.902L574.089 177.654ZM554.216 177.654L552.643 177.405L552.352 179.246H554.216V177.654ZM569.12 83.3843V81.7919H567.76L567.548 83.1356L569.12 83.3843ZM587.421 83.1356L572.516 177.405L575.662 177.902L590.566 83.633L587.421 83.1356ZM574.089 176.061H554.216V179.246H574.089V176.061ZM555.788 177.902L570.693 83.633L567.548 83.1356L552.643 177.405L555.788 177.902ZM569.12 84.9767H588.993V81.7919H569.12V84.9767ZM613.522 177.654V179.246H614.883L615.095 177.902L613.522 177.654ZM593.777 177.654L592.204 177.405L591.913 179.246H593.777V177.654ZM608.681 83.3843V81.7919H607.321L607.108 83.1356L608.681 83.3843ZM628.427 83.3843L629.858 82.6867L629.422 81.7919H628.427V83.3843ZM657.982 144.023L656.55 144.72L658.767 149.269L659.555 144.27L657.982 144.023ZM667.536 83.3843V81.7919H666.175L665.963 83.1365L667.536 83.3843ZM687.282 83.3843L688.855 83.633L689.146 81.7919H687.282V83.3843ZM672.377 177.654V179.246H673.737L673.95 177.902L672.377 177.654ZM652.631 177.654L651.2 178.351L651.636 179.246H652.631V177.654ZM623.077 117.016L624.508 116.318L622.291 111.77L621.504 116.768L623.077 117.016ZM613.522 176.061H593.777V179.246H613.522V176.061ZM595.349 177.902L610.254 83.633L607.108 83.1356L592.204 177.405L595.349 177.902ZM608.681 84.9767H628.427V81.7919H608.681V84.9767ZM626.996 84.082L656.55 144.72L659.413 143.325L629.858 82.6867L626.996 84.082ZM659.555 144.27L669.109 83.6322L665.963 83.1365L656.409 143.775L659.555 144.27ZM667.536 84.9767H687.282V81.7919H667.536V84.9767ZM685.709 83.1356L670.804 177.405L673.95 177.902L688.855 83.633L685.709 83.1356ZM672.377 176.061H652.631V179.246H672.377V176.061ZM654.063 176.956L624.508 116.318L621.645 117.713L651.2 178.351L654.063 176.956ZM621.504 116.768L611.949 177.406L615.095 177.902L624.65 117.263L621.504 116.768ZM697.277 141.093L695.704 140.843L695.704 140.845L697.277 141.093ZM706.449 83.3843V81.7919H705.09L704.876 83.1344L706.449 83.3843ZM726.322 83.3843L727.895 83.6309L728.184 81.7919H726.322V83.3843ZM717.277 141.093L718.849 141.346L718.851 141.339L717.277 141.093ZM753.329 141.093L754.901 141.346L754.902 141.342L753.329 141.093ZM762.501 83.3843V81.7919H761.142L760.929 83.1344L762.501 83.3843ZM782.374 83.3843L783.947 83.6351L784.241 81.7919H782.374V83.3843ZM772.947 142.494L774.519 142.747L774.52 142.745L772.947 142.494ZM698.85 141.342L708.022 83.6343L704.876 83.1344L695.704 140.843L698.85 141.342ZM706.449 84.9767H726.322V81.7919H706.449V84.9767ZM724.749 83.1378L715.704 140.846L718.851 141.339L727.895 83.6309L724.749 83.1378ZM715.705 140.839C714.71 147.01 715.555 152.235 718.46 155.944C721.387 159.682 726.135 161.539 732.182 161.539V158.354C726.764 158.354 723.104 156.708 720.967 153.98C718.809 151.225 717.934 147.022 718.849 141.346L715.705 140.839ZM732.182 161.539C738.251 161.539 743.455 159.677 747.4 156.149C751.338 152.628 753.899 147.556 754.901 141.346L751.757 140.839C750.848 146.476 748.569 150.832 745.277 153.775C741.993 156.712 737.578 158.354 732.182 158.354V161.539ZM754.902 141.342L764.074 83.6343L760.929 83.1344L751.756 140.843L754.902 141.342ZM762.501 84.9767H782.374V81.7919H762.501V84.9767ZM780.802 83.1335L771.375 142.243L774.52 142.745L783.947 83.6351L780.802 83.1335ZM771.375 142.241C769.574 153.419 765.035 162.225 758.157 168.238C751.284 174.246 741.933 177.59 730.271 177.59V180.775C742.559 180.775 752.699 177.239 760.253 170.636C767.802 164.037 772.626 154.499 774.519 142.747L771.375 142.241ZM730.271 177.59C720.019 177.59 711.332 173.881 705.641 167.574C699.963 161.282 697.133 152.257 698.85 141.34L695.704 140.845C693.854 152.603 696.884 162.624 703.276 169.708C709.655 176.777 719.25 180.775 730.271 180.775V177.59Z" fill="url(#paint4_angular_1_9854)"/>
<path d="M53.8992 83.5058L46.9017 127.526L86.5965 83.5058H111.024L74.6372 123.455L96.393 177.654H74.3827L59.7516 139.74L41.9398 159.46L39.0136 177.654H19.1662L34.0517 83.5058H53.8992ZM120.479 177.654H98.8501L146.687 83.5058H166.153L184.092 177.654H163.736L160.428 157.552H130.402L120.479 177.654ZM149.105 119.257L138.799 140.758H157.502L153.939 119.257C153.558 116.967 152.922 112.514 152.922 110.351C152.158 112.514 150.631 116.203 149.105 119.257ZM189.12 102.081L192.046 83.5058H264.184L261.257 102.081H235.176L223.216 177.654H203.369L215.328 102.081H189.12ZM267.709 177.654H246.081L293.918 83.5058H313.384L331.323 177.654H310.966L307.658 157.552H277.633L267.709 177.654ZM296.335 119.257L286.03 140.758H304.732L301.17 119.257C300.788 116.967 300.152 112.514 300.152 110.351C299.389 112.514 297.862 116.203 296.335 119.257ZM362.172 177.654H342.452L357.338 83.5058H377.058L406.574 144.066L416.117 83.5058H435.837L420.951 177.654H401.231L371.714 117.094L362.172 177.654ZM453.58 177.654H431.951L479.789 83.5058H499.254L517.193 177.654H496.837L493.529 157.552H463.504L453.58 177.654ZM482.206 119.257L471.901 140.758H490.603L487.041 119.257C486.659 116.967 486.023 112.514 486.023 110.351C485.259 112.514 483.733 116.203 482.206 119.257ZM596.105 83.5058L581.219 177.654H561.372L576.258 83.5058H596.105ZM620.602 177.654H600.882L615.768 83.5058H635.488L665.004 144.066L674.546 83.5058H694.267L679.381 177.654H659.661L630.144 117.094L620.602 177.654ZM704.249 141.14L713.409 83.5058H733.257L724.224 141.14C722.315 152.972 727.659 159.969 739.109 159.969C750.56 159.969 758.32 152.972 760.229 141.14L769.389 83.5058H789.237L779.822 142.539C776.132 165.44 761.119 179.181 737.201 179.181C715.954 179.181 700.687 163.786 704.249 141.14Z" fill="white"/>
<path d="M53.8992 83.5058L55.4718 83.7558L55.7647 81.9134H53.8992V83.5058ZM46.9017 127.526L45.329 127.276L44.4853 132.584L48.0843 128.593L46.9017 127.526ZM86.5965 83.5058V81.9134H85.8882L85.4139 82.4394L86.5965 83.5058ZM111.024 83.5058L112.201 84.5781L114.628 81.9134H111.024V83.5058ZM74.6372 123.455L73.4599 122.383L72.7873 123.121L73.1594 124.048L74.6372 123.455ZM96.393 177.654V179.246H98.7481L97.8708 177.061L96.393 177.654ZM74.3827 177.654L72.8971 178.227L73.2904 179.246H74.3827V177.654ZM59.7516 139.74L61.2372 139.167L60.3051 136.752L58.5699 138.673L59.7516 139.74ZM41.9398 159.46L40.7581 158.393L40.4424 158.742L40.3676 159.207L41.9398 159.46ZM39.0136 177.654V179.246H40.3703L40.5858 177.907L39.0136 177.654ZM19.1662 177.654L17.5933 177.405L17.3022 179.246H19.1662V177.654ZM34.0517 83.5058V81.9134H32.6913L32.4789 83.2571L34.0517 83.5058ZM52.3265 83.2558L45.329 127.276L48.4743 127.776L55.4718 83.7558L52.3265 83.2558ZM48.0843 128.593L87.7791 84.5722L85.4139 82.4394L45.7191 126.46L48.0843 128.593ZM86.5965 85.0982H111.024V81.9134H86.5965V85.0982ZM109.847 82.4335L73.4599 122.383L75.8144 124.527L112.201 84.5781L109.847 82.4335ZM73.1594 124.048L94.9152 178.247L97.8708 177.061L76.1149 122.862L73.1594 124.048ZM96.393 176.061H74.3827V179.246H96.393V176.061ZM75.8683 177.081L61.2372 139.167L58.266 140.313L72.8971 178.227L75.8683 177.081ZM58.5699 138.673L40.7581 158.393L43.1215 160.528L60.9333 140.808L58.5699 138.673ZM40.3676 159.207L37.4414 177.401L40.5858 177.907L43.512 159.713L40.3676 159.207ZM39.0136 176.061H19.1662V179.246H39.0136V176.061ZM20.739 177.902L35.6246 83.7545L32.4789 83.2571L17.5933 177.405L20.739 177.902ZM34.0517 85.0982H53.8992V81.9134H34.0517V85.0982ZM120.479 177.654V179.246H121.468L121.907 178.359L120.479 177.654ZM98.8501 177.654L97.4304 176.932L96.2548 179.246H98.8501V177.654ZM146.687 83.5058V81.9134H145.71L145.268 82.7845L146.687 83.5058ZM166.153 83.5058L167.717 83.2077L167.471 81.9134H166.153V83.5058ZM184.092 177.654V179.246H186.017L185.656 177.356L184.092 177.654ZM163.736 177.654L162.165 177.912L162.384 179.246H163.736V177.654ZM160.428 157.552L161.999 157.293L161.78 155.96H160.428V157.552ZM130.402 157.552V155.96H129.413L128.974 156.847L130.402 157.552ZM149.105 119.257L147.68 118.544L147.675 118.556L147.669 118.568L149.105 119.257ZM138.799 140.758L137.363 140.07L136.27 142.35H138.799V140.758ZM157.502 140.758V142.35H159.38L159.073 140.498L157.502 140.758ZM153.939 119.257L155.51 118.996L155.51 118.995L153.939 119.257ZM152.922 110.351H154.514L151.42 109.821L152.922 110.351ZM120.479 176.061H98.8501V179.246H120.479V176.061ZM100.27 178.375L148.107 84.2271L145.268 82.7845L97.4304 176.932L100.27 178.375ZM146.687 85.0982H166.153V81.9134H146.687V85.0982ZM164.589 83.8039L182.528 177.952L185.656 177.356L167.717 83.2077L164.589 83.8039ZM184.092 176.061H163.736V179.246H184.092V176.061ZM165.307 177.395L161.999 157.293L158.857 157.81L162.165 177.912L165.307 177.395ZM160.428 155.96H130.402V159.144H160.428V155.96ZM128.974 156.847L119.051 176.949L121.907 178.359L131.83 158.257L128.974 156.847ZM147.669 118.568L137.363 140.07L140.235 141.446L150.541 119.945L147.669 118.568ZM138.799 142.35H157.502V139.166H138.799V142.35ZM159.073 140.498L155.51 118.996L152.368 119.517L155.931 141.018L159.073 140.498ZM155.51 118.995C155.125 116.685 154.514 112.361 154.514 110.351H151.329C151.329 112.667 151.99 117.248 152.369 119.518L155.51 118.995ZM151.42 109.821C150.678 111.922 149.177 115.551 147.68 118.544L150.529 119.969C152.085 116.856 153.638 113.105 154.423 110.881L151.42 109.821ZM189.12 102.081L187.547 101.833L187.257 103.673H189.12V102.081ZM192.046 83.5058V81.9134H190.685L190.473 83.258L192.046 83.5058ZM264.184 83.5058L265.757 83.7536L266.046 81.9134H264.184V83.5058ZM261.257 102.081V103.673H262.619L262.83 102.329L261.257 102.081ZM235.176 102.081V100.489H233.816L233.603 101.832L235.176 102.081ZM223.216 177.654V179.246H224.577L224.789 177.903L223.216 177.654ZM203.369 177.654L201.796 177.405L201.505 179.246H203.369V177.654ZM215.328 102.081L216.901 102.33L217.193 100.489H215.328V102.081ZM190.693 102.329L193.619 83.7536L190.473 83.258L187.547 101.833L190.693 102.329ZM192.046 85.0982H264.184V81.9134H192.046V85.0982ZM262.611 83.258L259.684 101.833L262.83 102.329L265.757 83.7536L262.611 83.258ZM261.257 100.489H235.176V103.673H261.257V100.489ZM233.603 101.832L221.644 177.405L224.789 177.903L236.749 102.33L233.603 101.832ZM223.216 176.061H203.369V179.246H223.216V176.061ZM204.942 177.903L216.901 102.33L213.756 101.832L201.796 177.405L204.942 177.903ZM215.328 100.489H189.12V103.673H215.328V100.489ZM267.709 177.654V179.246H268.699L269.137 178.359L267.709 177.654ZM246.081 177.654L244.661 176.932L243.485 179.246H246.081V177.654ZM293.918 83.5058V81.9134H292.941L292.498 82.7845L293.918 83.5058ZM313.384 83.5058L314.948 83.2077L314.701 81.9134H313.384V83.5058ZM331.323 177.654V179.246H333.247L332.887 177.356L331.323 177.654ZM310.966 177.654L309.395 177.912L309.615 179.246H310.966V177.654ZM307.658 157.552L309.23 157.293L309.01 155.96H307.658V157.552ZM277.633 157.552V155.96H276.643L276.205 156.847L277.633 157.552ZM296.335 119.257L294.911 118.544L294.905 118.556L294.899 118.568L296.335 119.257ZM286.03 140.758L284.594 140.07L283.501 142.35H286.03V140.758ZM304.732 140.758V142.35H306.61L306.303 140.498L304.732 140.758ZM301.17 119.257L302.741 118.996L302.741 118.995L301.17 119.257ZM300.152 110.351H301.744L298.65 109.821L300.152 110.351ZM267.709 176.061H246.081V179.246H267.709V176.061ZM247.5 178.375L295.338 84.2271L292.498 82.7845L244.661 176.932L247.5 178.375ZM293.918 85.0982H313.384V81.9134H293.918V85.0982ZM311.819 83.8039L329.758 177.952L332.887 177.356L314.948 83.2077L311.819 83.8039ZM331.323 176.061H310.966V179.246H331.323V176.061ZM312.538 177.395L309.23 157.293L306.087 157.81L309.395 177.912L312.538 177.395ZM307.658 155.96H277.633V159.144H307.658V155.96ZM276.205 156.847L266.281 176.949L269.137 178.359L279.061 158.257L276.205 156.847ZM294.899 118.568L284.594 140.07L287.466 141.446L297.771 119.945L294.899 118.568ZM286.03 142.35H304.732V139.166H286.03V142.35ZM306.303 140.498L302.741 118.996L299.599 119.517L303.161 141.018L306.303 140.498ZM302.741 118.995C302.356 116.685 301.744 112.361 301.744 110.351H298.56C298.56 112.667 299.221 117.248 299.599 119.518L302.741 118.995ZM298.65 109.821C297.909 111.922 296.408 115.551 294.911 118.544L297.76 119.969C299.316 116.856 300.868 113.105 301.654 110.881L298.65 109.821ZM362.172 177.654V179.246H363.533L363.745 177.902L362.172 177.654ZM342.452 177.654L340.879 177.405L340.588 179.246H342.452V177.654ZM357.338 83.5058V81.9134H355.977L355.765 83.2571L357.338 83.5058ZM377.058 83.5058L378.489 82.8081L378.053 81.9134H377.058V83.5058ZM406.574 144.066L405.143 144.764L407.36 149.312L408.147 144.314L406.574 144.066ZM416.117 83.5058V81.9134H414.755L414.544 83.258L416.117 83.5058ZM435.837 83.5058L437.41 83.7545L437.701 81.9134H435.837V83.5058ZM420.951 177.654V179.246H422.312L422.524 177.902L420.951 177.654ZM401.231 177.654L399.8 178.351L400.236 179.246H401.231V177.654ZM371.714 117.094L373.146 116.396L370.929 111.848L370.141 116.846L371.714 117.094ZM362.172 176.061H342.452V179.246H362.172V176.061ZM344.025 177.902L358.91 83.7545L355.765 83.2571L340.879 177.405L344.025 177.902ZM357.338 85.0982H377.058V81.9134H357.338V85.0982ZM375.626 84.2035L405.143 144.764L408.006 143.368L378.489 82.8081L375.626 84.2035ZM408.147 144.314L417.69 83.7536L414.544 83.258L405.002 143.818L408.147 144.314ZM416.117 85.0982H435.837V81.9134H416.117V85.0982ZM434.264 83.2571L419.378 177.405L422.524 177.902L437.41 83.7545L434.264 83.2571ZM420.951 176.061H401.231V179.246H420.951V176.061ZM402.662 176.956L373.146 116.396L370.283 117.791L399.8 178.351L402.662 176.956ZM370.141 116.846L360.599 177.406L363.745 177.902L373.287 117.342L370.141 116.846ZM453.58 177.654V179.246H454.57L455.008 178.359L453.58 177.654ZM431.951 177.654L430.532 176.932L429.356 179.246H431.951V177.654ZM479.789 83.5058V81.9134H478.812L478.369 82.7845L479.789 83.5058ZM499.254 83.5058L500.819 83.2077L500.572 81.9134H499.254V83.5058ZM517.193 177.654V179.246H519.118L518.758 177.356L517.193 177.654ZM496.837 177.654L495.266 177.912L495.485 179.246H496.837V177.654ZM493.529 157.552L495.1 157.293L494.881 155.96H493.529V157.552ZM463.504 157.552V155.96H462.514L462.076 156.847L463.504 157.552ZM482.206 119.257L480.782 118.544L480.776 118.556L480.77 118.568L482.206 119.257ZM471.901 140.758L470.465 140.07L469.372 142.35H471.901V140.758ZM490.603 140.758V142.35H492.481L492.174 140.498L490.603 140.758ZM487.041 119.257L488.612 118.996L488.611 118.995L487.041 119.257ZM486.023 110.351H487.615L484.521 109.821L486.023 110.351ZM453.58 176.061H431.951V179.246H453.58V176.061ZM433.371 178.375L481.208 84.2271L478.369 82.7845L430.532 176.932L433.371 178.375ZM479.789 85.0982H499.254V81.9134H479.789V85.0982ZM497.69 83.8039L515.629 177.952L518.758 177.356L500.819 83.2077L497.69 83.8039ZM517.193 176.061H496.837V179.246H517.193V176.061ZM498.408 177.395L495.1 157.293L491.958 157.81L495.266 177.912L498.408 177.395ZM493.529 155.96H463.504V159.144H493.529V155.96ZM462.076 156.847L452.152 176.949L455.008 178.359L464.931 158.257L462.076 156.847ZM480.77 118.568L470.465 140.07L473.337 141.446L483.642 119.945L480.77 118.568ZM471.901 142.35H490.603V139.166H471.901V142.35ZM492.174 140.498L488.612 118.996L485.47 119.517L489.032 141.018L492.174 140.498ZM488.611 118.995C488.226 116.685 487.615 112.361 487.615 110.351H484.43C484.43 112.667 485.092 117.248 485.47 119.518L488.611 118.995ZM484.521 109.821C483.78 111.922 482.279 115.551 480.782 118.544L483.63 119.969C485.187 116.856 486.739 113.105 487.524 110.881L484.521 109.821ZM596.105 83.5058L597.678 83.7545L597.969 81.9134H596.105V83.5058ZM581.219 177.654V179.246H582.58L582.792 177.902L581.219 177.654ZM561.372 177.654L559.799 177.405L559.508 179.246H561.372V177.654ZM576.258 83.5058V81.9134H574.897L574.685 83.2571L576.258 83.5058ZM594.532 83.2571L579.647 177.405L582.792 177.902L597.678 83.7545L594.532 83.2571ZM581.219 176.061H561.372V179.246H581.219V176.061ZM562.945 177.902L577.83 83.7545L574.685 83.2571L559.799 177.405L562.945 177.902ZM576.258 85.0982H596.105V81.9134H576.258V85.0982ZM620.602 177.654V179.246H621.963L622.175 177.902L620.602 177.654ZM600.882 177.654L599.309 177.405L599.018 179.246H600.882V177.654ZM615.768 83.5058V81.9134H614.407L614.195 83.2571L615.768 83.5058ZM635.488 83.5058L636.919 82.8081L636.483 81.9134H635.488V83.5058ZM665.004 144.066L663.573 144.764L665.79 149.312L666.577 144.314L665.004 144.066ZM674.546 83.5058V81.9134H673.185L672.973 83.258L674.546 83.5058ZM694.267 83.5058L695.839 83.7545L696.131 81.9134H694.267V83.5058ZM679.381 177.654V179.246H680.741L680.954 177.902L679.381 177.654ZM659.661 177.654L658.229 178.351L658.666 179.246H659.661V177.654ZM630.144 117.094L631.576 116.396L629.359 111.848L628.571 116.846L630.144 117.094ZM620.602 176.061H600.882V179.246H620.602V176.061ZM602.455 177.902L617.34 83.7545L614.195 83.2571L599.309 177.405L602.455 177.902ZM615.768 85.0982H635.488V81.9134H615.768V85.0982ZM634.056 84.2035L663.573 144.764L666.436 143.368L636.919 82.8081L634.056 84.2035ZM666.577 144.314L676.119 83.7536L672.973 83.258L663.431 143.818L666.577 144.314ZM674.546 85.0982H694.267V81.9134H674.546V85.0982ZM692.694 83.2571L677.808 177.405L680.954 177.902L695.839 83.7545L692.694 83.2571ZM679.381 176.061H659.661V179.246H679.381V176.061ZM661.092 176.956L631.576 116.396L628.713 117.791L658.229 178.351L661.092 176.956ZM628.571 116.846L619.029 177.406L622.175 177.902L631.717 117.342L628.571 116.846ZM704.249 141.14L702.676 140.89L702.676 140.892L704.249 141.14ZM713.409 83.5058V81.9134H712.05L711.837 83.2558L713.409 83.5058ZM733.257 83.5058L734.83 83.7524L735.118 81.9134H733.257V83.5058ZM724.224 141.14L725.796 141.393L725.797 141.386L724.224 141.14ZM760.229 141.14L761.801 141.393L761.802 141.39L760.229 141.14ZM769.389 83.5058V81.9134H768.03L767.817 83.2558L769.389 83.5058ZM789.237 83.5058L790.809 83.7566L791.103 81.9134H789.237V83.5058ZM779.822 142.539L781.394 142.792L781.394 142.79L779.822 142.539ZM705.822 141.39L714.982 83.7558L711.837 83.2558L702.676 140.89L705.822 141.39ZM713.409 85.0982H733.257V81.9134H713.409V85.0982ZM731.684 83.2592L722.65 140.893L725.797 141.386L734.83 83.7524L731.684 83.2592ZM722.652 140.886C721.657 147.05 722.501 152.268 725.403 155.973C728.327 159.707 733.069 161.562 739.109 161.562V158.377C733.699 158.377 730.044 156.733 727.91 154.01C725.755 151.258 724.881 147.062 725.796 141.393L722.652 140.886ZM739.109 161.562C745.171 161.562 750.368 159.703 754.309 156.178C758.242 152.661 760.8 147.596 761.801 141.393L758.657 140.886C757.749 146.515 755.473 150.865 752.186 153.805C748.906 156.737 744.498 158.377 739.109 158.377V161.562ZM761.802 141.39L770.962 83.7558L767.817 83.2558L758.656 140.89L761.802 141.39ZM769.389 85.0982H789.237V81.9134H769.389V85.0982ZM787.664 83.255L778.249 142.288L781.394 142.79L790.809 83.7566L787.664 83.255ZM778.25 142.286C776.451 153.45 771.918 162.244 765.049 168.249C758.185 174.249 748.847 177.588 737.201 177.588V180.773C749.473 180.773 759.601 177.242 767.145 170.647C774.685 164.056 779.503 154.529 781.394 142.792L778.25 142.286ZM737.201 177.588C726.962 177.588 718.287 173.884 712.604 167.586C706.933 161.302 704.107 152.29 705.822 141.387L702.676 140.892C700.829 152.636 703.855 162.644 710.239 169.719C716.61 176.78 726.193 180.773 737.201 180.773V177.588Z" fill="white"/>
<defs>
<radialGradient id="paint0_angular_1_9854" cx="0" cy="0" r="1" gradientUnits="userSpaceOnUse" gradientTransform="translate(398.5 93.9823) rotate(81.2336) scale(45.9617 241.946)">
<stop offset="0.0130186" stop-color="#480CC8"/>
<stop offset="0.0993526" stop-color="#2CDBBB"/>
<stop offset="0.427081" stop-color="#6C5DD3"/>
<stop offset="0.672778" stop-color="#9F53FF"/>
<stop offset="0.729249" stop-color="#8B43F2"/>
</radialGradient>
<radialGradient id="paint1_angular_1_9854" cx="0" cy="0" r="1" gradientUnits="userSpaceOnUse" gradientTransform="translate(270.683 169.074) rotate(81.7471) scale(46.057 137.898)">
<stop offset="0.0993526" stop-color="#2CDBBB"/>
<stop offset="0.427081" stop-color="#6C5DD3"/>
<stop offset="0.718753" stop-color="#9F53FF"/>
<stop offset="1" stop-color="#480CC8"/>
</radialGradient>
<radialGradient id="paint2_angular_1_9854" cx="0" cy="0" r="1" gradientUnits="userSpaceOnUse" gradientTransform="translate(270.683 169.074) rotate(81.7471) scale(46.057 137.898)">
<stop offset="0.0993526" stop-color="#2CDBBB"/>
<stop offset="0.427081" stop-color="#6C5DD3"/>
<stop offset="0.718753" stop-color="#9F53FF"/>
<stop offset="1" stop-color="#480CC8"/>
</radialGradient>
<radialGradient id="paint3_angular_1_9854" cx="0" cy="0" r="1" gradientUnits="userSpaceOnUse" gradientTransform="translate(662.854 169.074) rotate(86.2088) scale(45.68 63.5205)">
<stop offset="0.0993526" stop-color="#2CDBBB"/>
<stop offset="0.427081" stop-color="#6C5DD3"/>
<stop offset="0.718753" stop-color="#9F53FF"/>
<stop offset="1" stop-color="#480CC8"/>
</radialGradient>
<radialGradient id="paint4_angular_1_9854" cx="0" cy="0" r="1" gradientUnits="userSpaceOnUse" gradientTransform="translate(662.854 169.074) rotate(86.2088) scale(45.68 63.5205)">
<stop offset="0.0993526" stop-color="#2CDBBB"/>
<stop offset="0.427081" stop-color="#6C5DD3"/>
<stop offset="0.718753" stop-color="#9F53FF"/>
<stop offset="1" stop-color="#480CC8"/>
</radialGradient>
</defs>
</svg>
