<svg width="20" height="22" viewBox="0 0 20 22" fill="none" xmlns="http://www.w3.org/2000/svg">
<path d="M5.1665 11.125H6.44147C6.56597 11.125 6.6665 11.2255 6.6665 11.35V18.4C6.6665 18.5245 6.56597 18.625 6.44147 18.625H5.1665C4.5455 18.625 4.0415 18.121 4.0415 17.5V12.25C4.0415 11.629 4.5455 11.125 5.1665 11.125Z" fill="white"/>
<path d="M17.3533 12.5875L15.8533 17.0875C15.5458 18.0025 15.2232 18.625 13.7157 18.625H8.01645C7.89195 18.625 7.7915 18.5245 7.7915 18.4V11.161C7.7915 11.137 7.79526 11.113 7.80276 11.0905L9.51645 5.89752C9.69645 5.41002 10.154 5.125 10.6265 5.125C10.8515 5.125 11.084 5.19251 11.2865 5.32751C11.9165 5.74001 12.2915 6.44501 12.2915 7.19501V9.625H15.2165C17.4733 9.625 17.8408 11.1325 17.3533 12.5875Z" fill="white"/>
<path fill-rule="evenodd" clip-rule="evenodd" d="M10.229 0.625C10.695 0.625 11.0728 1.00276 11.0728 1.46875V2.59375C11.0728 3.05974 10.695 3.4375 10.229 3.4375C9.76301 3.4375 9.38525 3.05974 9.38525 2.59375V1.46875C9.38525 1.00276 9.76301 0.625 10.229 0.625Z" fill="url(#paint0_linear_1_9627)"/>
<path fill-rule="evenodd" clip-rule="evenodd" d="M19.0014 3.47162C19.3309 3.80113 19.3309 4.33536 19.0014 4.66486L18.2059 5.46036C17.8764 5.78986 17.3422 5.78986 17.0127 5.46036C16.6832 5.13085 16.6832 4.59662 17.0127 4.26712L17.8082 3.47162C18.1377 3.14212 18.6719 3.14212 19.0014 3.47162Z" fill="url(#paint1_linear_1_9627)"/>
<path fill-rule="evenodd" clip-rule="evenodd" d="M4.61676 6.95014C4.28725 7.27964 3.70408 7.2307 3.31419 6.84082L2.37294 5.89956C1.98306 5.50968 1.93411 4.9265 2.26362 4.597C2.59312 4.26749 3.1763 4.31644 3.56618 4.70632L4.50744 5.64757C4.89732 6.03745 4.94626 6.62063 4.61676 6.95014Z" fill="white"/>
<defs>
<linearGradient id="paint0_linear_1_9627" x1="9.38525" y1="1.99519" x2="11.0728" y2="1.99519" gradientUnits="userSpaceOnUse">
<stop stop-color="#D136F6"/>
<stop offset="1" stop-color="#6C5DD3"/>
</linearGradient>
<linearGradient id="paint1_linear_1_9627" x1="17.4359" y1="3.84387" x2="18.6292" y2="5.03712" gradientUnits="userSpaceOnUse">
<stop stop-color="#D136F6"/>
<stop offset="1" stop-color="#6C5DD3"/>
</linearGradient>
</defs>
</svg>
