<svg width="25" height="24" viewBox="0 0 25 24" fill="none" xmlns="http://www.w3.org/2000/svg">
<path d="M13.6338 4.36227C13.2095 3.50164 11.9828 3.50164 11.5585 4.36227L9.53719 8.45714L5.01715 9.11376C4.06822 9.25177 3.68848 10.4184 4.37596 11.0879L7.6462 14.2767L6.87471 18.777C6.71184 19.7225 7.70449 20.4434 8.55312 19.9977L12.5957 17.8718L16.6383 19.9977C17.4869 20.4434 18.4796 19.7234 18.3175 18.777L17.5461 14.2767L20.8163 11.0879C21.5021 10.4193 21.124 9.25177 20.1742 9.11376L15.6559 8.45714L13.6329 4.36227H13.6338ZM3.30702 4.94431C3.20064 5.07754 3.15153 5.24757 3.1705 5.41701C3.18947 5.58644 3.27496 5.7414 3.40817 5.84781L5.55119 7.56222C5.68441 7.66873 5.85449 7.71796 6.02401 7.69907C6.10795 7.68971 6.18922 7.66392 6.26319 7.62316C6.33716 7.5824 6.40237 7.52746 6.45511 7.4615C6.50785 7.39553 6.54708 7.31982 6.57056 7.2387C6.59404 7.15757 6.60131 7.07261 6.59196 6.98868C6.5826 6.90474 6.55681 6.82347 6.51605 6.7495C6.47529 6.67553 6.42035 6.61031 6.35439 6.55757L4.21138 4.84316C4.14538 4.79036 4.06962 4.75108 3.98844 4.72758C3.90725 4.70408 3.82222 4.69682 3.73822 4.70621C3.65423 4.71561 3.57291 4.74147 3.49892 4.78233C3.42493 4.82319 3.35972 4.87823 3.30702 4.94431Z" fill="white"/>
<path d="M23.5023 18.2184C23.6265 18.0631 23.6839 17.8648 23.662 17.6672C23.6401 17.4695 23.5405 17.2887 23.3853 17.1644L20.8853 15.1644C20.7298 15.04 20.5314 14.9825 20.3335 15.0044C20.1357 15.0264 19.9547 15.126 19.8303 15.2814C19.7059 15.4368 19.6483 15.6353 19.6703 15.8331C19.6922 16.031 19.7918 16.212 19.9473 16.3364L22.4473 18.3364C22.5242 18.3981 22.6125 18.444 22.7072 18.4715C22.8019 18.499 22.901 18.5075 22.999 18.4966C23.097 18.4858 23.1919 18.4557 23.2782 18.4081C23.3646 18.3606 23.4407 18.2954 23.5023 18.2184ZM1.94827 17.1644C1.79285 17.2887 1.69316 17.4696 1.67112 17.6673C1.64909 17.8651 1.70651 18.0635 1.83077 18.2189C1.95502 18.3743 2.13592 18.474 2.33368 18.4961C2.53144 18.5181 2.72985 18.4607 2.88527 18.3364L5.38527 16.3364C5.54068 16.2122 5.64037 16.0313 5.66241 15.8335C5.68444 15.6357 5.62702 15.4373 5.50277 15.2819C5.37851 15.1265 5.19761 15.0268 4.99985 15.0048C4.80209 14.9827 4.60368 15.0402 4.44827 15.1644L1.94827 17.1644ZM23.5023 3.78241C23.6265 3.93771 23.6839 4.13599 23.662 4.33364C23.6401 4.53129 23.5405 4.71214 23.3853 4.83641L20.8853 6.83641C20.7298 6.9608 20.5314 7.01835 20.3335 6.99641C20.1357 6.97447 19.9547 6.87483 19.8303 6.71941C19.7059 6.564 19.6483 6.36553 19.6703 6.16768C19.6922 5.96983 19.7918 5.7888 19.9473 5.66441L22.4473 3.66441C22.5243 3.60281 22.6126 3.55699 22.7073 3.52957C22.8021 3.50216 22.9012 3.49369 22.9992 3.50465C23.0972 3.51561 23.1921 3.54578 23.2784 3.59344C23.3647 3.64111 23.4408 3.70532 23.5023 3.78241Z" fill="url(#paint0_linear_1_9619)"/>
<defs>
<linearGradient id="paint0_linear_1_9619" x1="1.6665" y1="10.8083" x2="23.6666" y2="10.8083" gradientUnits="userSpaceOnUse">
<stop stop-color="#D136F6"/>
<stop offset="1" stop-color="#6C5DD3"/>
</linearGradient>
</defs>
</svg>
