<svg width="17" height="16" viewBox="0 0 17 16" fill="none" xmlns="http://www.w3.org/2000/svg">
<g clip-path="url(#clip0_1_9599)">
<path d="M8.29718 1.28836C8.43381 0.959846 8.89919 0.959845 9.03583 1.28836L10.6887 5.26234C10.7463 5.40084 10.8766 5.49547 11.0261 5.50745L15.3163 5.8514C15.671 5.87983 15.8148 6.32244 15.5446 6.55391L12.2759 9.35391C12.1619 9.45149 12.1122 9.6046 12.147 9.7505L13.1456 13.9371C13.2282 14.2831 12.8517 14.5567 12.5481 14.3712L8.87501 12.1277C8.747 12.0496 8.58601 12.0496 8.458 12.1277L4.78495 14.3712C4.48131 14.5567 4.10481 14.2831 4.18737 13.9371L5.18601 9.7505C5.22082 9.6046 5.17107 9.45149 5.05715 9.35391L1.78844 6.55391C1.51822 6.32244 1.66203 5.87983 2.01669 5.8514L6.30694 5.50745C6.45646 5.49547 6.5867 5.40084 6.6443 5.26235L8.29718 1.28836Z" fill="#FBBF24"/>
</g>
<defs>
<clipPath id="clip0_1_9599">
<rect width="16" height="16" fill="white" transform="translate(0.666504)"/>
</clipPath>
</defs>
</svg>
