<svg width="56" height="56" viewBox="0 0 56 56" fill="none" xmlns="http://www.w3.org/2000/svg">
<rect width="56" height="56" rx="28" fill="#0E0C15"/>
<path d="M56 28.0021C56 43.4661 43.464 56.0021 28 56.0021C12.536 56.0021 0 43.4661 0 28.0021C0 12.5381 12.536 5.25195 28 5.25195C43.464 5.25195 56 12.5381 56 28.0021Z" fill="url(#paint0_radial_1_14741)"/>
<path d="M35.431 24.659C34.04 24.504 32.494 23.29 31.899 22.006H24V27.119C26.798 27.119 25.686 30.753 28.996 31.265C30.984 31.572 32.254 30.571 32.377 29.335C32.575 27.361 33.708 25.61 35.431 24.659ZM26.309 22.96H29.87C30.059 22.96 30.213 23.113 30.213 23.303C30.213 23.492 30.06 23.645 29.87 23.645H26.309V22.96ZM26.309 24.247H29.87C30.059 24.247 30.213 24.4 30.213 24.589C30.213 24.778 30.06 24.931 29.87 24.931H26.309V24.247ZM26.309 26.218V25.533H29.87C30.059 25.533 30.213 25.686 30.213 25.876C30.213 26.065 30.06 26.218 29.87 26.218H26.309ZM29.434 30.475C26.62 30.195 26.79 26.93 29.952 27.418C32.144 27.758 31.997 30.73 29.434 30.475ZM23 22.006V25.002H16.986C16.926 24.511 16.636 23.996 16 23.845V22.006H23ZM19 21.272H16.703V20.241C16.703 20.053 16.891 19.941 17.069 20.037L19 21.272ZM33.81 23.342C33.563 23.163 33.331 22.962 33.108 22.724C33.637 22.427 34.135 22.23 34.789 22.182C35.03 22.164 35.138 22.455 34.896 22.558C34.41 22.766 34.078 22.971 33.81 23.342ZM30.777 28.635C30.451 29.205 29.902 29.781 29.436 29.819C29.291 29.831 29.192 29.696 29.248 29.566C29.355 29.319 30.026 28.821 29.87 28.014C30.362 28.094 30.653 28.345 30.777 28.635ZM36.067 25.475C34.51 26.277 33.47 27.829 33.329 29.585C34.106 29.908 35 30.502 35 32.523V34.988C35 35.835 35.34 36.002 36.216 36.002H38.709C39.699 36.002 40 35.693 40 35.003C40 33.476 39.604 31.175 38.003 28.924C37.221 27.823 36.2 27.074 36.067 25.475ZM35.437 29.448C35.046 29.448 34.73 29.132 34.73 28.74C34.73 28.348 35.046 28.032 35.437 28.032C35.828 28.032 36.145 28.348 36.145 28.74C36.145 29.132 35.827 29.448 35.437 29.448Z" fill="white"/>
<defs>
<radialGradient id="paint0_radial_1_14741" cx="0" cy="0" r="1" gradientUnits="userSpaceOnUse" gradientTransform="translate(28 39.4215) rotate(90) scale(16.5807 28)">
<stop stop-color="#15131D"/>
<stop offset="1" stop-color="#15131D" stop-opacity="0"/>
</radialGradient>
</defs>
</svg>
