<svg width="56" height="56" viewBox="0 0 56 56" fill="none" xmlns="http://www.w3.org/2000/svg">
<rect width="56" height="56" rx="28" fill="#0E0C15"/>
<path d="M56 28.0001C56 43.4641 43.464 56.0001 28 56.0001C12.536 56.0001 0 43.4641 0 28.0001C0 12.5362 12.536 5.25 28 5.25C43.464 5.25 56 12.5362 56 28.0001Z" fill="url(#paint0_radial_1_14729)"/>
<path d="M29.0546 23.4296C29.5235 22.9607 30.1595 22.6973 30.8226 22.6973C31.4857 22.6973 32.1217 22.9607 32.5906 23.4296C33.0595 23.8985 33.3229 24.5345 33.3229 25.1976C33.3229 25.8607 33.0595 26.4967 32.5906 26.9656C32.1217 27.4345 31.4857 27.6979 30.8226 27.6979C30.1595 27.6979 29.5235 27.4345 29.0546 26.9656C28.5857 26.4967 28.3223 25.8607 28.3223 25.1976C28.3223 24.5345 28.5857 23.8985 29.0546 23.4296ZM31.5296 24.4896C31.4367 24.3968 31.3264 24.3231 31.205 24.2729C31.0837 24.2227 30.9536 24.1968 30.8222 24.1969C30.6909 24.1969 30.5608 24.2229 30.4395 24.2732C30.3182 24.3235 30.2079 24.3972 30.1151 24.4901C30.0223 24.583 29.9486 24.6933 29.8984 24.8147C29.8482 24.936 29.8223 25.0661 29.8224 25.1974C29.8224 25.3288 29.8484 25.4589 29.8987 25.5802C29.949 25.7015 30.0227 25.8118 30.1156 25.9046C30.3042 26.0868 30.5568 26.1875 30.819 26.1853C31.0812 26.183 31.332 26.0778 31.5174 25.8924C31.7028 25.707 31.808 25.4562 31.8103 25.194C31.8125 24.9318 31.7118 24.6782 31.5296 24.4896Z" fill="white"/>
<path d="M35.6972 18.512C36.1231 18.6443 36.5104 18.8782 36.8257 19.1936C37.141 19.5089 37.3749 19.8962 37.5072 20.322L37.7142 20.987C38.0793 22.1617 38.1164 23.4138 37.8215 24.608C37.5266 25.8022 36.911 26.8932 36.0412 27.763L35.0432 28.761C35.5471 29.4346 35.7913 30.2672 35.731 31.1062C35.6708 31.9452 35.3102 32.7343 34.7152 33.329L33.4732 34.571C33.3326 34.7114 33.142 34.7903 32.9432 34.7903C32.7445 34.7903 32.5539 34.7114 32.4132 34.571L30.8232 32.981L30.6462 33.158C30.4837 33.3205 30.2908 33.4494 30.0785 33.5374C29.8661 33.6254 29.6386 33.6706 29.4087 33.6706C29.1789 33.6706 28.9513 33.6254 28.739 33.5374C28.5267 33.4494 28.3337 33.3205 28.1712 33.158L27.6842 32.671L26.8732 34.061C26.8155 34.1601 26.7357 34.2447 26.6401 34.3082C26.5445 34.3716 26.4356 34.4123 26.3219 34.4271C26.2081 34.4419 26.0924 34.4304 25.9838 34.3934C25.8751 34.3565 25.7764 34.2951 25.6952 34.214L21.8052 30.325C21.7246 30.2443 21.6635 30.1463 21.6264 30.0384C21.5894 29.9305 21.5775 29.8155 21.5915 29.7023C21.6056 29.5891 21.6453 29.4806 21.7077 29.3851C21.77 29.2896 21.8533 29.2095 21.9512 29.151L23.3352 28.322L22.8652 27.852C22.7027 27.6895 22.5738 27.4966 22.4858 27.2842C22.3979 27.0719 22.3526 26.8443 22.3526 26.6145C22.3526 26.3847 22.3979 26.1571 22.4858 25.9448C22.5738 25.7324 22.7027 25.5395 22.8652 25.377L23.0452 25.197L21.4532 23.607C21.3835 23.5373 21.3283 23.4546 21.2905 23.3636C21.2528 23.2726 21.2334 23.175 21.2334 23.0765C21.2334 22.978 21.2528 22.8804 21.2905 22.7894C21.3283 22.6983 21.3835 22.6156 21.4532 22.546L22.6962 21.303C23.2912 20.7082 24.0806 20.3477 24.9198 20.2876C25.7589 20.2275 26.5916 20.4719 27.2652 20.976L28.2612 19.981C29.1307 19.1116 30.2211 18.4961 31.4147 18.2011C32.6083 17.9061 33.8599 17.9427 35.0342 18.307L35.6972 18.512ZM36.0752 20.768C36.0151 20.5744 35.9088 20.3982 35.7654 20.2549C35.622 20.1115 35.4459 20.0051 35.2522 19.945L34.5902 19.74C33.6768 19.4563 32.7032 19.4275 31.7746 19.6568C30.846 19.8861 29.9977 20.3647 29.3212 21.041L23.9252 26.438C23.8785 26.4849 23.8523 26.5483 23.8523 26.6145C23.8523 26.6807 23.8785 26.7441 23.9252 26.791L29.2322 32.098C29.2791 32.1447 29.3426 32.1709 29.4087 32.1709C29.4749 32.1709 29.5384 32.1447 29.5852 32.098L34.9812 26.703C35.6575 26.0264 36.136 25.1778 36.3652 24.249C36.5943 23.3202 36.5653 22.3465 36.2812 21.433L36.0752 20.768ZM22.6892 34.395C22.8259 34.2536 22.9016 34.0642 22.9 33.8675C22.8984 33.6709 22.8196 33.4827 22.6806 33.3436C22.5416 33.2045 22.3535 33.1255 22.1569 33.1237C21.9602 33.1219 21.7708 33.1974 21.6292 33.334L19.1532 35.809C19.0167 35.9505 18.9412 36.14 18.943 36.3366C18.9448 36.5333 19.0237 36.7214 19.1629 36.8604C19.302 36.9994 19.4901 37.0781 19.6868 37.0798C19.8834 37.0814 20.0729 37.0057 20.2142 36.869L22.6892 34.395ZM20.7442 31.39C20.8847 31.5306 20.9636 31.7212 20.9636 31.92C20.9636 32.1187 20.8847 32.3094 20.7442 32.45L19.6842 33.51C19.6151 33.5817 19.5324 33.6388 19.4409 33.6782C19.3494 33.7175 19.251 33.7383 19.1514 33.7392C19.0518 33.7401 18.953 33.7212 18.8609 33.6835C18.7687 33.6458 18.6849 33.5902 18.6145 33.5198C18.544 33.4494 18.4883 33.3657 18.4505 33.2735C18.4128 33.1814 18.3937 33.0826 18.3946 32.9831C18.3954 32.8835 18.416 32.785 18.4553 32.6935C18.4945 32.602 18.5516 32.5192 18.6232 32.45L19.6832 31.39C19.7529 31.3203 19.8356 31.265 19.9266 31.2273C20.0176 31.1896 20.1152 31.1702 20.2137 31.1702C20.3123 31.1702 20.4098 31.1896 20.5009 31.2273C20.5919 31.265 20.6746 31.3203 20.7442 31.39ZM24.6312 36.341C24.7049 36.2723 24.764 36.1895 24.805 36.0975C24.846 36.0055 24.8681 35.9062 24.8698 35.8055C24.8716 35.7048 24.8531 35.6048 24.8154 35.5114C24.7776 35.418 24.7215 35.3332 24.6503 35.262C24.5791 35.1907 24.4942 35.1346 24.4008 35.0969C24.3075 35.0592 24.2074 35.0406 24.1067 35.0424C24.006 35.0442 23.9067 35.0662 23.8147 35.1072C23.7227 35.1482 23.6399 35.2073 23.5712 35.281L22.5122 36.339C22.3798 36.4812 22.3076 36.6692 22.3111 36.8635C22.3145 37.0578 22.3932 37.2432 22.5306 37.3806C22.668 37.518 22.8534 37.5967 23.0477 37.6002C23.242 37.6036 23.4301 37.5315 23.5722 37.399L24.6322 36.341H24.6312Z" fill="white"/>
<defs>
<radialGradient id="paint0_radial_1_14729" cx="0" cy="0" r="1" gradientUnits="userSpaceOnUse" gradientTransform="translate(28 39.4196) rotate(90) scale(16.5807 28)">
<stop stop-color="#15131D"/>
<stop offset="1" stop-color="#15131D" stop-opacity="0"/>
</radialGradient>
</defs>
</svg>
