<svg width="20" height="20" viewBox="0 0 20 20" fill="none" xmlns="http://www.w3.org/2000/svg">
<mask id="mask0_1_14465" style="mask-type:alpha" maskUnits="userSpaceOnUse" x="0" y="0" width="20" height="20">
<rect width="20" height="20" fill="#D9D9D9"/>
</mask>
<g mask="url(#mask0_1_14465)">
<path d="M10 9.16667C10.4583 9.16667 10.8507 9.00347 11.1771 8.67708C11.5035 8.35069 11.6667 7.95833 11.6667 7.5C11.6667 7.04167 11.5035 6.64931 11.1771 6.32292C10.8507 5.99653 10.4583 5.83333 10 5.83333C9.54167 5.83333 9.14931 5.99653 8.82292 6.32292C8.49653 6.64931 8.33333 7.04167 8.33333 7.5C8.33333 7.95833 8.49653 8.35069 8.82292 8.67708C9.14931 9.00347 9.54167 9.16667 10 9.16667ZM5.83333 17.5V15.8333H9.16667V13.25C8.48611 13.0972 7.87847 12.809 7.34375 12.3854C6.80903 11.9618 6.41667 11.4306 6.16667 10.7917C5.125 10.6667 4.25347 10.2118 3.55208 9.42708C2.85069 8.64236 2.5 7.72222 2.5 6.66667V5.83333C2.5 5.375 2.66319 4.98264 2.98958 4.65625C3.31597 4.32986 3.70833 4.16667 4.16667 4.16667H5.83333V2.5H14.1667V4.16667H15.8333C16.2917 4.16667 16.684 4.32986 17.0104 4.65625C17.3368 4.98264 17.5 5.375 17.5 5.83333V6.66667C17.5 7.72222 17.1493 8.64236 16.4479 9.42708C15.7465 10.2118 14.875 10.6667 13.8333 10.7917C13.5833 11.4306 13.191 11.9618 12.6562 12.3854C12.1215 12.809 11.5139 13.0972 10.8333 13.25V15.8333H14.1667V17.5H5.83333ZM5.83333 9V5.83333H4.16667V6.66667C4.16667 7.19444 4.31944 7.67014 4.625 8.09375C4.93056 8.51736 5.33333 8.81944 5.83333 9ZM10 11.6667C10.6944 11.6667 11.2847 11.4236 11.7708 10.9375C12.2569 10.4514 12.5 9.86111 12.5 9.16667V4.16667H7.5V9.16667C7.5 9.86111 7.74306 10.4514 8.22917 10.9375C8.71528 11.4236 9.30556 11.6667 10 11.6667ZM14.1667 9C14.6667 8.81944 15.0694 8.51736 15.375 8.09375C15.6806 7.67014 15.8333 7.19444 15.8333 6.66667V5.83333H14.1667V9Z" fill="url(#paint0_linear_1_14465)"/>
</g>
<defs>
<linearGradient id="paint0_linear_1_14465" x1="2.5" y1="9.8077" x2="17.5" y2="9.8077" gradientUnits="userSpaceOnUse">
<stop stop-color="#D136F6"/>
<stop offset="1" stop-color="#6C5DD3"/>
</linearGradient>
</defs>
</svg>
