<svg width="20" height="20" viewBox="0 0 20 20" fill="none" xmlns="http://www.w3.org/2000/svg">
<mask id="mask0_1_14486" style="mask-type:alpha" maskUnits="userSpaceOnUse" x="0" y="0" width="20" height="20">
<rect width="20" height="20" fill="#D9D9D9"/>
</mask>
<g mask="url(#mask0_1_14486)">
<path d="M3.33317 16.6673C2.87484 16.6673 2.48248 16.5041 2.15609 16.1777C1.8297 15.8513 1.6665 15.459 1.6665 15.0007V5.00065C1.6665 4.54232 1.8297 4.14996 2.15609 3.82357C2.48248 3.49718 2.87484 3.33398 3.33317 3.33398H16.6665C17.1248 3.33398 17.5172 3.49718 17.8436 3.82357C18.17 4.14996 18.3332 4.54232 18.3332 5.00065V15.0007C18.3332 15.459 18.17 15.8513 17.8436 16.1777C17.5172 16.5041 17.1248 16.6673 16.6665 16.6673H3.33317ZM9.99984 10.834L16.6665 6.66732V5.00065L9.99984 9.16732L3.33317 5.00065V6.66732L9.99984 10.834Z" fill="white"/>
</g>
</svg>
