<svg width="20" height="20" viewBox="0 0 20 20" fill="none" xmlns="http://www.w3.org/2000/svg">
<g clip-path="url(#clip0_1_14454)">
<path d="M10 0C4.4775 0 0 4.4775 0 10C0 15.5233 4.4775 20 10 20C15.5225 20 20 15.5233 20 10C20 4.4775 15.5225 0 10 0ZM10.3792 1.8025C12.1453 1.88131 13.8381 2.53107 15.2033 3.65417L3.65333 15.2033C3.31705 14.7934 3.02123 14.3519 2.77 13.885L10.3792 1.8025ZM16.3717 4.82917C17.4885 6.20153 18.1295 7.89945 18.1983 9.6675L6.15667 17.2508C5.68697 17.0015 5.24265 16.7071 4.83 16.3717L16.3717 4.82917ZM18.0208 11.7392C17.2808 15.4475 13.3383 19.1492 8.10417 17.9842L18.0208 11.7392Z" fill="white"/>
</g>
<defs>
<clipPath id="clip0_1_14454">
<rect width="20" height="20" fill="white"/>
</clipPath>
</defs>
</svg>
