<svg width="20" height="20" viewBox="0 0 20 20" fill="none" xmlns="http://www.w3.org/2000/svg">
<mask id="mask0_1_14479" style="mask-type:alpha" maskUnits="userSpaceOnUse" x="0" y="0" width="20" height="20">
<rect width="20" height="20" fill="#D9D9D9"/>
</mask>
<g mask="url(#mask0_1_14479)">
<path d="M9.1665 14.1673H10.8332V13.334H11.6665C11.9026 13.334 12.1005 13.2541 12.2603 13.0944C12.42 12.9347 12.4998 12.7368 12.4998 12.5007V10.0007C12.4998 9.76454 12.42 9.56662 12.2603 9.4069C12.1005 9.24718 11.9026 9.16732 11.6665 9.16732H9.1665V8.33398H12.4998V6.66732H10.8332V5.83398H9.1665V6.66732H8.33317C8.09706 6.66732 7.89914 6.74718 7.73942 6.9069C7.5797 7.06662 7.49984 7.26454 7.49984 7.50065V10.0007C7.49984 10.2368 7.5797 10.4347 7.73942 10.5944C7.89914 10.7541 8.09706 10.834 8.33317 10.834H10.8332V11.6673H7.49984V13.334H9.1665V14.1673ZM3.33317 16.6673C2.87484 16.6673 2.48248 16.5041 2.15609 16.1777C1.8297 15.8513 1.6665 15.459 1.6665 15.0007V5.00065C1.6665 4.54232 1.8297 4.14996 2.15609 3.82357C2.48248 3.49718 2.87484 3.33398 3.33317 3.33398H16.6665C17.1248 3.33398 17.5172 3.49718 17.8436 3.82357C18.17 4.14996 18.3332 4.54232 18.3332 5.00065V15.0007C18.3332 15.459 18.17 15.8513 17.8436 16.1777C17.5172 16.5041 17.1248 16.6673 16.6665 16.6673H3.33317ZM3.33317 15.0007H16.6665V5.00065H3.33317V15.0007Z" fill="url(#paint0_linear_1_14479)"/>
</g>
<defs>
<linearGradient id="paint0_linear_1_14479" x1="1.6665" y1="9.82971" x2="18.3332" y2="9.82971" gradientUnits="userSpaceOnUse">
<stop stop-color="#D136F6"/>
<stop offset="1" stop-color="#6C5DD3"/>
</linearGradient>
</defs>
</svg>
