<svg width="90" height="37" viewBox="0 0 90 37" fill="none" xmlns="http://www.w3.org/2000/svg">
<path d="M10.3762 36.4755L0.653075 0.5H86C87.933 0.5 89.5 2.067 89.5 4V31.5303L10.3762 36.4755Z" fill="#130E1D" stroke="url(#paint0_linear_217_5215)"/>
<path d="M26.72 23V10.4H29.852C31.82 10.4 32.804 11.438 32.804 13.514V19.886C32.804 21.962 31.82 23 29.852 23H26.72ZM29.816 12.2H28.7V21.2H29.816C30.488 21.2 30.824 20.792 30.824 19.976V13.424C30.824 12.608 30.488 12.2 29.816 12.2ZM36.5477 12.2V15.71H39.2657V17.51H36.5477V21.2H39.9677V23H34.5677V10.4H39.9677V12.2H36.5477ZM43.6746 12.2V15.998H46.2306V17.798H43.6746V23H41.6946V10.4H46.9326V12.2H43.6746ZM50.3621 12.2V15.71H53.0801V17.51H50.3621V21.2H53.7821V23H48.3821V10.4H53.7821V12.2H50.3621ZM59.9011 10.4L61.9171 23H59.9191L59.5771 20.714H57.1471L56.8051 23H54.9871L57.0031 10.4H59.9011ZM58.3531 12.632L57.3991 19.004H59.3071L58.3531 12.632ZM62.0776 12.2V10.4H68.1976V12.2H66.1276V23H64.1476V12.2H62.0776Z" fill="white"/>
<defs>
<linearGradient id="paint0_linear_217_5215" x1="3.58752e-07" y1="18.0256" x2="90" y2="18.0256" gradientUnits="userSpaceOnUse">
<stop stop-color="#D136F6"/>
<stop offset="1" stop-color="#6C5DD3"/>
</linearGradient>
</defs>
</svg>
