<svg width="56" height="56" viewBox="0 0 56 56" fill="none" xmlns="http://www.w3.org/2000/svg">
<rect width="56" height="56" rx="28" fill="#0E0C15"/>
<path d="M56 28.0001C56 43.4641 43.464 56.0001 28 56.0001C12.536 56.0001 0 43.4641 0 28.0001C0 12.5362 12.536 5.25 28 5.25C43.464 5.25 56 12.5362 56 28.0001Z" fill="url(#paint0_radial_1_14763)"/>
<path d="M36.2497 18.998H30.2497C30.1348 18.998 30.0215 19.0244 29.9185 19.0751C29.8154 19.1258 29.7254 19.1995 29.6553 19.2905L23.6553 27.0915L22.7497 26.1877C22.6104 26.0483 22.445 25.9376 22.2629 25.8621C22.0808 25.7867 21.8856 25.7478 21.6884 25.7478C21.4913 25.7478 21.2961 25.7867 21.114 25.8621C20.9319 25.9376 20.7665 26.0483 20.6272 26.1877L19.4375 27.3784C19.2982 27.5177 19.1877 27.683 19.1123 27.865C19.0369 28.047 18.998 28.2421 18.998 28.4391C18.998 28.6362 19.0369 28.8312 19.1123 29.0132C19.1877 29.1953 19.2982 29.3606 19.4375 29.4999L21.3125 31.3749L18.6875 33.9999C18.5482 34.1392 18.4377 34.3046 18.3623 34.4866C18.2869 34.6686 18.248 34.8637 18.248 35.0607C18.248 35.2577 18.2869 35.4528 18.3623 35.6348C18.4377 35.8168 18.5482 35.9822 18.6875 36.1215L19.8772 37.3102C20.1585 37.5913 20.5399 37.7492 20.9375 37.7492C21.3352 37.7492 21.7165 37.5913 21.9978 37.3102L24.6228 34.6852L26.4978 36.5602C26.6371 36.6997 26.8026 36.8103 26.9847 36.8858C27.1668 36.9613 27.3619 37.0002 27.5591 37.0002C27.7562 37.0002 27.9514 36.9613 28.1335 36.8858C28.3156 36.8103 28.481 36.6997 28.6203 36.5602L29.81 35.3696C29.9493 35.2303 30.0599 35.0649 30.1353 34.8829C30.2107 34.7009 30.2495 34.5058 30.2495 34.3088C30.2495 34.1118 30.2107 33.9167 30.1353 33.7347C30.0599 33.5527 29.9493 33.3873 29.81 33.248L28.9063 32.3443L36.7072 26.3443C36.7985 26.274 36.8723 26.1837 36.923 26.0803C36.9738 25.9769 37 25.8632 36.9997 25.748V19.748C36.9997 19.5491 36.9207 19.3584 36.78 19.2177C36.6394 19.0771 36.4486 18.998 36.2497 18.998ZM35.4997 25.3787L27.8366 31.2737L26.8109 30.248L31.5303 25.5287C31.6709 25.3879 31.7499 25.1971 31.7498 24.9982C31.7497 24.7992 31.6706 24.6085 31.5299 24.4679C31.3891 24.3273 31.1983 24.2483 30.9994 24.2484C30.8004 24.2485 30.6097 24.3276 30.4691 24.4684L25.7497 29.1868L24.725 28.1612L30.6191 20.498H35.4997V25.3787Z" fill="white"/>
<defs>
<radialGradient id="paint0_radial_1_14763" cx="0" cy="0" r="1" gradientUnits="userSpaceOnUse" gradientTransform="translate(28 39.4196) rotate(90) scale(16.5807 28)">
<stop stop-color="#15131D"/>
<stop offset="1" stop-color="#15131D" stop-opacity="0"/>
</radialGradient>
</defs>
</svg>
