<svg width="56" height="56" viewBox="0 0 56 56" fill="none" xmlns="http://www.w3.org/2000/svg">
<rect width="56" height="56" rx="28" fill="#0E0C15"/>
<path d="M56 28.0001C56 43.4641 43.464 56.0001 28 56.0001C12.536 56.0001 0 43.4641 0 28.0001C0 12.5362 12.536 5.25 28 5.25C43.464 5.25 56 12.5362 56 28.0001Z" fill="url(#paint0_radial_1_14752)"/>
<path d="M31.538 35L31.248 36.259C31.1398 36.7255 30.8855 37.1453 30.5222 37.4574C30.1589 37.7694 29.7055 37.9574 29.228 37.994L29.055 38.001H26.944C26.4648 38.001 25.9982 37.848 25.612 37.5643C25.2259 37.2807 24.9403 36.8812 24.797 36.424L24.751 36.257L24.461 35H31.538ZM28 18.002C29.9228 18.002 31.7669 18.7658 33.1265 20.1254C34.4862 21.4851 35.25 23.3291 35.25 25.252C35.25 27.388 34.314 29.345 32.485 31.092C32.4496 31.1258 32.4249 31.1692 32.414 31.217L31.886 33.5H28.75V26.751C28.75 26.552 28.671 26.3613 28.5303 26.2206C28.3897 26.08 28.1989 26.001 28 26.001C27.8011 26.001 27.6103 26.08 27.4697 26.2206C27.329 26.3613 27.25 26.552 27.25 26.751V33.501H24.114L23.588 31.218C23.5769 31.1706 23.5522 31.1275 23.517 31.094C21.687 29.345 20.75 27.388 20.75 25.251C20.7503 23.3283 21.5142 21.4845 22.8738 20.1251C24.2334 18.7657 26.0774 18.002 28 18.002ZM27.25 22.752V24.252C27.25 24.4509 27.329 24.6416 27.4697 24.7823C27.6103 24.9229 27.8011 25.002 28 25.002C28.1989 25.002 28.3897 24.9229 28.5303 24.7823C28.671 24.6416 28.75 24.4509 28.75 24.252V22.752C28.75 22.553 28.671 22.3623 28.5303 22.2216C28.3897 22.081 28.1989 22.002 28 22.002C27.8011 22.002 27.6103 22.081 27.4697 22.2216C27.329 22.3623 27.25 22.553 27.25 22.752ZM32.28 24.217C32.1394 24.0765 31.9487 23.9976 31.75 23.9976C31.5512 23.9976 31.3606 24.0765 31.22 24.217L30.159 25.277C30.0873 25.3461 30.0302 25.4288 29.9908 25.5203C29.9515 25.6118 29.9307 25.7102 29.9298 25.8098C29.9289 25.9094 29.9478 26.0081 29.9855 26.1003C30.0232 26.1925 30.0788 26.2763 30.1492 26.3467C30.2196 26.4172 30.3033 26.4729 30.3955 26.5107C30.4876 26.5484 30.5864 26.5675 30.6859 26.5666C30.7855 26.5658 30.884 26.5452 30.9755 26.5059C31.067 26.4667 31.1498 26.4096 31.219 26.338L32.28 25.278C32.4205 25.1373 32.4993 24.9467 32.4993 24.748C32.4993 24.5492 32.4205 24.3586 32.28 24.218V24.217ZM24.78 24.217C24.6378 24.0845 24.4498 24.0124 24.2555 24.0158C24.0612 24.0192 23.8758 24.0979 23.7384 24.2353C23.601 24.3727 23.5223 24.5581 23.5188 24.7524C23.5154 24.9467 23.5875 25.1348 23.72 25.277L24.78 26.338C24.8492 26.4096 24.9319 26.4668 25.0234 26.5061C25.1149 26.5455 25.2133 26.5662 25.3128 26.5671C25.4124 26.5681 25.5112 26.5491 25.6034 26.5115C25.6956 26.4738 25.7793 26.4181 25.8498 26.3478C25.9202 26.2774 25.976 26.1937 26.0137 26.1015C26.0515 26.0093 26.0705 25.9106 26.0697 25.811C26.0689 25.7114 26.0482 25.613 26.009 25.5215C25.9697 25.43 25.9126 25.3472 25.841 25.278L24.781 24.218L24.78 24.217Z" fill="white"/>
<defs>
<radialGradient id="paint0_radial_1_14752" cx="0" cy="0" r="1" gradientUnits="userSpaceOnUse" gradientTransform="translate(28 39.4196) rotate(90) scale(16.5807 28)">
<stop stop-color="#15131D"/>
<stop offset="1" stop-color="#15131D" stop-opacity="0"/>
</radialGradient>
</defs>
</svg>
