<svg width="18" height="24" viewBox="0 0 18 24" fill="none" xmlns="http://www.w3.org/2000/svg">
<path d="M8.1 24C7.94087 24 7.78826 23.9368 7.67574 23.8243C7.56321 23.7117 7.5 23.5591 7.5 23.4V20.875C3.2435 20.1608 0 16.4595 0 12C0 7.5405 3.2435 3.83915 7.5 3.125V0.6C7.5 0.44087 7.56321 0.288257 7.67574 0.175735C7.78826 0.0632133 7.94087 -3.57628e-07 8.1 -3.57628e-07H9.9C10.0591 -3.57628e-07 10.2117 0.0632133 10.3243 0.175735C10.4368 0.288257 10.5 0.44087 10.5 0.6V3.125C14.7565 3.83915 18 7.5405 18 12C18 16.4595 14.7565 20.1608 10.5 20.875V23.4C10.5 23.5591 10.4368 23.7117 10.3243 23.8243C10.2117 23.9368 10.0591 24 9.9 24H8.1ZM7.5 16.2437V14.85C7.5 14.6909 7.56321 14.5383 7.67574 14.4257C7.78826 14.3132 7.94087 14.25 8.1 14.25H9.9C10.0591 14.25 10.2117 14.3132 10.3243 14.4257C10.4368 14.5383 10.5 14.6909 10.5 14.85V16.2437C12.2478 15.6259 13.5 13.9592 13.5 12C13.5 10.0407 12.2478 8.374 10.5 7.75625V9.15C10.5 9.30913 10.4368 9.46174 10.3243 9.57426C10.2117 9.68679 10.0591 9.75 9.9 9.75H8.1C7.94087 9.75 7.78826 9.68679 7.67574 9.57426C7.56321 9.46174 7.5 9.30913 7.5 9.15V7.75625C5.75225 8.37405 4.5 10.0407 4.5 12C4.5 13.9593 5.75225 15.626 7.5 16.2437Z" fill="white"/>
</svg>
