<svg width="90" height="37" viewBox="0 0 90 37" fill="none" xmlns="http://www.w3.org/2000/svg">
<path d="M0 0H86C88.2091 0 90 1.79086 90 4V32L10 37L0 0Z" fill="url(#paint0_linear_217_6447)"/>
<path d="M22.196 10.4L23.708 20.678L25.22 10.4H27.038L25.094 23H22.142L20.198 10.4H22.196ZM28.4622 23V10.4H30.4422V23H28.4622ZM36.2599 18.302H38.1319V19.976C38.1319 20.996 37.8799 21.782 37.3759 22.334C36.8719 22.874 36.1399 23.144 35.1799 23.144C34.2199 23.144 33.4879 22.874 32.9839 22.334C32.4799 21.782 32.2279 20.996 32.2279 19.976V13.424C32.2279 12.404 32.4799 11.624 32.9839 11.084C33.4879 10.532 34.2199 10.256 35.1799 10.256C36.1399 10.256 36.8719 10.532 37.3759 11.084C37.8799 11.624 38.1319 12.404 38.1319 13.424V14.648H36.2599V13.298C36.2599 12.47 35.9179 12.056 35.2339 12.056C34.5499 12.056 34.2079 12.47 34.2079 13.298V20.102C34.2079 20.918 34.5499 21.326 35.2339 21.326C35.9179 21.326 36.2599 20.918 36.2599 20.102V18.302ZM39.2573 12.2V10.4H45.3773V12.2H43.3073V23H41.3273V12.2H39.2573ZM48.5673 13.298V20.102C48.5673 20.93 48.9093 21.344 49.5933 21.344C50.2773 21.344 50.6193 20.93 50.6193 20.102V13.298C50.6193 12.47 50.2773 12.056 49.5933 12.056C48.9093 12.056 48.5673 12.47 48.5673 13.298ZM46.5873 19.976V13.424C46.5873 12.416 46.8453 11.636 47.3613 11.084C47.8773 10.532 48.6213 10.256 49.5933 10.256C50.5653 10.256 51.3093 10.532 51.8253 11.084C52.3413 11.636 52.5993 12.416 52.5993 13.424V19.976C52.5993 20.984 52.3413 21.764 51.8253 22.316C51.3093 22.868 50.5653 23.144 49.5933 23.144C48.6213 23.144 47.8773 22.868 47.3613 22.316C46.8453 21.764 46.5873 20.984 46.5873 19.976ZM60.542 23H58.526C58.406 22.64 58.346 22.124 58.346 21.452V19.472C58.346 18.896 58.244 18.488 58.04 18.248C57.836 17.996 57.506 17.87 57.05 17.87H56.366V23H54.386V10.4H57.374C58.394 10.4 59.138 10.64 59.606 11.12C60.074 11.588 60.308 12.314 60.308 13.298V14.288C60.308 15.584 59.876 16.436 59.012 16.844C59.888 17.216 60.326 18.11 60.326 19.526V21.47C60.326 22.154 60.398 22.664 60.542 23ZM57.32 12.2H56.366V16.07H57.14C57.536 16.07 57.83 15.968 58.022 15.764C58.226 15.56 58.328 15.218 58.328 14.738V13.496C58.328 12.632 57.992 12.2 57.32 12.2ZM63.8064 23V18.824L61.3044 10.4H63.3744L64.8864 16.142L66.3984 10.4H68.2884L65.7864 18.824V23H63.8064Z" fill="white"/>
<defs>
<linearGradient id="paint0_linear_217_6447" x1="3.58752e-07" y1="18.0256" x2="90" y2="18.0256" gradientUnits="userSpaceOnUse">
<stop stop-color="#D136F6"/>
<stop offset="1" stop-color="#6C5DD3"/>
</linearGradient>
</defs>
</svg>
