<svg width="38" height="48" viewBox="0 0 38 48" fill="none" xmlns="http://www.w3.org/2000/svg">
<g style="mix-blend-mode:screen" opacity="0.8">
<path d="M37.1635 26.4391C37.1821 25.1118 36.9253 23.795 36.4092 22.572C35.9395 21.4903 35.2426 20.5222 34.366 19.7334C33.4923 18.9469 32.4716 18.3411 31.3628 17.9507C30.1724 17.5323 28.9219 17.31 27.6603 17.2924C26.8116 17.2802 25.9633 17.3353 25.1233 17.457C24.2599 17.5403 23.414 17.7529 22.6138 18.0878C20.8174 18.9517 22.4493 10.9844 22.367 11.0255L17.3891 29.1269C17.873 30.064 18.5235 30.9051 19.309 31.6089C20.1434 32.3481 21.0643 32.9836 22.0516 33.5014C23.0367 34.0119 24.0484 34.4697 25.0822 34.8727C25.5622 35.0647 26.0558 35.2566 26.5632 35.4898C27.053 35.694 27.514 35.9614 27.9345 36.2851C28.3387 36.579 28.6676 36.9643 28.8944 37.4096C29.1401 37.9112 29.2216 38.4773 29.1276 39.0278C29.0726 39.5151 28.9086 39.9838 28.6476 40.3991C28.4112 40.7634 28.1033 41.076 27.7425 41.3178C27.3696 41.5561 26.9628 41.7365 26.5358 41.8527C26.0869 41.9622 25.6265 42.0174 25.1645 42.0172C24.5749 42.0715 23.9806 41.998 23.422 41.8016C22.8635 41.6051 22.3539 41.2905 21.9282 40.879C21.1986 39.8922 20.8526 38.6738 20.9545 37.4508H14.3722C14.3642 38.915 14.668 40.3641 15.2636 41.7018C15.7983 42.8854 16.5845 43.9383 17.5674 44.7873C18.556 45.6377 19.7022 46.2854 20.9408 46.6934C22.2692 47.1304 23.6565 47.3616 25.0548 47.379C26.3342 47.3906 27.6102 47.2432 28.8533 46.9402C30.0569 46.6511 31.1993 46.1496 32.2267 45.4592C33.277 44.7507 34.1341 43.7917 34.7207 42.6688C35.3073 41.5459 35.6048 40.2945 35.5864 39.0278C35.6376 37.8329 35.4172 36.642 34.9419 35.5446C34.4987 34.5568 33.8703 33.663 33.0907 32.9117C32.283 32.1206 31.3578 31.4592 30.348 30.9507C29.3468 30.3918 28.3065 29.906 27.2351 29.4971L25.8638 28.976C25.386 28.7697 24.9271 28.5219 24.4925 28.2355C24.0627 27.9576 23.6865 27.6046 23.3818 27.1933C23.0904 26.7686 22.9726 26.2485 23.0526 25.7397C23.1058 25.2499 23.2751 24.7798 23.5463 24.3684C23.8142 23.9814 24.1598 23.6545 24.5611 23.4085C24.9883 23.1552 25.4503 22.9657 25.9324 22.8463C26.3815 22.7393 26.8421 22.6886 27.3037 22.6954C27.7731 22.6657 28.243 22.7456 28.6762 22.9289C29.1094 23.1121 29.494 23.3937 29.7995 23.7513C30.3778 24.5447 30.6637 25.5137 30.6086 26.494L37.1635 26.4391Z" fill="white"/>
<path d="M11.6013 21.2006L16.2501 -0.0410156H23.7786L14.1794 34.0772L14.7279 29.2365H7.74793L0 -0.0410156H7.43251L11.6013 21.2006Z" fill="white"/>
</g>
</svg>
