<svg width="40" height="19" viewBox="0 0 40 19" fill="none" xmlns="http://www.w3.org/2000/svg">
<path d="M34.657 4.23849C37.523 6.84695 37.523 11.3557 34.657 13.9642L30 18.2027H10L5.343 13.9642C2.47698 11.3557 2.47698 6.84695 5.343 4.23849L10 0L30 7.83842e-07L34.657 4.23849Z" fill="url(#paint0_angular_225_2080)"/>
<path d="M13.468 12.088C13.468 11.488 13.564 10.976 13.756 10.552C13.948 10.12 14.292 9.644 14.788 9.124C15.276 8.604 15.612 8.16 15.796 7.792C15.988 7.424 16.084 7.04 16.084 6.64C16.084 6.28 16.024 6.032 15.904 5.896C15.792 5.752 15.624 5.68 15.4 5.68C14.944 5.68 14.716 5.956 14.716 6.508V7.408H13.468V6.592C13.468 5.912 13.636 5.392 13.972 5.032C14.308 4.664 14.796 4.48 15.436 4.48C16.076 4.48 16.564 4.664 16.9 5.032C17.236 5.392 17.404 5.912 17.404 6.592C17.404 7.104 17.28 7.604 17.032 8.092C16.792 8.58 16.372 9.14 15.772 9.772C15.38 10.188 15.116 10.528 14.98 10.792C14.844 11.048 14.776 11.324 14.776 11.62V11.8H17.284V13H13.468V12.088ZM19.4607 8.704L18.0087 4.6H19.4007L20.2887 7.312H20.3127L21.2247 4.6H22.4727L21.0207 8.704L22.5447 13H21.1527L20.1927 10.072H20.1687L19.1847 13H17.9367L19.4607 8.704ZM23.1477 12.088C23.1477 11.488 23.2437 10.976 23.4357 10.552C23.6277 10.12 23.9717 9.644 24.4677 9.124C24.9557 8.604 25.2917 8.16 25.4757 7.792C25.6677 7.424 25.7637 7.04 25.7637 6.64C25.7637 6.28 25.7037 6.032 25.5837 5.896C25.4717 5.752 25.3037 5.68 25.0797 5.68C24.6237 5.68 24.3957 5.956 24.3957 6.508V7.408H23.1477V6.592C23.1477 5.912 23.3157 5.392 23.6517 5.032C23.9877 4.664 24.4757 4.48 25.1157 4.48C25.7557 4.48 26.2437 4.664 26.5797 5.032C26.9157 5.392 27.0837 5.912 27.0837 6.592C27.0837 7.104 26.9597 7.604 26.7117 8.092C26.4717 8.58 26.0517 9.14 25.4517 9.772C25.0597 10.188 24.7957 10.528 24.6597 10.792C24.5237 11.048 24.4557 11.324 24.4557 11.62V11.8H26.9637V13H23.1477V12.088Z" fill="white"/>
<defs>
<radialGradient id="paint0_angular_225_2080" cx="0" cy="0" r="1" gradientUnits="userSpaceOnUse" gradientTransform="translate(20 9.10133) rotate(90) scale(9.10133 20)">
<stop stop-color="#FF98E2"/>
<stop offset="1" stop-color="#9747FF"/>
</radialGradient>
</defs>
</svg>
