<svg width="131" height="64" viewBox="0 0 131 64" fill="none" xmlns="http://www.w3.org/2000/svg">
<path d="M7.6 22.4L131.2 0V64H0L7.6 22.4Z" fill="#AC6AFF" fill-opacity="0.16"/>
<path d="M44 4.8L131.2 0V64H0L44 4.8Z" fill="#AC6AFF" fill-opacity="0.16"/>
<path d="M71.5653 36.536H74.0613V38.768C74.0613 40.128 73.7253 41.176 73.0533 41.912C72.3813 42.632 71.4053 42.992 70.1253 42.992C68.8453 42.992 67.8693 42.632 67.1973 41.912C66.5253 41.176 66.1893 40.128 66.1893 38.768V30.032C66.1893 28.672 66.5253 27.632 67.1973 26.912C67.8693 26.176 68.8453 25.808 70.1253 25.808C71.4053 25.808 72.3813 26.176 73.0533 26.912C73.7253 27.632 74.0613 28.672 74.0613 30.032V31.664H71.5653V29.864C71.5653 28.76 71.1093 28.208 70.1973 28.208C69.2853 28.208 68.8293 28.76 68.8293 29.864V38.936C68.8293 40.024 69.2853 40.568 70.1973 40.568C71.1093 40.568 71.5653 40.024 71.5653 38.936V36.536ZM78.3031 35.6V42.8H75.6631V26H78.3031V33.2H81.3031V26H83.9911V42.8H81.3031V35.6H78.3031ZM91.7613 26L94.4493 42.8H91.7853L91.3293 39.752H88.0893L87.6333 42.8H85.2093L87.8973 26H91.7613ZM89.6973 28.976L88.4253 37.472H90.9693L89.6973 28.976ZM93.9967 28.4V26H102.157V28.4H99.3967V42.8H96.7567V28.4H93.9967Z" fill="white"/>
</svg>
