<svg width="20" height="20" viewBox="0 0 20 20" fill="none" xmlns="http://www.w3.org/2000/svg">
<mask id="mask0_1_4709" style="mask-type:alpha" maskUnits="userSpaceOnUse" x="0" y="0" width="20" height="20">
<rect width="20" height="20" fill="#D9D9D9"/>
</mask>
<g mask="url(#mask0_1_4709)">
<path d="M3.01279 12.5C2.6645 12.5 2.35307 12.3628 2.0785 12.0882C1.80392 11.8136 1.66663 11.5022 1.66663 11.1539V10.1282C1.66663 10.0505 1.67518 9.96726 1.69229 9.87846C1.70938 9.78964 1.73181 9.7073 1.75958 9.63146L4.03598 4.23531C4.1498 3.98017 4.34186 3.76606 4.61215 3.59298C4.88245 3.41991 5.16327 3.33337 5.45458 3.33337H13.8141V12.5L9.11856 17.1539C8.9957 17.2768 8.85868 17.3529 8.7075 17.3823C8.55633 17.4116 8.4129 17.3889 8.27721 17.3141C8.14153 17.2394 8.04324 17.1304 7.98236 16.9872C7.92145 16.8441 7.9097 16.694 7.94708 16.5369L8.80446 12.5H3.01279ZM12.9808 12.1443V4.16671H5.44869C5.33117 4.16671 5.21099 4.19876 5.08813 4.26285C4.96526 4.32696 4.87178 4.4338 4.80767 4.58337L2.49998 10V11.1539C2.49998 11.3035 2.54806 11.4263 2.64421 11.5225C2.74036 11.6186 2.86322 11.6667 3.01279 11.6667H9.83973L8.87498 16.218L12.9808 12.1443ZM16.1538 3.33337C16.524 3.33337 16.8409 3.46519 17.1045 3.72881C17.3682 3.99242 17.5 4.30933 17.5 4.67952V11.1539C17.5 11.5241 17.3682 11.841 17.1045 12.1046C16.8409 12.3682 16.524 12.5 16.1538 12.5H13.8141V11.6667H16.1538C16.3034 11.6667 16.4263 11.6186 16.5224 11.5225C16.6186 11.4263 16.6666 11.3035 16.6666 11.1539V4.67952C16.6666 4.52995 16.6186 4.40709 16.5224 4.31094C16.4263 4.21478 16.3034 4.16671 16.1538 4.16671H13.8141V3.33337H16.1538Z" fill="white"/>
</g>
</svg>
