<svg width="20" height="20" viewBox="0 0 20 20" fill="none" xmlns="http://www.w3.org/2000/svg">
<path d="M13.4016 8.80765C13.7787 8.80765 14.0913 8.68436 14.3394 8.43778C14.5875 8.19119 14.7115 7.87933 14.7115 7.5022C14.7115 7.12508 14.5882 6.81248 14.3416 6.5644C14.095 6.31633 13.7832 6.1923 13.4061 6.1923C13.0289 6.1923 12.7163 6.31559 12.4683 6.56218C12.2202 6.80876 12.0961 7.12062 12.0961 7.49775C12.0961 7.87487 12.2194 8.18747 12.466 8.43555C12.7126 8.68362 13.0244 8.80765 13.4016 8.80765ZM6.5939 8.80765C6.97103 8.80765 7.28363 8.68436 7.5317 8.43778C7.77978 8.19119 7.90383 7.87933 7.90383 7.5022C7.90383 7.12508 7.78053 6.81248 7.53395 6.5644C7.28737 6.31633 6.97551 6.1923 6.59838 6.1923C6.22124 6.1923 5.90864 6.31559 5.66058 6.56218C5.41249 6.80876 5.28845 7.12062 5.28845 7.49775C5.28845 7.87487 5.41174 8.18747 5.65833 8.43555C5.90491 8.68362 6.21677 8.80765 6.5939 8.80765ZM9.99998 15.1923C10.9179 15.1923 11.7644 14.9727 12.5394 14.5336C13.3144 14.0945 13.9435 13.4763 14.4269 12.6788C14.5307 12.5045 14.5407 12.3477 14.4567 12.2086C14.3727 12.0695 14.2269 12 14.0192 12H5.98075C5.77307 12 5.62724 12.0695 5.54328 12.2086C5.45929 12.3477 5.46923 12.5045 5.57308 12.6788C6.05641 13.4763 6.68558 14.0945 7.46058 14.5336C8.23558 14.9727 9.08204 15.1923 9.99998 15.1923ZM10.0016 19.5C8.68772 19.5 7.45268 19.2506 6.29655 18.752C5.1404 18.2533 4.13472 17.5765 3.2795 16.7217C2.42427 15.8669 1.74721 14.8616 1.24833 13.706C0.749442 12.5504 0.5 11.3156 0.5 10.0017C0.5 8.68772 0.749334 7.45268 1.248 6.29655C1.74667 5.1404 2.42342 4.13472 3.27825 3.2795C4.1331 2.42427 5.13834 1.74721 6.29398 1.24833C7.44959 0.749442 8.68437 0.5 9.9983 0.5C11.3122 0.5 12.5473 0.749333 13.7034 1.248C14.8596 1.74667 15.8652 2.42342 16.7205 3.27825C17.5757 4.1331 18.2527 5.13834 18.7516 6.29398C19.2505 7.44959 19.5 8.68437 19.5 9.9983C19.5 11.3122 19.2506 12.5473 18.752 13.7034C18.2533 14.8596 17.5765 15.8652 16.7217 16.7205C15.8669 17.5757 14.8616 18.2527 13.706 18.7516C12.5504 19.2505 11.3156 19.5 10.0016 19.5ZM9.99998 18C12.2166 18 14.1041 17.2208 15.6625 15.6625C17.2208 14.1041 18 12.2166 18 9.99998C18 7.78331 17.2208 5.89581 15.6625 4.33748C14.1041 2.77914 12.2166 1.99997 9.99998 1.99997C7.78331 1.99997 5.89581 2.77914 4.33748 4.33748C2.77914 5.89581 1.99998 7.78331 1.99998 9.99998C1.99998 12.2166 2.77914 14.1041 4.33748 15.6625C5.89581 17.2208 7.78331 18 9.99998 18Z" fill="#838091"/>
</svg>
