<svg width="17" height="15" viewBox="0 0 17 15" fill="none" xmlns="http://www.w3.org/2000/svg">
<path d="M12.8141 14.6665V5.49988L8.11858 0.846025C7.99572 0.723164 7.8587 0.647039 7.70752 0.61765C7.55635 0.588275 7.41292 0.610984 7.27723 0.685775C7.14155 0.760553 7.04326 0.869525 6.98238 1.01269C6.92147 1.15586 6.90972 1.30597 6.9471 1.46303L7.80448 5.49988H2.01281C1.66452 5.49988 1.35309 5.63716 1.07852 5.91173C0.803951 6.1863 0.666667 6.49773 0.666667 6.84602V7.87167C0.666667 7.94939 0.675216 8.03266 0.692313 8.12146C0.709396 8.21028 0.731827 8.29262 0.759604 8.36846L3.036 13.7646C3.14982 14.0197 3.34188 14.2339 3.61217 14.4069C3.88247 14.58 4.16328 14.6665 4.4546 14.6665H12.8141ZM11.9808 5.85565V13.8332H4.44871C4.33119 13.8332 4.21101 13.8012 4.08815 13.7371C3.96529 13.673 3.8718 13.5661 3.80769 13.4165L1.5 7.99988V6.84602C1.5 6.69646 1.54808 6.5736 1.64423 6.47744C1.74038 6.38129 1.86324 6.33321 2.01281 6.33321H8.83975L7.875 1.78192L11.9808 5.85565ZM15.1539 14.6665C15.524 14.6665 15.841 14.5347 16.1046 14.2711C16.3682 14.0075 16.5 13.6906 16.5 13.3204V6.84602C16.5 6.47583 16.3682 6.15893 16.1046 5.89532C15.841 5.63169 15.524 5.49988 15.1539 5.49988H12.8141V6.33321H15.1539C15.3034 6.33321 15.4263 6.38129 15.5224 6.47744C15.6186 6.5736 15.6667 6.69646 15.6667 6.84602V13.3204C15.6667 13.47 15.6186 13.5928 15.5224 13.689C15.4263 13.7851 15.3034 13.8332 15.1539 13.8332H12.8141V14.6665H15.1539Z" fill="url(#paint0_linear_225_5913)"/>
<defs>
<linearGradient id="paint0_linear_225_5913" x1="16.5" y1="7.45562" x2="0.666667" y2="7.45562" gradientUnits="userSpaceOnUse">
<stop stop-color="#D136F6"/>
<stop offset="1" stop-color="#6C5DD3"/>
</linearGradient>
</defs>
</svg>
