<svg width="20" height="20" viewBox="0 0 20 20" fill="none" xmlns="http://www.w3.org/2000/svg">
<mask id="mask0_1_4704" style="mask-type:alpha" maskUnits="userSpaceOnUse" x="0" y="0" width="20" height="20">
<rect width="20" height="20" fill="#D9D9D9"/>
</mask>
<g mask="url(#mask0_1_4704)">
<path d="M6.1859 16.6667V7.5L10.8814 2.84615C11.0043 2.72329 11.1413 2.64716 11.2925 2.61777C11.4436 2.5884 11.5871 2.61111 11.7228 2.6859C11.8585 2.76068 11.9567 2.86965 12.0176 3.01281C12.0785 3.15598 12.0903 3.30609 12.0529 3.46315L11.1955 7.5H16.9872C17.3355 7.5 17.6469 7.63729 17.9215 7.91186C18.196 8.18643 18.3333 8.49786 18.3333 8.84615V9.87179C18.3333 9.94952 18.3248 10.0328 18.3077 10.1216C18.2906 10.2104 18.2682 10.2927 18.2404 10.3686L15.964 15.7647C15.8502 16.0199 15.6581 16.234 15.3878 16.4071C15.1175 16.5801 14.8367 16.6667 14.5454 16.6667H6.1859ZM7.01923 7.85577V15.8333H14.5513C14.6688 15.8333 14.789 15.8013 14.9119 15.7372C15.0347 15.6731 15.1282 15.5662 15.1923 15.4167L17.5 10V8.84615C17.5 8.69658 17.4519 8.57372 17.3558 8.47756C17.2596 8.38141 17.1368 8.33334 16.9872 8.33334H10.1602L11.125 3.78204L7.01923 7.85577ZM3.84615 16.6667C3.47595 16.6667 3.15905 16.5349 2.89544 16.2712C2.63181 16.0076 2.5 15.6907 2.5 15.3205V8.84615C2.5 8.47595 2.63181 8.15905 2.89544 7.89544C3.15905 7.63181 3.47595 7.5 3.84615 7.5H6.1859V8.33334H3.84615C3.69658 8.33334 3.57372 8.38141 3.47756 8.47756C3.38141 8.57372 3.33333 8.69658 3.33333 8.84615V15.3205C3.33333 15.4701 3.38141 15.593 3.47756 15.6891C3.57372 15.7853 3.69658 15.8333 3.84615 15.8333H6.1859V16.6667H3.84615Z" fill="white"/>
</g>
</svg>
