<svg width="40" height="40" viewBox="0 0 40 40" fill="none" xmlns="http://www.w3.org/2000/svg">
<rect width="40" height="40" rx="6" fill="url(#paint0_linear_1_4639)"/>
<g clip-path="url(#clip0_1_4639)">
<path d="M27.8522 12.146C27.9214 12.2154 27.9688 12.3035 27.9883 12.3995C28.0079 12.4955 27.9988 12.5951 27.9622 12.686L22.1432 27.233C22.0919 27.3611 22.0063 27.4726 21.8958 27.5552C21.7852 27.6378 21.654 27.6883 21.5166 27.7011C21.3792 27.7139 21.2409 27.6886 21.117 27.6279C20.9931 27.5672 20.8883 27.4734 20.8142 27.357L17.6362 22.362L12.6412 19.184C12.5245 19.11 12.4306 19.0052 12.3697 18.8812C12.3088 18.7571 12.2834 18.6187 12.2962 18.4811C12.309 18.3435 12.3596 18.2121 12.4424 18.1015C12.5251 17.9908 12.6369 17.9052 12.7652 17.854L27.3122 12.037C27.4031 12.0004 27.5027 11.9914 27.5987 12.0109C27.6947 12.0305 27.7829 12.0778 27.8522 12.147V12.146ZM18.6342 22.07L21.3952 26.408L26.1282 14.576L18.6342 22.07ZM25.4212 13.869L13.5892 18.602L17.9282 21.362L25.4212 13.869Z" fill="white"/>
</g>
<defs>
<linearGradient id="paint0_linear_1_4639" x1="1.59445e-07" y1="19.4872" x2="40" y2="19.4872" gradientUnits="userSpaceOnUse">
<stop stop-color="#D136F6"/>
<stop offset="1" stop-color="#6C5DD3"/>
</linearGradient>
<clipPath id="clip0_1_4639">
<rect width="16" height="16" fill="white" transform="translate(12 12)"/>
</clipPath>
</defs>
</svg>
